<svg width="100" height="121" viewBox="0 0 100 121" fill="none" xmlns="http://www.w3.org/2000/svg">
<path fill-rule="evenodd" clip-rule="evenodd" d="M0.185547 21.0123L21.4064 42.3512L23.5521 42.8833C24.6981 40.9618 25.2375 40.3143 27.1545 39.3603C29.6013 35.0265 37.5133 30.2351 39.7667 25.5648C36.517 8.89719 44.9737 2.32559 37.2441 1.53781C32.8073 1.08585 31.1027 5.79504 30.0652 9.40057C27.8128 7.9317 15.8271 -6.85981 15.1783 6.47088C10.0765 6.54224 6.84505 7.91456 9.47494 13.4581C4.75736 13.7655 2.96192 15.2015 4.3522 20.0415L0.185547 21.0119V21.0123Z" fill="#82B9EE"/>
<path fill-rule="evenodd" clip-rule="evenodd" d="M27.1543 39.3608C31.1017 37.6939 26.6537 37.0999 32.3585 42.7389L70.2032 79.8632C71.5058 80.9473 70.2627 80.5779 72.3371 82.81L94.8629 105.561C97.9473 108.43 97.5851 109.099 100.001 110.044V83.9329C97.7322 82.9895 98.3594 83.0238 95.9763 80.3911C88.2415 71.8455 64.1688 48.769 55.1112 39.6441C52.8029 37.3179 42.6008 25.8604 39.7668 25.5652C37.5134 30.2355 29.6017 35.0269 27.1546 39.3608H27.1543Z" fill="#8CA585"/>
<path fill-rule="evenodd" clip-rule="evenodd" d="M21.4066 42.3517L60.4074 81.7232C62.4552 83.8102 96.2792 119.023 100.001 120.483V110.044C97.5852 109.099 97.9473 108.43 94.863 105.562L72.3372 82.8104C70.2628 80.5779 71.5062 80.9473 70.2033 79.8636L32.3586 42.7393C26.6534 37.1003 31.1015 37.6943 27.1544 39.3611C25.2376 40.3151 24.6979 40.9626 23.552 42.8841L21.4062 42.352L21.4066 42.3517Z" fill="#8C9B83"/>
</svg>
