<svg width="138" height="120" viewBox="0 0 138 120" fill="none" xmlns="http://www.w3.org/2000/svg">
<path fill-rule="evenodd" clip-rule="evenodd" d="M24.0163 42.9843C25.1605 42.3714 25.0263 42.5918 26.2827 41.3941C29.9211 35.8453 38.4179 30.2494 41.4551 25.2292C41.289 21.6338 40.5217 18.7643 40.5955 15.016C40.6703 11.2132 46.8124 -2.32911 36.5708 1.19631C33.6766 2.19258 32.7757 5.92893 32.071 8.65363C29.5407 7.45797 17.7141 -7.91424 16.9793 5.97861C14.1222 5.79355 13.2496 5.94327 11.3011 6.69572C10.4208 9.34731 10.0227 9.90001 11.2874 12.667C8.76837 13.0336 7.7885 13.6168 6.48842 14.202L5.92069 19.2103C-7.10848 20.3451 5.75814 30.6307 7.79968 32.6837C10.0615 34.9592 11.9768 37.1519 14.4641 39.1546C17.7945 41.8366 19.5574 42.0741 24.0167 42.984L24.0163 42.9843Z" fill="#82B9EE"/>
<path fill-rule="evenodd" clip-rule="evenodd" d="M26.2812 41.3941C34.2317 39.9253 36.971 44.0964 40.3326 47.5068C43.3257 50.5425 47.816 55.5581 50.8616 57.8329C55.209 49.9278 53.2929 47.5491 60.7103 42.1112C57.613 40.0991 54.192 36.1277 51.4838 33.432C49.8586 31.8159 48.7281 30.701 47.1211 29.0534C45.4564 27.3488 44.6544 25.4892 41.4537 25.2292C38.4166 30.2494 29.9197 35.8454 26.2812 41.3941Z" fill="#8CA585"/>
<path fill-rule="evenodd" clip-rule="evenodd" d="M70.1439 83.2986L70.5973 78.8388L86.2033 94.2247C90.9963 99.3445 110.462 117.849 111.138 120H137.375C136.507 117.697 108.661 90.5778 105.043 86.9895C99.0472 81.0437 94.7162 76.6067 88.6276 70.599C85.6852 67.6959 74.5959 55.8323 72.0209 54.4761C69.1309 59.5253 66.5824 78.2378 70.1436 83.2986H70.1439Z" fill="#8CA585"/>
<path fill-rule="evenodd" clip-rule="evenodd" d="M70.1445 83.2985L70.535 91.0322C70.5616 91.0133 72.471 89.9404 72.7832 89.7389C73.8365 90.4301 101.398 116.478 102.754 120H111.139C110.462 117.848 90.9969 99.3444 86.2039 94.2242L70.5979 78.8384L70.1445 83.2981V83.2985Z" fill="#8C9B83"/>
</svg>
