<svg width="221" height="222" viewBox="0 0 221 222" fill="none" xmlns="http://www.w3.org/2000/svg">
<path fill-rule="evenodd" clip-rule="evenodd" d="M138.305 50.3356C139.66 54.3465 159.876 70.9697 163.138 76.3271C166.703 78.5851 169.886 83.6675 173.257 85.5761C175.887 84.4001 180.761 84.2175 183.813 83.0501C193.596 79.3068 198.823 72.1471 206.28 64.6839C213.38 57.5767 225.676 49.3662 218.545 41.2138C216.204 38.5371 212.553 38.4864 208.489 39.0324C211.745 31.4649 208.243 23.8729 198.528 25.9434C199.472 22.0357 202.189 18.3896 198.369 14.0194C195.279 10.4852 191.236 11.1845 186.73 12.8003C189.486 2.26142 179.995 -2.76819 173.059 3.00373C167.833 7.35156 163.415 13.3942 158.127 17.6613C155.314 12.8065 154.505 6.21851 150.159 3.22271C144.732 -0.517143 135.122 2.07672 135.684 9.00548C135.842 10.9504 137.832 15.6142 138.481 17.8222C141.607 28.4635 139.936 39.6425 138.305 50.3352L138.305 50.3356Z" fill="white"/>
<path fill-rule="evenodd" clip-rule="evenodd" d="M99.8171 84.9886C97.6466 88.2404 81.3342 104.436 78.598 106.352C76.8669 109.102 71.5026 113.835 68.7332 116.574C59.913 125.301 2.86515 183.248 0 184.747V222H16.0733C17.8146 218.423 80.2292 157.854 88.9861 148.466C101.782 134.747 129.004 108.313 143.542 93.7696C146.777 90.5331 159.545 76.4286 163.139 76.3272C159.877 70.9694 139.66 54.3466 138.305 50.3357L136.218 49.4111L118.28 67.0113C113.964 71.385 103.672 82.62 99.8168 84.9886H99.8171Z" fill="#FAC225"/>
<path fill-rule="evenodd" clip-rule="evenodd" d="M16.0742 222H40.0155C40.7716 219.965 42.3832 219.011 43.7494 217.669L157.326 103.899C160.21 101.012 173.715 89.5176 173.258 85.5762C169.887 83.6676 166.705 78.5855 163.139 76.3271C159.546 76.4286 146.778 90.5334 143.543 93.7695C129.005 108.313 101.783 134.746 88.987 148.466C80.2304 157.854 17.8158 218.423 16.0742 222Z" fill="#FAAD21"/>
</svg>
