<svg width="115" height="79" viewBox="0 0 115 79" fill="none" xmlns="http://www.w3.org/2000/svg">
<path fill-rule="evenodd" clip-rule="evenodd" d="M36.016 1.9842C33.9563 5.41832 33.304 6.21835 33.9486 11.6971C28.6326 10.0596 25.2245 9.93827 22.3139 13.5802C18.6143 18.2093 21.3012 21.4629 22.8414 25.046C12.9851 23.8811 9.07396 29.5523 12.4855 38.1622C5.97704 37.4969 0.836124 38.6849 0.434457 45.5535C0.0841787 51.5465 13.5129 62.7195 19.4114 68.6086C21.2869 70.4812 22.6275 71.8853 24.4936 73.7253C26.3355 75.5409 28.4476 76.9055 30.1952 79.0002H54.6664C56.0997 75.7931 59.3735 73.6795 61.3997 71.6348C63.9558 69.0553 65.6534 67.3328 68.6807 64.3314C70.9184 62.1119 81.4526 52.1502 82.536 50.0321L82.1455 42.2984C78.5843 37.238 81.1327 18.5255 84.0227 13.4759C84.6876 9.25998 86.9728 7.00963 83.7441 3.51219C81.0513 0.595451 77.257 0.650367 72.7117 1.11107C65.2947 6.54857 67.2107 8.92766 62.863 16.8327C59.8175 14.5583 55.3272 9.54228 52.3341 6.5066C48.9725 3.09627 46.2332 -1.07491 38.2827 0.393954C37.0267 1.59136 37.1609 1.37098 36.0164 1.9842H36.016Z" fill="white"/>
<path fill-rule="evenodd" clip-rule="evenodd" d="M82.5355 50.0322C81.4522 52.1499 70.918 62.1119 68.6803 64.3315C65.6526 67.3329 63.9554 69.0553 61.3992 71.6349C59.3731 73.6795 56.0993 75.7931 54.666 79.0002H114.754C113.398 75.4783 85.8366 49.4305 84.7837 48.7393C84.4715 48.9408 82.5621 50.0133 82.5355 50.0325V50.0322Z" fill="#FAC225"/>
</svg>
