<svg width="115" height="80" viewBox="0 0 115 80" fill="none" xmlns="http://www.w3.org/2000/svg">
<path fill-rule="evenodd" clip-rule="evenodd" d="M41.9882 2.15418C37.479 1.3706 33.8098 1.85545 31.3257 4.5777C28.2103 7.99293 30.4465 10.3185 30.9961 14.4708C33.8584 19.2041 36.3722 38.4477 32.8432 43.3027L32.4793 50.9909C34.3006 54.2186 43.5376 62.518 46.3464 65.3238C49.2847 68.2588 50.7043 69.8668 53.201 72.305C55.411 74.4627 58.7708 76.9187 60.337 80.0002H84.7907L106.155 59.045C108.842 56.4036 114.883 52.0732 114.583 46.5441C114.21 39.6979 108.936 38.448 102.509 39.1935C105.95 30.7682 102.026 24.7304 92.1952 26.0762C97.765 14.8667 91.6051 9.96727 81.0296 12.6482C81.5921 8.44873 81.7102 8.41164 80.3825 4.63996C74.0321 -1.86342 69.3596 0.751082 64.47 5.67051C60.8281 9.3348 55.826 15.0032 52.111 17.8734C48.3873 10.7603 49.0172 6.06056 41.9879 2.15454L41.9882 2.15418Z" fill="white"/>
<path fill-rule="evenodd" clip-rule="evenodd" d="M0.209334 80H60.3363C58.7705 76.9188 55.4107 74.4624 53.2003 72.3048C50.7036 69.8666 49.284 68.2585 46.3458 65.3236C43.5365 62.5177 34.3 54.2184 32.4787 50.9907C32.3696 50.9253 30.6126 50.0161 30.2169 49.7656C26.8959 52.0282 11.8559 67.8384 7.28552 72.3583C5.44708 74.1773 0.956734 78.1026 0.208984 80H0.209334Z" fill="#FAC225"/>
</svg>
