<svg width="103" height="142" viewBox="0 0 103 142" fill="none" xmlns="http://www.w3.org/2000/svg">
<path fill-rule="evenodd" clip-rule="evenodd" d="M20.1506 50.1455C22.6077 53.8193 29.0459 59.5762 32.1579 62.6731C35.9365 66.4329 42.2405 71.7224 44.3897 75.4458C48.0917 77.1788 51.0359 83.467 55.0141 84.6896C61.2464 83.5289 64.0402 83.2974 69.4241 80.4891C74.2955 77.9484 76.5272 74.1767 80.4617 72.1852L80.8739 71.3715C81.2242 70.8419 81.2119 70.7957 81.7136 70.2042C82.4638 69.3209 83.0815 68.8389 83.9128 68.021C85.5562 66.4035 86.6549 65.2746 88.2853 63.6431C95.9778 55.9472 104.412 50.31 101.549 42.8009C99.8599 38.3733 95.4108 37.3357 89.8976 38.4593C94.461 30.6557 88.9271 23.2166 79.5 25.3756C81.5779 21.9303 83.9841 17.6678 79.9888 13.3294C76.4045 9.43707 73.5411 10.5995 68.5306 11.9624C70.4872 -0.920554 60.1085 -2.08788 54.6883 2.32781C49.6932 6.39649 44.906 12.2905 40.064 16.8122C39.2956 16.0727 39.7913 16.8682 38.8216 15.1712C36.5745 11.2358 36.1424 5.30228 31.284 2.28654C25.6718 -1.19865 16.5684 1.56417 17.3721 8.7322C18.0328 14.6227 21.4374 19.072 21.8226 27.7547C22.1935 36.1016 20.3435 42.4678 20.1509 50.1459L20.1506 50.1455Z" fill="white"/>
<path fill-rule="evenodd" clip-rule="evenodd" d="M0 117.716V141.553C2.9536 140.037 36.7037 105.567 42.2659 99.9617C46.937 95.2542 55.3933 88.4157 55.0147 84.6895C51.0365 83.4669 48.0923 77.1787 44.3903 75.4457C41.83 75.381 42.4354 75.6014 40.7924 77.3466C35.2303 83.2493 2.54249 116.349 0.000349579 117.716L0 117.716Z" fill="#FAAD21"/>
<path fill-rule="evenodd" clip-rule="evenodd" d="M0.000349579 65.7357V117.716C2.54284 116.35 35.2303 83.2494 40.7924 77.347C42.4358 75.6018 41.83 75.3814 44.3903 75.4462C42.2411 71.7227 35.9375 66.4329 32.1585 62.6734C29.0465 59.5765 22.6083 53.8196 20.1511 50.1459C17.9831 49.0947 20.0257 49.639 17.4825 48.9355C13.6004 52.5523 3.18851 64.001 0 65.736L0.000349579 65.7357Z" fill="#FAC225"/>
</svg>
