<svg width="103" height="142" viewBox="0 0 103 142" fill="none" xmlns="http://www.w3.org/2000/svg">
<path fill-rule="evenodd" clip-rule="evenodd" d="M48.0124 84.6949C52.0001 83.507 54.9806 77.1799 58.6103 75.4777C60.9325 71.3726 66.9299 66.6022 70.4624 63.0054C73.6775 59.7322 80.3943 53.6402 82.8697 50.1579L82.6065 46.7297L79.6952 44.5496L79.6909 50.374C79.6427 50.1061 79.6221 49.7947 79.5378 49.5733L79.0313 48.1503C77.7966 46.3312 76.4657 46.7325 75.4495 47.0337C72.6738 47.8575 73.1461 47.1439 73.1318 50.1365C71.645 50.0589 70.654 50.3786 69.2126 49.6534C68.9924 49.5425 68.8435 49.3995 68.661 49.2746C68.4702 49.1437 68.323 48.8873 68.1782 48.7649L67.311 47.4657C75.7529 49.1584 72.0841 48.8758 73.8593 47.4622C73.4747 45.6715 74.3085 46.8742 72.7871 45.7869L71.5164 45.6509C71.4175 45.6568 71.2025 45.7988 71.107 45.81L70.0572 45.8831C68.8243 45.7128 69.6786 44.8519 67.2879 46.206L65.8535 47.4587C65.5774 43.8066 67.0348 45.1447 63.6218 44.5762C62.7175 44.4255 60.3068 45.0499 60.0275 45.1944C54.4996 48.0509 59.2084 47.8788 60.147 49.6489C58.5459 50.5563 58.5861 50.5563 56.9844 49.6489C58.7861 46.5919 59.0466 50.0603 57.8342 45.2787C55.987 44.7984 47.6656 44.7914 43.7553 44.7914L43.9936 33.1293C41.132 33.1293 41.096 33.2465 38.9055 33.5966C36.9629 33.9073 37.6537 35.168 38.1665 33.1293C34.683 32.9184 35.0539 32.7081 32.3394 33.6166L32.3652 31.1801H43.7521C43.9353 27.385 43.3253 27.6701 43.2651 24.1401C40.1619 25.1794 40.3888 21.7089 40.3553 27.0562C40.3192 21.2871 40.6866 26.2495 38.8985 24.1401C37.6656 25.5933 38.385 23.7973 37.6355 26.0291C36.9241 28.1462 37.4299 26.4597 38.1948 27.0537L37.9246 23.1624C38.8349 24.0362 35.703 22.955 38.9838 23.5119C40.9065 23.8389 39.6756 23.6186 40.2864 23.5972L43.0232 23.1624C42.7488 21.2958 44.9711 25.5523 42.4702 22.5831L40.8425 20.4961C43.162 19.4491 42.194 20.4598 42.1049 18.2895C42.013 16.0535 42.0059 17.501 41.0803 16.1224L39.7305 17.1358C39.5858 17.3037 39.4009 17.4598 39.2778 17.6466C37.0909 20.9687 39.2261 18.2164 38.974 19.6912C38.7056 21.2598 38.8486 21.3724 36.714 22.6751C35.8044 20.1561 37.682 18.646 36.2306 15.873C38.3787 15.9384 36.9731 16.0839 38.7591 15.7061L41.5354 14.2065C41.6732 14.0956 41.9322 14.0326 42.0301 13.715C42.1307 13.3869 42.3629 13.369 42.5377 13.2036C42.4146 13.0297 42.2339 12.8212 42.1472 12.6963L40.4185 9.76071C39.4264 7.59991 39.5047 8.19389 38.9027 5.91416L42.5411 8.09735C42.8974 4.49357 42.9456 7.5282 42.2992 3.73063C43.0806 6.54837 43.8678 5.48004 44.001 8.82566C46.2275 7.4369 46.2698 7.29243 49.0933 6.88839L48.1512 8.0921C47.6366 9.0184 47.092 9.59874 47.6394 11.0123C47.8908 10.9462 48.1512 10.7972 48.3578 10.7112C48.5581 10.6275 48.8165 10.5132 49.0545 10.4149C53.9902 8.38384 49.3796 9.56341 52.0063 9.31295C52.3031 7.92524 52.4598 9.399 51.7396 6.45042C49.6904 -0.585022 32.0356 -5.48976 34.4645 11.9691C22.312 8.35411 17.8269 15.7082 23.4632 25.3834C13.1929 22.8798 10.4176 29.9635 12.6441 38.2166C3.09918 36.9828 -2.74159 43.8839 2.43778 51.1454C4.90616 54.6064 12.0264 60.9394 15.4481 64.3694C28.2675 77.217 30.2702 81.7439 48.0128 84.696L48.0124 84.6949Z" fill="white"/>
<path fill-rule="evenodd" clip-rule="evenodd" d="M82.8707 50.1576C80.3953 53.64 73.6785 59.732 70.4635 63.0052C66.931 66.602 60.9332 71.3728 58.6113 75.4775C61.1811 75.3886 60.2889 75.1228 62.2669 77.2983L92.0188 107.285C93.9143 109.19 100.627 116.517 103.001 117.708V65.6775C99.7078 64.3636 89.332 52.2807 85.5188 48.927C83.0228 49.6623 84.9871 49.1362 82.8707 50.1573V50.1576Z" fill="#FAC225"/>
<path fill-rule="evenodd" clip-rule="evenodd" d="M51.7401 6.44991C52.4602 9.39848 52.3036 7.92472 52.0068 9.31243C49.3801 9.5629 53.9907 8.38333 49.055 10.4143C48.8166 10.5126 48.5586 10.627 48.3583 10.7106C48.1517 10.7967 47.8912 10.9457 47.6399 11.0118C47.0928 9.59823 47.6375 9.01789 48.1517 8.09158L49.0938 6.88787C46.2703 7.29156 46.2279 7.43638 44.0015 8.82514C43.8679 5.47952 43.081 6.54785 42.2997 3.73011C42.9457 7.52768 42.8978 4.49305 42.5416 8.09683L38.9032 5.91364C39.5055 8.19338 39.4272 7.59939 40.419 9.76019L42.1477 12.6958C42.2344 12.8207 42.4151 13.0288 42.5381 13.2031C42.3633 13.3685 42.1312 13.3864 42.0305 13.7145C41.9326 14.0321 41.6736 14.0951 41.5359 14.206L38.7595 15.7056C36.9735 16.0834 38.3792 15.9379 36.231 15.8725C37.6825 18.6455 35.8052 20.1556 36.7145 22.6746C38.849 21.3719 38.7064 21.2593 38.9745 19.6907C39.2266 18.2159 37.0913 20.9682 39.2783 17.646C39.4014 17.4592 39.5863 17.3032 39.731 17.1353L41.0807 16.1219C42.0064 17.5002 42.0134 16.053 42.1054 18.289C42.1949 20.4592 43.1628 19.4486 40.843 20.4956L42.4707 22.5826C44.9719 25.5522 42.7493 21.2956 43.0237 23.1619L40.2868 23.5967C39.6761 23.618 40.907 23.8388 38.9843 23.5114C35.7039 22.9545 38.8354 24.0357 37.9251 23.1619L38.1953 27.0532C37.4304 26.4592 36.9246 28.1457 37.636 26.0286C38.3855 23.7972 37.666 25.5931 38.899 24.1396C40.6867 26.249 40.3194 21.2865 40.3557 27.0557C40.3893 21.7084 40.162 25.1789 43.2656 24.1396C43.3257 27.6696 43.9358 27.3845 43.7526 31.1796H32.3657L32.3398 33.6161C35.0543 32.7079 34.6834 32.9178 38.167 33.1288C37.6542 35.1675 36.9634 33.9071 38.906 33.5961C41.0965 33.2456 41.1325 33.1288 43.9941 33.1288L43.7557 44.7909C47.6661 44.7909 55.9875 44.7978 57.8347 45.2781C59.047 50.0597 58.7862 46.591 56.9848 49.6484C58.587 50.5558 58.5464 50.5558 60.1475 49.6484C59.2089 47.8783 54.5 48.0504 60.0279 45.1938C60.3076 45.049 62.7183 44.4249 63.6223 44.5757C67.0353 45.1438 65.5779 43.8061 65.854 47.4582L67.2884 46.2055C69.6791 44.8514 68.8251 45.7123 70.0577 45.8826L71.1075 45.8095C71.2029 45.7983 71.4179 45.6563 71.5169 45.6503L72.7876 45.7864C74.3086 46.8736 73.4748 45.671 73.8597 47.4617C72.0849 48.8753 75.7534 49.1576 67.3114 47.4652L68.1787 48.7644C68.3235 48.8865 68.4703 49.1432 68.6615 49.2741C68.844 49.3989 68.9929 49.542 69.2131 49.6529C70.6541 50.3777 71.6455 50.0583 73.1323 50.136C73.147 47.1433 72.6747 47.857 75.45 47.0332C76.4659 46.732 77.7971 46.3307 79.0318 48.1498L79.5383 49.5728C79.6226 49.7942 79.6432 50.1056 79.6914 50.3735L79.6956 44.5491L82.6069 46.7292C81.819 39.2879 80.6825 33.4174 81.331 25.5753C81.8186 19.677 85.8437 10.6106 85.7154 7.34998C85.485 1.46122 76.9535 -1.02595 71.713 2.28958C68.1253 4.55882 65.1639 11.6282 63.6566 16.9548C58.854 14.4925 56.5182 8.72264 51.7398 6.44956L51.7401 6.44991Z" fill="white"/>
<path fill-rule="evenodd" clip-rule="evenodd" d="M48.0122 84.6948C47.5906 88.4742 55.5233 94.6645 60.3611 99.6052C64.9235 104.265 70.5591 110.026 74.5709 113.819C79.1608 118.158 100.162 140.397 103 141.511V117.708C100.626 116.518 93.9134 109.19 92.018 107.285L62.266 77.2987C60.2881 75.1232 61.1802 75.3891 58.6105 75.4779C54.9804 77.1801 52.0003 83.5072 48.0126 84.6951L48.0122 84.6948Z" fill="#FAAD21"/>
</svg>
