<svg width="140" height="123" viewBox="0 0 140 123" fill="none" xmlns="http://www.w3.org/2000/svg">
<path fill-rule="evenodd" clip-rule="evenodd" d="M98.7086 25.8151C100.783 28.5237 105.174 32.5605 107.466 34.8056C108.94 36.2503 110.506 37.8661 111.874 39.1318C113.707 40.8287 115.461 41.7809 115.768 44.8932C117.249 42.6736 116.292 43.7231 119.169 42.8898C125.847 40.9571 125.434 40.4817 130.593 35.3352C138.852 27.0961 141.22 26.7484 138.872 20.8509L134.118 19.7979C135.885 15.4658 133.084 13.6398 128.989 13.3942C131.753 8.33103 128.488 6.21501 123.421 6.6047C122.652 -7.2822 110.071 8.3884 108.924 9.14785C107.241 6.89995 106.651 3.68271 104.834 2.41114C101.797 0.285673 99.3228 1.88082 97.6581 3.75757C97.3732 7.18224 99.2575 9.65858 99.6102 13.6335C99.9758 17.7498 99.5329 21.9363 98.7086 25.8151Z" fill="#82B9EE"/>
<path fill-rule="evenodd" clip-rule="evenodd" d="M0.582031 123H26.7645C27.6178 120.79 56.6626 92.3938 59.5337 89.6019L67.4034 81.9854L67.8439 86.3032C71.3733 81.4484 68.8591 62.2049 65.9967 57.4712C63.1651 58.946 52.2887 70.74 49.3805 73.6224C43.962 78.9921 1.41403 120.745 0.582031 123V123Z" fill="#8CA585"/>
<path fill-rule="evenodd" clip-rule="evenodd" d="M76.9883 45.1542C84.0173 49.0603 83.3877 53.76 87.1114 60.8731C90.8264 58.0029 95.8285 52.3345 99.4704 48.6702C104.36 43.7508 109.032 41.1363 115.383 47.6397L115.767 44.8933C115.461 41.781 113.707 40.8288 111.874 39.1319C110.506 37.8663 108.94 36.2505 107.466 34.8057C105.174 32.5603 100.783 28.5234 98.7083 25.8152C95.9054 26.1916 94.7997 28.0855 92.7117 30.2491C90.7708 32.2601 89.2263 33.7692 87.6312 35.3605C85.7316 37.2544 80.0817 43.8743 76.9886 45.1546L76.9883 45.1542Z" fill="#8CA585"/>
<path fill-rule="evenodd" clip-rule="evenodd" d="M26.7637 123H35.2099C35.9576 121.102 40.4476 117.177 42.2864 115.358C46.8568 110.838 61.8967 95.0281 65.2178 92.7655C65.6135 93.016 67.3705 93.9251 67.4795 93.9906L67.8434 86.3024L67.403 81.9846L59.5332 89.6011C56.6621 92.393 27.6173 120.789 26.764 122.999L26.7637 123Z" fill="#8C9B83"/>
</svg>
