<svg width="221" height="222" viewBox="0 0 221 222" fill="none" xmlns="http://www.w3.org/2000/svg">
<path fill-rule="evenodd" clip-rule="evenodd" d="M48.2197 85.1612C50.4326 83.6347 51.367 82.3089 53.3072 80.4356C54.8694 78.9283 56.7176 76.5226 58.6113 75.8632C60.3277 72.6012 67.3837 66.3808 70.813 62.9803C72.9287 60.8814 81.7378 52.8833 82.7068 50.3408C77.8141 19.6045 83.149 23.4762 85.2412 9.58862C86.2987 2.57381 77.0953 -0.590251 71.2965 2.95511C66.5859 5.83512 65.699 12.5124 62.9021 17.691C58.1702 14.0855 52.9219 7.34596 48.3225 3.35809C41.3701 -2.67024 32.5907 1.20849 33.9509 12.504C22.8696 9.52845 17.2022 15.9286 22.8189 25.9001C12.8489 24.4837 9.16506 30.5715 12.4826 39.0174C-1.24192 36.9521 -0.360983 47.8393 1.42432 51.0076L28.3157 78.0579C33.3738 82.249 39.6183 84.5494 48.2201 85.1616L48.2197 85.1612Z" fill="white"/>
<path fill-rule="evenodd" clip-rule="evenodd" d="M58.6101 75.8633C60.6516 76.6081 204.128 220.24 204.974 222H221V184.483C217.278 183.023 183.454 147.81 181.406 145.723L142.405 106.351L121.184 85.0123C118.495 83.3465 89.1206 53.2878 85.5105 49.833L82.7048 50.3409C81.7361 52.8834 72.9267 60.8815 70.8111 62.9804C67.3817 66.3809 60.3258 72.6013 58.6094 75.8633H58.6101Z" fill="#FAC225"/>
<path fill-rule="evenodd" clip-rule="evenodd" d="M48.2195 85.1615C47.4365 86.334 47.7465 86.2532 47.3711 87.1495C49.2655 90.3048 140.57 180.781 147.797 188.094L172.953 213.222C174.819 215.107 179.949 219.212 180.98 222H204.975C204.128 220.24 60.6527 76.6085 58.6111 75.8638C56.7174 76.5232 54.8696 78.9288 53.307 80.4362C51.3668 82.3094 50.4324 83.6356 48.2195 85.1618V85.1615Z" fill="#FAAD21"/>
</svg>
