<svg width="100" height="120" viewBox="0 0 100 120" fill="none" xmlns="http://www.w3.org/2000/svg">
<path fill-rule="evenodd" clip-rule="evenodd" d="M60.2611 24.944C62.8309 28.5523 70.1612 33.5826 72.0661 37.851C74.3006 38.735 75.4612 40.2539 76.3156 41.9886L78.599 41.3516C81.3348 39.436 97.6472 23.24 99.8181 19.9885L95.6969 18.8824C97.1638 12.7722 94.3668 13.9354 90.5805 12.018L91.4254 7.32598C88.7504 5.8823 88.1803 5.15294 84.7722 5.89175C84.7834 0.582282 81.6645 -1.56313 77.5349 1.32178C75.6895 2.6105 71.9745 7.12344 70.917 8.39256C67.7166 5.97011 68.657 0.548698 63.3423 0.528059C56.012 0.498674 60.7984 9.39478 61.1218 12.6732C61.5364 16.8727 60.8138 21.0999 60.2615 24.9443L60.2611 24.944Z" fill="#82B9EE"/>
<path fill-rule="evenodd" clip-rule="evenodd" d="M0 82.9589V108.905C2.04923 108.108 3.32345 106.084 4.99514 104.424C6.67277 102.76 8.00362 101.312 9.35544 100.037L36.3923 73.1218C42.2316 66.9172 47.9116 61.4114 54.1991 55.1904C55.8561 53.5504 57.1216 52.5671 59.0551 50.6298L72.0654 37.8512C70.1606 33.5827 62.8302 28.5521 60.2605 24.9441C57.5512 25.0113 57.5796 25.8263 55.4027 28.0158L29.8855 53.5071C25.0788 58.2817 3.23675 80.8691 0 82.9585L0 82.9589Z" fill="#8CA585"/>
<path fill-rule="evenodd" clip-rule="evenodd" d="M0.000349579 108.905V119.747C2.8655 118.248 59.913 60.3007 68.7336 51.5743C71.5033 48.8349 76.8673 44.1012 78.5984 41.3517L76.3149 41.9887C75.4606 40.2539 74.2999 38.7351 72.0654 37.8511L59.0551 50.6298C57.122 52.5667 55.8565 53.55 54.1991 55.1903C47.9116 61.4114 42.2316 66.9171 36.3923 73.1217L9.35544 100.037C8.00397 101.312 6.67277 102.76 4.99514 104.424C3.32345 106.084 2.04923 108.108 0 108.905H0.000349579Z" fill="#8C9B83"/>
</svg>
