<svg width="44" height="44" viewBox="0 0 44 44" fill="none" xmlns="http://www.w3.org/2000/svg">
<rect x="1" y="1" width="42" height="42" rx="21" stroke="white" stroke-width="2"/>
<path d="M14.2929 14.2929C14.6834 13.9024 15.3166 13.9024 15.7071 14.2929L29.1421 27.7279C29.5327 28.1184 29.5327 28.7516 29.1421 29.1421C28.7516 29.5327 28.1184 29.5327 27.7279 29.1421L14.2929 15.7071C13.9024 15.3166 13.9024 14.6834 14.2929 14.2929Z" fill="white"/>
<path d="M29.1423 14.2932C29.5328 14.6838 29.5328 15.3169 29.1423 15.7074L15.7072 29.1425C15.3167 29.533 14.6835 29.533 14.293 29.1425C13.9025 28.7519 13.9025 28.1188 14.293 27.7283L27.728 14.2932C28.1186 13.9027 28.7517 13.9027 29.1423 14.2932Z" fill="white"/>
</svg>
