<svg width="44" height="44" viewBox="0 0 44 44" fill="none" xmlns="http://www.w3.org/2000/svg">
<path d="M29.6134 30.8328L28.555 28.3424L28.3202 27.7902L28.6971 27.3232C29.9548 25.765 30.6391 23.8219 30.6351 21.8196L30.6351 21.8176C30.6351 16.9561 26.679 13 21.8176 13C16.9561 13 13 16.9561 13 21.8176C13 26.6791 16.956 30.6351 21.8174 30.6353L29.6134 30.8328ZM29.6134 30.8328L25.2753 30.0796L25.0156 30.0345L24.7674 30.1233C23.8207 30.4619 22.8228 30.635 21.8176 30.6353L29.6134 30.8328ZM30.4867 31.5341L30.4898 31.9999L30.4796 31.5371L30.4867 31.5341ZM30.4867 31.5308L30.4795 31.5338L30.4794 31.5259L30.4867 31.5308ZM30.4867 31.5305L30.4794 31.5257L30.4678 31.0021C30.4734 31.0019 30.4786 31.0018 30.4832 31.0018L30.4867 31.5305Z" stroke="white" stroke-width="2"/>
<rect x="1" y="1" width="42" height="42" rx="21" stroke="white" stroke-width="2"/>
<circle cx="18" cy="22" r="1" fill="white"/>
<circle cx="22" cy="22" r="1" fill="white"/>
<circle cx="26" cy="22" r="1" fill="white"/>
</svg>
