<svg width="44" height="44" viewBox="0 0 44 44" fill="none" xmlns="http://www.w3.org/2000/svg">
<path d="M29.6134 30.8323L28.555 28.3419L28.3202 27.7897L28.6971 27.3227C29.9548 25.7645 30.6391 23.8214 30.6351 21.8191L30.6351 21.8171C30.6351 16.9556 26.679 12.9995 21.8176 12.9995C16.9561 12.9995 13 16.9556 13 21.8171C13 26.6786 16.956 30.6346 21.8174 30.6348L29.6134 30.8323ZM29.6134 30.8323L25.2753 30.0791L25.0156 30.034L24.7674 30.1228C23.8207 30.4614 22.8228 30.6345 21.8176 30.6348L29.6134 30.8323ZM30.4867 31.5336L30.4898 31.9994L30.4796 31.5366L30.4867 31.5336ZM30.4867 31.5303L30.4795 31.5333L30.4794 31.5255L30.4867 31.5303ZM30.4867 31.53L30.4794 31.5252L30.4678 31.0016C30.4734 31.0014 30.4786 31.0013 30.4832 31.0013L30.4867 31.53Z" stroke="white" stroke-width="2"/>
<rect x="1" y="1" width="42" height="42" rx="21" stroke="white" stroke-width="2"/>
<circle cx="17.9998" cy="22" r="1" fill="white"/>
<circle cx="22" cy="22" r="1" fill="white"/>
<circle cx="26" cy="22" r="1" fill="white"/>
</svg>
