<svg width="32" height="32" viewBox="0 0 32 32" fill="none" xmlns="http://www.w3.org/2000/svg">
<rect x="1" y="1" width="30" height="30" rx="15" stroke="white" stroke-width="2"/>
<path d="M10.3949 10.3947C10.6789 10.1106 11.1394 10.1106 11.4234 10.3947L21.1943 20.1656C21.4784 20.4496 21.4784 20.9101 21.1943 21.1941C20.9103 21.4781 20.4498 21.4781 20.1658 21.1941L10.3949 11.4232C10.1109 11.1392 10.1109 10.6787 10.3949 10.3947Z" fill="white"/>
<path d="M21.1944 10.3949C21.4785 10.6789 21.4785 11.1394 21.1944 11.4234L11.4235 21.1943C11.1395 21.4784 10.679 21.4784 10.395 21.1943C10.111 20.9103 10.111 20.4498 10.395 20.1658L20.1659 10.3949C20.4499 10.1109 20.9104 10.1109 21.1944 10.3949Z" fill="white"/>
</svg>
