<svg width="32" height="32" viewBox="0 0 32 32" fill="none" xmlns="http://www.w3.org/2000/svg">
<path d="M21.0901 22.0692L20.5163 20.7191L20.2815 20.1669L20.6584 19.6999C21.5339 18.6153 22.0101 17.2628 22.0074 15.8691L22.0074 15.8671C22.0074 12.4821 19.2523 9.72705 15.8674 9.72705C12.4824 9.72705 9.72729 12.4821 9.72729 15.8671C9.72729 19.2521 12.4822 22.0071 15.8671 22.0072L21.0901 22.0692ZM21.0901 22.0692L18.4287 21.6071L18.169 21.5621L17.9208 21.6508C17.2618 21.8866 16.5672 22.007 15.8674 22.0072L21.0901 22.0692ZM22.1744 23.2724L22.167 22.9358L22.1722 22.9336L22.1744 23.2724ZM22.1722 22.9313L22.167 22.9334L22.1668 22.9277L22.1722 22.9313ZM22.1722 22.9311L22.1668 22.9275L22.1525 22.2741C22.1581 22.2739 22.1632 22.2738 22.1679 22.2738L22.1722 22.9311Z" stroke="white" stroke-width="2"/>
<rect x="1" y="1" width="30" height="30" rx="15" stroke="white" stroke-width="2"/>
<circle cx="13.0908" cy="16.0002" r="0.727273" fill="white"/>
<circle cx="16" cy="16.0002" r="0.727273" fill="white"/>
<circle cx="18.9092" cy="16.0002" r="0.727273" fill="white"/>
</svg>
