<svg width="509" height="811" viewBox="0 0 509 811" fill="none" xmlns="http://www.w3.org/2000/svg">
<g opacity="0.7">
<path opacity="0.2" d="M123.632 3.01007H122.629V405.404H123.632V3.01007Z" fill="white"/>
<path opacity="0.2" d="M143.753 3.01007H142.749V405.404H143.753V3.01007Z" fill="white"/>
<path opacity="0.2" d="M163.871 3.01007H162.868V405.404H163.871V3.01007Z" fill="white"/>
<path opacity="0.2" d="M183.991 3.01007H182.987V405.404H183.991V3.01007Z" fill="white"/>
<path opacity="0.5" d="M204.11 3.01007H203.107V405.404H204.11V3.01007Z" fill="white"/>
<path opacity="0.2" d="M224.231 3.01007H223.227V405.404H224.231V3.01007Z" fill="white"/>
<path opacity="0.2" d="M244.351 3.01007H243.347V405.404H244.351V3.01007Z" fill="white"/>
<path opacity="0.2" d="M264.47 3.01007H263.466V405.404H264.47V3.01007Z" fill="white"/>
<path opacity="0.2" d="M284.59 3.01007H283.587V405.404H284.59V3.01007Z" fill="white"/>
<path opacity="0.5" d="M304.71 3.01007H303.707V405.404H304.71V3.01007Z" fill="white"/>
<path opacity="0.2" d="M324.829 3.01007H323.826V405.404H324.829V3.01007Z" fill="white"/>
<path opacity="0.2" d="M344.949 3.01007H343.946V405.404H344.949V3.01007Z" fill="white"/>
<path opacity="0.2" d="M365.068 3.01007H364.065V405.404H365.068V3.01007Z" fill="white"/>
<path opacity="0.2" d="M385.188 3.01007H384.185V405.404H385.188V3.01007Z" fill="white"/>
<path opacity="0.5" d="M405.308 3.01007H404.305V405.404H405.308V3.01007Z" fill="white"/>
<path opacity="0.2" d="M425.428 3.01007H424.425V405.404H425.428V3.01007Z" fill="white"/>
<path opacity="0.2" d="M445.548 3.01007H444.544V405.404H445.548V3.01007Z" fill="white"/>
<path opacity="0.2" d="M465.668 3.01007H464.664V405.404H465.668V3.01007Z" fill="white"/>
<path opacity="0.2" d="M485.787 3.01007H484.783V405.404H485.787V3.01007Z" fill="white"/>
<path opacity="0.5" d="M505.406 3.51221H504.402V404.903H505.406V3.51221Z" fill="white"/>
<path opacity="0.5" d="M504.903 3.01007H103.512V4.01355H504.903V3.01007Z" fill="white"/>
<path opacity="0.2" d="M505.405 22.6274H103.011V23.6309H505.405V22.6274Z" fill="white"/>
<path opacity="0.2" d="M505.405 42.748H103.011V43.7515H505.405V42.748Z" fill="white"/>
<path opacity="0.2" d="M505.405 62.8675H103.011V63.871H505.405V62.8675Z" fill="white"/>
<path opacity="0.2" d="M505.405 82.9869H103.011V83.9904H505.405V82.9869Z" fill="white"/>
<path opacity="0.5" d="M505.405 103.108H103.011V104.111H505.405V103.108Z" fill="white"/>
<path opacity="0.2" d="M505.405 123.227H103.011V124.23H505.405V123.227Z" fill="white"/>
<path opacity="0.2" d="M505.405 143.346H103.011V144.35H505.405V143.346Z" fill="white"/>
<path opacity="0.2" d="M505.405 163.467H103.011V164.471H505.405V163.467Z" fill="white"/>
<path opacity="0.2" d="M505.405 183.587H103.011V184.59H505.405V183.587Z" fill="white"/>
<path opacity="0.5" d="M505.405 203.706H103.011V204.709H505.405V203.706Z" fill="white"/>
<path opacity="0.2" d="M505.405 223.827H103.011V224.83H505.405V223.827Z" fill="white"/>
<path opacity="0.2" d="M505.405 243.945H103.011V244.948H505.405V243.945Z" fill="white"/>
<path opacity="0.2" d="M505.405 264.065H103.011V265.069H505.405V264.065Z" fill="white"/>
<path opacity="0.2" d="M505.405 284.186H103.011V285.19H505.405V284.186Z" fill="white"/>
<path opacity="0.5" d="M505.405 304.304H103.011V305.308H505.405V304.304Z" fill="white"/>
<path opacity="0.2" d="M505.405 324.424H103.011V325.427H505.405V324.424Z" fill="white"/>
<path opacity="0.2" d="M505.405 344.543H103.011V345.547H505.405V344.543Z" fill="white"/>
<path opacity="0.2" d="M505.405 364.664H103.011V365.667H505.405V364.664Z" fill="white"/>
<path opacity="0.2" d="M505.405 384.783H103.011V385.787H505.405V384.783Z" fill="white"/>
<path opacity="0.5" d="M504.903 404.4H103.512V405.404H504.903V404.4Z" fill="white"/>
<path d="M107.024 3.01007H100V4.01355H107.024V3.01007Z" fill="white"/>
<path d="M505.406 0H504.402V7.02434H505.406V0Z" fill="white"/>
<path d="M508.415 3.01007H501.391V4.01355H508.415V3.01007Z" fill="white"/>
<path d="M104.014 100.348H103.011V107.372H104.014V100.348Z" fill="white"/>
<path d="M107.024 103.358H100V104.361H107.024V103.358Z" fill="white"/>
<path d="M505.406 100.348H504.402V107.372H505.406V100.348Z" fill="white"/>
<path d="M508.415 103.358H501.391V104.361H508.415V103.358Z" fill="white"/>
<path d="M104.014 200.695H103.011V207.719H104.014V200.695Z" fill="white"/>
<path d="M107.024 203.706H100V204.709H107.024V203.706Z" fill="white"/>
<path d="M505.406 200.695H504.402V207.719H505.406V200.695Z" fill="white"/>
<path d="M508.415 203.706H501.391V204.709H508.415V203.706Z" fill="white"/>
<path d="M104.014 301.043H103.011V308.067H104.014V301.043Z" fill="white"/>
<path d="M107.024 304.053H100V305.056H107.024V304.053Z" fill="white"/>
<path d="M505.406 301.043H504.402V308.067H505.406V301.043Z" fill="white"/>
<path d="M508.415 304.053H501.391V305.056H508.415V304.053Z" fill="white"/>
<path d="M104.014 401.39H103.011V408.415H104.014V401.39Z" fill="white"/>
<path d="M107.024 404.4H100V405.404H107.024V404.4Z" fill="white"/>
<path d="M204.361 0H203.358V7.02434H204.361V0Z" fill="white"/>
<path d="M207.372 3.01007H200.348V4.01355H207.372V3.01007Z" fill="white"/>
<path d="M204.361 100.348H203.358V107.372H204.361V100.348Z" fill="white"/>
<path d="M207.372 103.358H200.348V104.361H207.372V103.358Z" fill="white"/>
<path d="M204.361 200.695H203.358V207.719H204.361V200.695Z" fill="white"/>
<path d="M207.372 203.706H200.348V204.709H207.372V203.706Z" fill="white"/>
<path d="M204.361 301.043H203.358V308.067H204.361V301.043Z" fill="white"/>
<path d="M207.372 304.053H200.348V305.056H207.372V304.053Z" fill="white"/>
<path d="M204.361 401.39H203.358V408.415H204.361V401.39Z" fill="white"/>
<path d="M207.372 404.4H200.348V405.404H207.372V404.4Z" fill="white"/>
<path d="M304.71 0H303.707V7.02434H304.71V0Z" fill="white"/>
<path d="M307.721 3.01007H300.696V4.01355H307.721V3.01007Z" fill="white"/>
<path d="M304.71 100.348H303.707V107.372H304.71V100.348Z" fill="white"/>
<path d="M307.721 103.358H300.696V104.361H307.721V103.358Z" fill="white"/>
<path d="M304.71 200.695H303.707V207.719H304.71V200.695Z" fill="white"/>
<path d="M307.721 203.706H300.696V204.709H307.721V203.706Z" fill="white"/>
<path d="M304.71 301.043H303.707V308.067H304.71V301.043Z" fill="white"/>
<path d="M307.721 304.053H300.696V305.056H307.721V304.053Z" fill="white"/>
<path d="M304.71 401.39H303.707V408.415H304.71V401.39Z" fill="white"/>
<path d="M307.721 404.4H300.696V405.404H307.721V404.4Z" fill="white"/>
<path d="M405.058 0H404.054V7.02434H405.058V0Z" fill="white"/>
<path d="M408.068 3.01007H401.044V4.01355H408.068V3.01007Z" fill="white"/>
<path d="M405.058 100.348H404.054V107.372H405.058V100.348Z" fill="white"/>
<path d="M408.068 103.358H401.044V104.361H408.068V103.358Z" fill="white"/>
<path d="M405.058 200.695H404.054V207.719H405.058V200.695Z" fill="white"/>
<path d="M408.068 203.706H401.044V204.709H408.068V203.706Z" fill="white"/>
<path d="M405.058 301.043H404.054V308.067H405.058V301.043Z" fill="white"/>
<path d="M408.068 304.053H401.044V305.056H408.068V304.053Z" fill="white"/>
<path d="M405.058 401.39H404.054V408.415H405.058V401.39Z" fill="white"/>
<path d="M408.068 404.4H401.044V405.404H408.068V404.4Z" fill="white"/>
<path d="M505.406 401.39H504.402V408.415H505.406V401.39Z" fill="white"/>
<path d="M508.415 404.4H501.391V405.404H508.415V404.4Z" fill="white"/>
<path d="M154.188 53.1834H153.184V54.1869H154.188V53.1834Z" fill="white"/>
<path d="M254.536 53.1834H253.532V54.1869H254.536V53.1834Z" fill="white"/>
<path d="M354.884 53.1834H353.88V54.1869H354.884V53.1834Z" fill="white"/>
<path d="M455.232 53.1834H454.228V54.1869H455.232V53.1834Z" fill="white"/>
<path d="M154.188 153.533H153.184V154.536H154.188V153.533Z" fill="white"/>
<path d="M254.536 153.533H253.532V154.536H254.536V153.533Z" fill="white"/>
<path d="M354.884 153.533H353.88V154.536H354.884V153.533Z" fill="white"/>
<path d="M455.232 153.533H454.228V154.536H455.232V153.533Z" fill="white"/>
<path d="M154.188 253.88H153.184V254.884H154.188V253.88Z" fill="white"/>
<path d="M254.536 253.88H253.532V254.884H254.536V253.88Z" fill="white"/>
<path d="M354.884 253.88H353.88V254.884H354.884V253.88Z" fill="white"/>
<path d="M455.232 253.88H454.228V254.884H455.232V253.88Z" fill="white"/>
<path d="M154.188 354.227H153.184V355.231H154.188V354.227Z" fill="white"/>
<path d="M254.536 354.227H253.532V355.231H254.536V354.227Z" fill="white"/>
<path d="M354.884 354.227H353.88V355.231H354.884V354.227Z" fill="white"/>
<path d="M455.232 354.227H454.228V355.231H455.232V354.227Z" fill="white"/>
</g>
<g opacity="0.7">
<path opacity="0.5" d="M4.30816 3.01007H3.30469V405.404H4.30816V3.01007Z" fill="white"/>
<path opacity="0.2" d="M24.4283 3.01007H23.4248V405.404H24.4283V3.01007Z" fill="white"/>
<path opacity="0.2" d="M44.5484 3.01007H43.5449V405.404H44.5484V3.01007Z" fill="white"/>
<path opacity="0.2" d="M64.6675 3.01007H63.6641V405.404H64.6675V3.01007Z" fill="white"/>
<path opacity="0.2" d="M84.7872 3.01007H83.7837V405.404H84.7872V3.01007Z" fill="white"/>
<path opacity="0.5" d="M104.406 3.51221H103.402V404.903H104.406V3.51221Z" fill="white"/>
<path opacity="0.5" d="M104 3H4V4H104V3Z" fill="white"/>
<path opacity="0.2" d="M104 23H4V24H104V23Z" fill="white"/>
<path opacity="0.2" d="M104 43H4V44H104V43Z" fill="white"/>
<path opacity="0.2" d="M104 63H4V64H104V63Z" fill="white"/>
<path opacity="0.2" d="M104 83H4V84H104V83Z" fill="white"/>
<path opacity="0.5" d="M104 103H4V104H104V103Z" fill="white"/>
<path opacity="0.2" d="M104 123H4V124H104V123Z" fill="white"/>
<path opacity="0.2" d="M104 143H4V144H104V143Z" fill="white"/>
<path opacity="0.2" d="M104 163H4V164H104V163Z" fill="white"/>
<path opacity="0.2" d="M104 184H4V185H104V184Z" fill="white"/>
<path opacity="0.5" d="M104 204H4V205H104V204Z" fill="white"/>
<path opacity="0.2" d="M104 224H4V225H104V224Z" fill="white"/>
<path opacity="0.2" d="M104 244H4V245H104V244Z" fill="white"/>
<path opacity="0.2" d="M104 264H4V265H104V264Z" fill="white"/>
<path opacity="0.2" d="M104 284H4V285H104V284Z" fill="white"/>
<path opacity="0.5" d="M104 304H4V305H104V304Z" fill="white"/>
<path opacity="0.2" d="M104 324H4V325H104V324Z" fill="white"/>
<path opacity="0.2" d="M104 345H4V346H104V345Z" fill="white"/>
<path opacity="0.2" d="M104 365H4V366H104V365Z" fill="white"/>
<path opacity="0.2" d="M104 385H4V386H104V385Z" fill="white"/>
<path opacity="0.5" d="M104 404H4V405H104V404Z" fill="white"/>
<path d="M104.406 0H103.402V7.02434H104.406V0Z" fill="white"/>
<path d="M104.406 200.695H103.402V207.719H104.406V200.695Z" fill="white"/>
<path d="M107.415 203.706H100.391V204.709H107.415V203.706Z" fill="white"/>
<path d="M4.05768 0H3.0542V7.02434H4.05768V0Z" fill="white"/>
<path d="M7.06828 3.01007H0.0439453V4.01355H7.06828V3.01007Z" fill="white"/>
<path d="M4.05768 100.348H3.0542V107.372H4.05768V100.348Z" fill="white"/>
<path d="M7.06828 103.358H0.0439453V104.361H7.06828V103.358Z" fill="white"/>
<path d="M4.05768 200.695H3.0542V207.719H4.05768V200.695Z" fill="white"/>
<path d="M7.06828 203.706H0.0439453V204.709H7.06828V203.706Z" fill="white"/>
<path d="M4.05768 301.043H3.0542V308.067H4.05768V301.043Z" fill="white"/>
<path d="M7.06828 304.053H0.0439453V305.056H7.06828V304.053Z" fill="white"/>
<path d="M4.05768 401.39H3.0542V408.415H4.05768V401.39Z" fill="white"/>
<path d="M7.06828 404.4H0.0439453V405.404H7.06828V404.4Z" fill="white"/>
<path d="M54.2315 53.1834H53.228V54.1869H54.2315V53.1834Z" fill="white"/>
<path d="M54.2315 153.533H53.228V154.536H54.2315V153.533Z" fill="white"/>
<path d="M54.2315 253.88H53.228V254.884H54.2315V253.88Z" fill="white"/>
<path d="M54.2315 354.227H53.228V355.231H54.2315V354.227Z" fill="white"/>
</g>
<g opacity="0.7">
<path opacity="0.2" d="M123.632 405.01H122.628V807.404H123.632V405.01Z" fill="white"/>
<path opacity="0.2" d="M143.753 405.01H142.749V807.404H143.753V405.01Z" fill="white"/>
<path opacity="0.2" d="M163.871 405.01H162.868V807.404H163.871V405.01Z" fill="white"/>
<path opacity="0.2" d="M183.991 405.01H182.987V807.404H183.991V405.01Z" fill="white"/>
<path opacity="0.5" d="M204.11 405.01H203.107V807.404H204.11V405.01Z" fill="white"/>
<path opacity="0.2" d="M224.231 405.01H223.227V807.404H224.231V405.01Z" fill="white"/>
<path opacity="0.2" d="M244.351 405.01H243.347V807.404H244.351V405.01Z" fill="white"/>
<path opacity="0.2" d="M264.47 405.01H263.466V807.404H264.47V405.01Z" fill="white"/>
<path opacity="0.2" d="M284.59 405.01H283.587V807.404H284.59V405.01Z" fill="white"/>
<path opacity="0.5" d="M304.71 405.01H303.707V807.404H304.71V405.01Z" fill="white"/>
<path opacity="0.2" d="M324.829 405.01H323.826V807.404H324.829V405.01Z" fill="white"/>
<path opacity="0.2" d="M344.949 405.01H343.946V807.404H344.949V405.01Z" fill="white"/>
<path opacity="0.2" d="M365.068 405.01H364.065V807.404H365.068V405.01Z" fill="white"/>
<path opacity="0.2" d="M385.188 405.01H384.185V807.404H385.188V405.01Z" fill="white"/>
<path opacity="0.5" d="M405.308 405.01H404.305V807.404H405.308V405.01Z" fill="white"/>
<path opacity="0.2" d="M425.428 405.01H424.425V807.404H425.428V405.01Z" fill="white"/>
<path opacity="0.2" d="M445.548 405.01H444.544V807.404H445.548V405.01Z" fill="white"/>
<path opacity="0.2" d="M465.668 405.01H464.664V807.404H465.668V405.01Z" fill="white"/>
<path opacity="0.2" d="M485.787 405.01H484.783V807.404H485.787V405.01Z" fill="white"/>
<path opacity="0.5" d="M505.405 405.512H504.402V806.903H505.405V405.512Z" fill="white"/>
<path opacity="0.2" d="M505.405 424.627H103.011V425.631H505.405V424.627Z" fill="white"/>
<path opacity="0.2" d="M505.405 444.748H103.011V445.752H505.405V444.748Z" fill="white"/>
<path opacity="0.2" d="M505.405 464.867H103.011V465.871H505.405V464.867Z" fill="white"/>
<path opacity="0.2" d="M505.405 484.987H103.011V485.99H505.405V484.987Z" fill="white"/>
<path opacity="0.5" d="M505.405 505.108H103.011V506.111H505.405V505.108Z" fill="white"/>
<path opacity="0.2" d="M505.405 525.227H103.011V526.23H505.405V525.227Z" fill="white"/>
<path opacity="0.2" d="M505.405 545.346H103.011V546.35H505.405V545.346Z" fill="white"/>
<path opacity="0.2" d="M505.405 565.467H103.011V566.471H505.405V565.467Z" fill="white"/>
<path opacity="0.2" d="M505.405 585.587H103.011V586.59H505.405V585.587Z" fill="white"/>
<path opacity="0.5" d="M505.405 605.706H103.011V606.709H505.405V605.706Z" fill="white"/>
<path opacity="0.2" d="M505.405 625.827H103.011V626.83H505.405V625.827Z" fill="white"/>
<path opacity="0.2" d="M505.405 645.945H103.011V646.948H505.405V645.945Z" fill="white"/>
<path opacity="0.2" d="M505.405 666.065H103.011V667.069H505.405V666.065Z" fill="white"/>
<path opacity="0.2" d="M505.405 686.186H103.011V687.19H505.405V686.186Z" fill="white"/>
<path opacity="0.5" d="M505.405 706.304H103.011V707.308H505.405V706.304Z" fill="white"/>
<path opacity="0.2" d="M505.405 726.424H103.011V727.427H505.405V726.424Z" fill="white"/>
<path opacity="0.2" d="M505.405 746.543H103.011V747.547H505.405V746.543Z" fill="white"/>
<path opacity="0.2" d="M505.405 766.664H103.011V767.667H505.405V766.664Z" fill="white"/>
<path opacity="0.2" d="M505.405 786.783H103.011V787.787H505.405V786.783Z" fill="white"/>
<path opacity="0.5" d="M504.903 806.4H103.512V807.404H504.903V806.4Z" fill="white"/>
<path d="M104.014 502.348H103.011V509.372H104.014V502.348Z" fill="white"/>
<path d="M107.024 505.358H100V506.361H107.024V505.358Z" fill="white"/>
<path d="M505.405 502.348H504.402V509.372H505.405V502.348Z" fill="white"/>
<path d="M508.415 505.358H501.391V506.361H508.415V505.358Z" fill="white"/>
<path d="M104.014 602.695H103.011V609.719H104.014V602.695Z" fill="white"/>
<path d="M107.024 605.706H100V606.709H107.024V605.706Z" fill="white"/>
<path d="M505.405 602.695H504.402V609.719H505.405V602.695Z" fill="white"/>
<path d="M508.415 605.706H501.391V606.709H508.415V605.706Z" fill="white"/>
<path d="M104.014 703.043H103.011V710.067H104.014V703.043Z" fill="white"/>
<path d="M107.024 706.053H100V707.056H107.024V706.053Z" fill="white"/>
<path d="M505.405 703.043H504.402V710.067H505.405V703.043Z" fill="white"/>
<path d="M508.415 706.053H501.391V707.056H508.415V706.053Z" fill="white"/>
<path d="M104.014 803.39H103.011V810.415H104.014V803.39Z" fill="white"/>
<path d="M107.024 806.4H100V807.404H107.024V806.4Z" fill="white"/>
<path d="M204.361 502.348H203.358V509.372H204.361V502.348Z" fill="white"/>
<path d="M207.372 505.358H200.347V506.361H207.372V505.358Z" fill="white"/>
<path d="M204.361 602.695H203.358V609.719H204.361V602.695Z" fill="white"/>
<path d="M207.372 605.706H200.347V606.709H207.372V605.706Z" fill="white"/>
<path d="M204.361 703.043H203.358V710.067H204.361V703.043Z" fill="white"/>
<path d="M207.372 706.053H200.347V707.056H207.372V706.053Z" fill="white"/>
<path d="M204.361 803.39H203.358V810.415H204.361V803.39Z" fill="white"/>
<path d="M207.372 806.4H200.347V807.404H207.372V806.4Z" fill="white"/>
<path d="M304.71 502.348H303.707V509.372H304.71V502.348Z" fill="white"/>
<path d="M307.721 505.358H300.696V506.361H307.721V505.358Z" fill="white"/>
<path d="M304.71 602.695H303.707V609.719H304.71V602.695Z" fill="white"/>
<path d="M307.721 605.706H300.696V606.709H307.721V605.706Z" fill="white"/>
<path d="M304.71 703.043H303.707V710.067H304.71V703.043Z" fill="white"/>
<path d="M307.721 706.053H300.696V707.056H307.721V706.053Z" fill="white"/>
<path d="M304.71 803.39H303.707V810.415H304.71V803.39Z" fill="white"/>
<path d="M307.721 806.4H300.696V807.404H307.721V806.4Z" fill="white"/>
<path d="M405.058 502.348H404.054V509.372H405.058V502.348Z" fill="white"/>
<path d="M408.068 505.358H401.044V506.361H408.068V505.358Z" fill="white"/>
<path d="M405.058 602.695H404.054V609.719H405.058V602.695Z" fill="white"/>
<path d="M408.068 605.706H401.044V606.709H408.068V605.706Z" fill="white"/>
<path d="M405.058 703.043H404.054V710.067H405.058V703.043Z" fill="white"/>
<path d="M408.068 706.053H401.044V707.056H408.068V706.053Z" fill="white"/>
<path d="M405.058 803.39H404.054V810.415H405.058V803.39Z" fill="white"/>
<path d="M408.068 806.4H401.044V807.404H408.068V806.4Z" fill="white"/>
<path d="M505.405 803.39H504.402V810.415H505.405V803.39Z" fill="white"/>
<path d="M508.415 806.4H501.391V807.404H508.415V806.4Z" fill="white"/>
<path d="M154.188 455.183H153.184V456.187H154.188V455.183Z" fill="white"/>
<path d="M254.536 455.183H253.532V456.187H254.536V455.183Z" fill="white"/>
<path d="M354.884 455.183H353.88V456.187H354.884V455.183Z" fill="white"/>
<path d="M455.232 455.183H454.228V456.187H455.232V455.183Z" fill="white"/>
<path d="M154.188 555.533H153.184V556.536H154.188V555.533Z" fill="white"/>
<path d="M254.536 555.533H253.532V556.536H254.536V555.533Z" fill="white"/>
<path d="M354.884 555.533H353.88V556.536H354.884V555.533Z" fill="white"/>
<path d="M455.232 555.533H454.228V556.536H455.232V555.533Z" fill="white"/>
<path d="M154.188 655.88H153.184V656.884H154.188V655.88Z" fill="white"/>
<path d="M254.536 655.88H253.532V656.884H254.536V655.88Z" fill="white"/>
<path d="M354.884 655.88H353.88V656.884H354.884V655.88Z" fill="white"/>
<path d="M455.232 655.88H454.228V656.884H455.232V655.88Z" fill="white"/>
<path d="M154.188 756.227H153.184V757.231H154.188V756.227Z" fill="white"/>
<path d="M254.536 756.227H253.532V757.231H254.536V756.227Z" fill="white"/>
<path d="M354.884 756.227H353.88V757.231H354.884V756.227Z" fill="white"/>
<path d="M455.232 756.227H454.228V757.231H455.232V756.227Z" fill="white"/>
</g>
<g opacity="0.7">
<path opacity="0.5" d="M4.30816 405.01H3.30469V807.404H4.30816V405.01Z" fill="white"/>
<path opacity="0.2" d="M24.4283 405.01H23.4248V807.404H24.4283V405.01Z" fill="white"/>
<path opacity="0.2" d="M44.5484 405.01H43.5449V807.404H44.5484V405.01Z" fill="white"/>
<path opacity="0.2" d="M64.6675 405.01H63.6641V807.404H64.6675V405.01Z" fill="white"/>
<path opacity="0.2" d="M84.7872 405.01H83.7837V807.404H84.7872V405.01Z" fill="white"/>
<path opacity="0.5" d="M104.406 405.512H103.402V806.903H104.406V405.512Z" fill="white"/>
<path opacity="0.2" d="M104 425H4V426H104V425Z" fill="white"/>
<path opacity="0.2" d="M104 445H4V446H104V445Z" fill="white"/>
<path opacity="0.2" d="M104 465H4V466H104V465Z" fill="white"/>
<path opacity="0.2" d="M104 485H4V486H104V485Z" fill="white"/>
<path opacity="0.5" d="M104 505H4V506H104V505Z" fill="white"/>
<path opacity="0.2" d="M104 525H4V526H104V525Z" fill="white"/>
<path opacity="0.2" d="M104 545H4V546H104V545Z" fill="white"/>
<path opacity="0.2" d="M104 565H4V566H104V565Z" fill="white"/>
<path opacity="0.2" d="M104 586H4V587H104V586Z" fill="white"/>
<path opacity="0.5" d="M104 606H4V607H104V606Z" fill="white"/>
<path opacity="0.2" d="M104 626H4V627H104V626Z" fill="white"/>
<path opacity="0.2" d="M104 646H4V647H104V646Z" fill="white"/>
<path opacity="0.2" d="M104 666H4V667H104V666Z" fill="white"/>
<path opacity="0.2" d="M104 686H4V687H104V686Z" fill="white"/>
<path opacity="0.5" d="M104 706H4V707H104V706Z" fill="white"/>
<path opacity="0.2" d="M104 726H4V727H104V726Z" fill="white"/>
<path opacity="0.2" d="M104 747H4V748H104V747Z" fill="white"/>
<path opacity="0.2" d="M104 767H4V768H104V767Z" fill="white"/>
<path opacity="0.2" d="M104 787H4V788H104V787Z" fill="white"/>
<path opacity="0.5" d="M104 806H4V807H104V806Z" fill="white"/>
<path d="M104.406 602.695H103.402V609.719H104.406V602.695Z" fill="white"/>
<path d="M107.415 605.706H100.391V606.709H107.415V605.706Z" fill="white"/>
<path d="M4.05768 502.348H3.0542V509.372H4.05768V502.348Z" fill="white"/>
<path d="M7.06828 505.358H0.0439453V506.361H7.06828V505.358Z" fill="white"/>
<path d="M4.05768 602.695H3.0542V609.719H4.05768V602.695Z" fill="white"/>
<path d="M7.06828 605.706H0.0439453V606.709H7.06828V605.706Z" fill="white"/>
<path d="M4.05768 703.043H3.0542V710.067H4.05768V703.043Z" fill="white"/>
<path d="M7.06828 706.053H0.0439453V707.056H7.06828V706.053Z" fill="white"/>
<path d="M4.05768 803.39H3.0542V810.415H4.05768V803.39Z" fill="white"/>
<path d="M7.06828 806.4H0.0439453V807.404H7.06828V806.4Z" fill="white"/>
<path d="M54.2315 455.183H53.228V456.187H54.2315V455.183Z" fill="white"/>
<path d="M54.2315 555.533H53.228V556.536H54.2315V555.533Z" fill="white"/>
<path d="M54.2315 655.88H53.228V656.884H54.2315V655.88Z" fill="white"/>
<path d="M54.2315 756.227H53.228V757.231H54.2315V756.227Z" fill="white"/>
</g>
</svg>
