<svg width="406" height="406" viewBox="0 0 406 406" fill="none" xmlns="http://www.w3.org/2000/svg">
<path opacity="0.2" d="M23.4781 2.99023H22.4812V402.764H23.4781V2.99023Z" fill="white"/>
<path opacity="0.2" d="M43.4672 2.99023H42.4702V402.764H43.4672V2.99023Z" fill="white"/>
<path opacity="0.2" d="M63.4549 2.99023H62.458V402.764H63.4549V2.99023Z" fill="white"/>
<path opacity="0.2" d="M83.444 2.99023H82.447V402.764H83.444V2.99023Z" fill="white"/>
<path opacity="0.5" d="M103.432 2.99023H102.436V402.764H103.432V2.99023Z" fill="white"/>
<path opacity="0.2" d="M123.421 2.99023H122.424V402.764H123.421V2.99023Z" fill="white"/>
<path opacity="0.2" d="M143.411 2.99023H142.414V402.764H143.411V2.99023Z" fill="white"/>
<path opacity="0.2" d="M163.399 2.99023H162.402V402.764H163.399V2.99023Z" fill="white"/>
<path opacity="0.2" d="M183.388 2.99023H182.391V402.764H183.388V2.99023Z" fill="white"/>
<path opacity="0.5" d="M203.376 2.99023H202.379V402.764H203.376V2.99023Z" fill="white"/>
<path opacity="0.2" d="M223.365 2.99023H222.368V402.764H223.365V2.99023Z" fill="white"/>
<path opacity="0.2" d="M243.353 2.99023H242.356V402.764H243.353V2.99023Z" fill="white"/>
<path opacity="0.2" d="M263.342 2.99023H262.345V402.764H263.342V2.99023Z" fill="white"/>
<path opacity="0.2" d="M283.331 2.99023H282.334V402.764H283.331V2.99023Z" fill="white"/>
<path opacity="0.5" d="M303.319 2.99023H302.322V402.764H303.319V2.99023Z" fill="white"/>
<path opacity="0.2" d="M323.308 2.99023H322.311V402.764H323.308V2.99023Z" fill="white"/>
<path opacity="0.2" d="M343.297 2.99023H342.3V402.764H343.297V2.99023Z" fill="white"/>
<path opacity="0.2" d="M363.285 2.99023H362.288V402.764H363.285V2.99023Z" fill="white"/>
<path opacity="0.2" d="M383.274 2.99023H382.277V402.764H383.274V2.99023Z" fill="white"/>
<path opacity="0.5" d="M402.764 3.48926H401.767V402.266H402.764V3.48926Z" fill="white"/>
<path opacity="0.5" d="M402.265 2.99023H3.48853V3.98718H402.265V2.99023Z" fill="white"/>
<path opacity="0.2" d="M402.764 22.4797H2.99097V23.4767H402.764V22.4797Z" fill="white"/>
<path opacity="0.2" d="M402.764 42.4695H2.99097V43.4664H402.764V42.4695Z" fill="white"/>
<path opacity="0.2" d="M402.764 62.458H2.99097V63.4549H402.764V62.458Z" fill="white"/>
<path opacity="0.2" d="M402.764 82.4463H2.99097V83.4432H402.764V82.4463Z" fill="white"/>
<path opacity="0.5" d="M402.764 102.436H2.99097V103.433H402.764V102.436Z" fill="white"/>
<path opacity="0.2" d="M402.764 122.424H2.99097V123.421H402.764V122.424Z" fill="white"/>
<path opacity="0.2" d="M402.764 142.413H2.99097V143.41H402.764V142.413Z" fill="white"/>
<path opacity="0.2" d="M402.764 162.403H2.99097V163.4H402.764V162.403Z" fill="white"/>
<path opacity="0.2" d="M402.764 182.391H2.99097V183.388H402.764V182.391Z" fill="white"/>
<path opacity="0.5" d="M402.764 202.379H2.99097V203.376H402.764V202.379Z" fill="white"/>
<path opacity="0.2" d="M402.764 222.369H2.99097V223.366H402.764V222.369Z" fill="white"/>
<path opacity="0.2" d="M402.764 242.356H2.99097V243.353H402.764V242.356Z" fill="white"/>
<path opacity="0.2" d="M402.764 262.345H2.99097V263.342H402.764V262.345Z" fill="white"/>
<path opacity="0.2" d="M402.764 282.335H2.99097V283.332H402.764V282.335Z" fill="white"/>
<path opacity="0.5" d="M402.764 302.322H2.99097V303.319H402.764V302.322Z" fill="white"/>
<path opacity="0.2" d="M402.764 322.311H2.99097V323.307H402.764V322.311Z" fill="white"/>
<path opacity="0.2" d="M402.764 342.299H2.99097V343.296H402.764V342.299Z" fill="white"/>
<path opacity="0.2" d="M402.764 362.289H2.99097V363.286H402.764V362.289Z" fill="white"/>
<path opacity="0.2" d="M402.764 382.277H2.99097V383.274H402.764V382.277Z" fill="white"/>
<path opacity="0.5" d="M402.265 401.767H3.48853V402.764H402.265V401.767Z" fill="white"/>
<path d="M3.98791 0H2.99097V6.97859H3.98791V0Z" fill="white"/>
<path d="M6.97859 2.99023H0V3.98718H6.97859V2.99023Z" fill="white"/>
<path d="M402.764 0H401.767V6.97859H402.764V0Z" fill="white"/>
<path d="M405.755 2.99023H398.777V3.98718H405.755V2.99023Z" fill="white"/>
<path d="M3.98791 99.6943H2.99097V106.673H3.98791V99.6943Z" fill="white"/>
<path d="M6.97859 102.685H0V103.682H6.97859V102.685Z" fill="white"/>
<path d="M402.764 99.6943H401.767V106.673H402.764V99.6943Z" fill="white"/>
<path d="M405.755 102.685H398.777V103.682H405.755V102.685Z" fill="white"/>
<path d="M402.764 199.387H401.767V206.366H402.764V199.387Z" fill="white"/>
<path d="M405.755 202.379H398.777V203.376H405.755V202.379Z" fill="white"/>
<path d="M3.98791 299.082H2.99097V306.06H3.98791V299.082Z" fill="white"/>
<path d="M6.97859 302.072H0V303.069H6.97859V302.072Z" fill="white"/>
<path d="M402.764 299.082H401.767V306.06H402.764V299.082Z" fill="white"/>
<path d="M405.755 302.072H398.777V303.069H405.755V302.072Z" fill="white"/>
<path d="M3.98791 398.777H2.99097V405.756H3.98791V398.777Z" fill="white"/>
<path d="M6.97859 401.767H0V402.764H6.97859V401.767Z" fill="white"/>
<path d="M103.682 0H102.685V6.97859H103.682V0Z" fill="white"/>
<path d="M106.672 2.99023H99.6938V3.98718H106.672V2.99023Z" fill="white"/>
<path d="M103.682 99.6943H102.685V106.673H103.682V99.6943Z" fill="white"/>
<path d="M106.672 102.685H99.6938V103.682H106.672V102.685Z" fill="white"/>
<path d="M103.682 199.387H102.685V206.366H103.682V199.387Z" fill="white"/>
<path d="M106.672 202.379H99.6938V203.376H106.672V202.379Z" fill="white"/>
<path d="M103.682 299.082H102.685V306.06H103.682V299.082Z" fill="white"/>
<path d="M106.672 302.072H99.6938V303.069H106.672V302.072Z" fill="white"/>
<path d="M103.682 398.777H102.685V405.756H103.682V398.777Z" fill="white"/>
<path d="M106.672 401.767H99.6938V402.764H106.672V401.767Z" fill="white"/>
<path d="M203.376 0H202.379V6.97859H203.376V0Z" fill="white"/>
<path d="M206.368 2.99023H199.389V3.98718H206.368V2.99023Z" fill="white"/>
<path d="M203.376 99.6943H202.379V106.673H203.376V99.6943Z" fill="white"/>
<path d="M206.368 102.685H199.389V103.682H206.368V102.685Z" fill="white"/>
<path d="M203.376 199.387H202.379V206.366H203.376V199.387Z" fill="white"/>
<path d="M206.368 202.379H199.389V203.376H206.368V202.379Z" fill="white"/>
<path d="M203.376 299.082H202.379V306.06H203.376V299.082Z" fill="white"/>
<path d="M206.368 302.072H199.389V303.069H206.368V302.072Z" fill="white"/>
<path d="M203.376 398.777H202.379V405.756H203.376V398.777Z" fill="white"/>
<path d="M206.368 401.767H199.389V402.764H206.368V401.767Z" fill="white"/>
<path d="M303.07 0H302.073V6.97859H303.07V0Z" fill="white"/>
<path d="M306.061 2.99023H299.082V3.98718H306.061V2.99023Z" fill="white"/>
<path d="M303.07 99.6943H302.073V106.673H303.07V99.6943Z" fill="white"/>
<path d="M306.061 102.685H299.082V103.682H306.061V102.685Z" fill="white"/>
<path d="M303.07 199.387H302.073V206.366H303.07V199.387Z" fill="white"/>
<path d="M306.061 202.379H299.082V203.376H306.061V202.379Z" fill="white"/>
<path d="M303.07 299.082H302.073V306.06H303.07V299.082Z" fill="white"/>
<path d="M306.061 302.072H299.082V303.069H306.061V302.072Z" fill="white"/>
<path d="M303.07 398.777H302.073V405.756H303.07V398.777Z" fill="white"/>
<path d="M306.061 401.767H299.082V402.764H306.061V401.767Z" fill="white"/>
<path d="M402.764 398.777H401.767V405.756H402.764V398.777Z" fill="white"/>
<path d="M405.755 401.767H398.777V402.764H405.755V401.767Z" fill="white"/>
<path d="M53.8343 52.8369H52.8374V53.8339H53.8343V52.8369Z" fill="white"/>
<path d="M153.529 52.8369H152.532V53.8339H153.529V52.8369Z" fill="white"/>
<path d="M253.223 52.8369H252.226V53.8339H253.223V52.8369Z" fill="white"/>
<path d="M352.918 52.8369H351.921V53.8339H352.918V52.8369Z" fill="white"/>
<path d="M53.8343 152.533H52.8374V153.53H53.8343V152.533Z" fill="white"/>
<path d="M153.529 152.533H152.532V153.53H153.529V152.533Z" fill="white"/>
<path d="M253.223 152.533H252.226V153.53H253.223V152.533Z" fill="white"/>
<path d="M352.918 152.533H351.921V153.53H352.918V152.533Z" fill="white"/>
<path d="M53.8343 252.227H52.8374V253.224H53.8343V252.227Z" fill="white"/>
<path d="M153.529 252.227H152.532V253.224H153.529V252.227Z" fill="white"/>
<path d="M253.223 252.227H252.226V253.224H253.223V252.227Z" fill="white"/>
<path d="M352.918 252.227H351.921V253.224H352.918V252.227Z" fill="white"/>
<path d="M53.8343 351.92H52.8374V352.917H53.8343V351.92Z" fill="white"/>
<path d="M153.529 351.92H152.532V352.917H153.529V351.92Z" fill="white"/>
<path d="M253.223 351.92H252.226V352.917H253.223V351.92Z" fill="white"/>
<path d="M352.918 351.92H351.921V352.917H352.918V351.92Z" fill="white"/>
</svg>
