<svg width="156" height="156" viewBox="0 0 156 156" fill="none" xmlns="http://www.w3.org/2000/svg">
<g clip-path="url(#clip0)">
<path d="M129.03 150.799C128.464 150.232 127.68 149.906 126.876 149.906C126.075 149.906 125.289 150.232 124.722 150.799C124.156 151.366 123.829 152.152 123.829 152.953C123.829 153.754 124.155 154.541 124.722 155.107C125.289 155.674 126.075 156 126.876 156C127.677 156 128.464 155.674 129.03 155.107C129.6 154.541 129.923 153.754 129.923 152.953C129.923 152.152 129.6 151.366 129.03 150.799Z" fill="white"/>
<path d="M153.873 51.1427C152.034 48.4593 149.257 46.6708 146.054 46.1059C140.868 45.1916 135.797 47.7911 133.395 52.2435V20.0935C133.395 13.5793 128.095 8.27988 121.581 8.27988C119.451 8.27988 117.452 8.84965 115.724 9.84049C114.782 4.26288 109.92 0 104.078 0C98.2365 0 93.3749 4.26288 92.4325 9.84049C90.7046 8.84965 88.7061 8.27988 86.5755 8.27988C80.4515 8.27988 75.402 12.9641 74.8191 18.9375C73.1168 17.9857 71.1577 17.4406 69.0727 17.4406C62.5585 17.4406 57.259 22.7404 57.259 29.2543C57.259 30.9371 58.6234 32.3011 60.3059 32.3011C61.9884 32.3011 63.3528 30.9371 63.3528 29.2543C63.3528 26.1001 65.9189 23.5344 69.0727 23.5344C72.0263 23.5344 74.4641 25.7851 74.7618 28.6616V36.7846C74.7618 38.4674 76.1262 39.8315 77.8087 39.8315C79.4912 39.8315 80.8556 38.4674 80.8556 36.7846V20.0938C80.8556 16.9397 83.4216 14.3739 86.5755 14.3739C89.5291 14.3739 91.9669 16.6247 92.2646 19.5012V43.2056C92.2646 43.3455 92.2957 44.3582 92.2957 44.3582C92.2957 46.041 93.66 47.4051 95.3425 47.4051C97.025 47.4051 98.3894 46.041 98.3894 44.3582V20.0935C98.3894 19.8208 98.3766 19.5509 98.3583 19.2828V11.8136C98.3583 8.65952 100.924 6.09375 104.078 6.09375C107.232 6.09375 109.798 8.65983 109.798 11.8136V19.2828C109.78 19.5509 109.767 19.8208 109.767 20.0935V62.9426C109.767 64.6254 111.131 65.9895 112.814 65.9895C114.496 65.9895 115.861 64.6254 115.861 62.9426L115.892 19.5006C116.19 16.6241 118.627 14.3733 121.581 14.3733C124.735 14.3733 127.301 16.9394 127.301 20.0932V65.1635C127.301 67.392 128.907 69.2037 131.12 69.4709C133.33 69.7393 135.323 68.3612 135.854 66.1964L138.225 56.522C138.965 53.5071 141.935 51.5668 144.995 52.1067C146.573 52.3849 147.94 53.2658 148.846 54.5872C149.752 55.9086 150.08 57.5021 149.77 59.074L145.179 82.3531C143.639 90.1671 139.843 97.2697 134.204 102.893L124.726 112.344C124.153 112.916 123.831 113.692 123.831 114.502V141.68C123.831 143.362 125.195 144.727 126.877 144.727C128.56 144.727 129.924 143.362 129.924 141.68V115.767L138.507 107.209C145.008 100.726 149.382 92.5391 151.159 83.5322L155.749 60.2532C156.378 57.0616 155.712 53.8261 153.873 51.1427Z" fill="white"/>
<path d="M90.3679 94.1484C88.6854 94.1484 87.3211 95.5125 87.3211 97.1953V106.131C87.3211 116.152 83.4131 125.568 76.317 132.644L70.5434 138.401C69.97 138.973 69.6479 139.749 69.6479 140.558V152.953C69.6479 154.636 71.0123 156 72.6948 156C74.3773 156 75.7417 154.636 75.7417 152.953V141.823L80.6197 136.959C88.871 128.732 93.4151 117.783 93.4151 106.131V97.1953C93.4148 95.5125 92.0507 94.1484 90.3679 94.1484Z" fill="white"/>
<path d="M92.5223 84.2248C91.9556 83.658 91.1695 83.332 90.3682 83.332C89.5668 83.332 88.7807 83.658 88.2143 84.2248C87.6476 84.7915 87.3213 85.5776 87.3213 86.3789C87.3213 87.1802 87.6473 87.9663 88.2143 88.533C88.7807 89.0998 89.5668 89.4258 90.3682 89.4258C91.1695 89.4258 91.9556 89.0998 92.5223 88.533C93.089 87.9663 93.415 87.1802 93.415 86.3789C93.415 85.5776 93.0893 84.7915 92.5223 84.2248Z" fill="white"/>
<path d="M82.1052 48.9036C80.2018 48.9036 78.4081 49.3783 76.8329 50.2122C76.1553 44.6191 71.382 40.27 65.6088 40.27C63.6579 40.27 61.8209 40.7666 60.2174 41.6401C59.2155 36.4221 54.6187 32.4663 49.1127 32.4663C43.6067 32.4663 39.0095 36.4221 38.008 41.6401C36.4044 40.7666 34.5672 40.27 32.6163 40.27C26.3802 40.27 21.3068 45.3433 21.3068 51.5797V81.2267C18.8958 77.3166 14.2594 75.0884 9.52088 75.9233C6.45481 76.4638 3.79701 78.1761 2.03683 80.7443C0.276645 83.3125 -0.360763 86.4091 0.241301 89.4636L4.56787 111.404C6.24884 119.927 10.3886 127.674 16.5403 133.809L24.5777 141.823V152.953C24.5777 154.636 25.9421 156 27.6245 156C29.307 156 30.6714 154.636 30.6714 152.953V140.558C30.6714 139.749 30.3491 138.973 29.7759 138.401L20.8434 129.493C15.5528 124.218 11.9922 117.555 10.5468 110.225L6.2202 88.2844C5.93745 86.8497 6.23696 85.3951 7.06357 84.1888C7.8905 82.9826 9.13911 82.1782 10.5791 81.9244C13.37 81.432 16.0842 83.2026 16.7591 85.9548L18.9943 95.0729C19.5156 97.2002 21.4692 98.5552 23.6471 98.2913C25.822 98.0286 27.4003 96.2481 27.4003 94.0577V51.5794C27.4003 48.7034 29.7403 46.3634 32.6163 46.3634C35.3073 46.3634 37.5284 48.4124 37.8027 51.0324V73.3615C37.8027 75.0443 39.1671 76.4083 40.8495 76.4083C40.8544 76.4083 40.8593 76.4077 40.8642 76.4077C40.869 76.4077 40.8739 76.4083 40.8788 76.4083C42.5613 76.4083 43.9257 75.0443 43.9257 73.3615V51.5791C43.9257 51.3201 43.9138 51.0638 43.8964 50.8091V43.7754C43.8964 40.8994 46.2364 38.5594 49.1124 38.5594C51.9883 38.5594 54.3283 40.8991 54.3283 43.7754V50.8091C54.311 51.0638 54.2991 51.3201 54.2991 51.5791V73.3615C54.2991 75.0443 55.6635 76.4083 57.346 76.4083C57.3508 76.4083 57.3557 76.4077 57.3606 76.4077C57.3655 76.4077 57.3703 76.4083 57.3752 76.4083C59.0577 76.4083 60.4221 75.0443 60.4221 73.3615V51.0324C60.6963 48.4124 62.9172 46.3634 65.6085 46.3634C68.4845 46.3634 70.8245 48.7031 70.8245 51.5794L70.7955 73.3618C70.7955 75.0446 72.1599 76.4086 73.8424 76.4086C73.8473 76.4086 73.8521 76.408 73.857 76.408C73.8619 76.408 73.8668 76.4086 73.8716 76.4086C75.5541 76.4086 76.9185 75.0446 76.9185 73.3618V59.6664C77.1927 57.0464 79.4139 54.9973 82.1052 54.9973C84.9812 54.9973 87.3212 57.337 87.3212 60.2133V74.4455C87.3212 76.1283 88.6856 77.4924 90.3681 77.4924C92.0506 77.4924 93.415 76.1283 93.415 74.4455V60.2133C93.415 53.9772 88.3416 48.9036 82.1052 48.9036Z" fill="white"/>
<path d="M45.361 16.9657L29.2954 0.900166C28.1056 -0.289639 26.1769 -0.289639 24.9862 0.900166C23.7964 2.08997 23.7964 4.01925 24.9862 5.20906L41.0521 21.2746C41.6472 21.8697 42.4268 22.167 43.2065 22.167C43.9862 22.167 44.7659 21.8694 45.361 21.2746C46.5508 20.0848 46.5508 18.1555 45.361 16.9657Z" fill="white"/>
<path d="M34.5829 25.1309H27.1479C25.4655 25.1309 24.1011 26.4949 24.1011 28.1777C24.1011 29.8605 25.4655 31.2246 27.1479 31.2246H34.5829C36.2654 31.2246 37.6298 29.8605 37.6298 28.1777C37.6298 26.4949 36.2654 25.1309 34.5829 25.1309Z" fill="white"/>
<path d="M52.1241 0C50.4417 0 49.0773 1.36409 49.0773 3.04688V10.7305C49.0773 12.4133 50.4414 13.7774 52.1241 13.7774C53.8066 13.7774 55.171 12.4133 55.171 10.7305V3.04688C55.171 1.36409 53.8066 0 52.1241 0Z" fill="white"/>
</g>
<defs>
<clipPath id="clip0">
<rect width="156" height="156" fill="white"/>
</clipPath>
</defs>
</svg>
