<svg width="991" height="243" viewBox="0 0 991 243" fill="none" xmlns="http://www.w3.org/2000/svg">
<path d="M479.427 150.483V171.218H398.022V58.0721H479.427V78.8076H420.202V104.337H468.277V125.073H420.202V150.603H479.427V150.483ZM630.128 145.689H582.771L573.18 171.218H549.083L595.36 58.0721H617.539L663.816 171.218H639.719L630.128 145.689V145.689ZM590.564 124.953H622.335L606.39 82.6431L590.444 124.953H590.564ZM780.828 105.416C785.624 106.615 790.419 107.933 795.095 109.252C799.771 110.57 803.967 112.368 807.683 114.645C811.4 116.923 814.397 119.919 816.675 123.635C818.953 127.35 820.152 132.145 820.152 138.018C820.152 144.13 818.833 149.404 816.315 153.719C813.678 158.034 810.201 161.63 805.765 164.387C801.329 167.143 796.054 169.181 790.06 170.379C784.065 171.578 777.591 172.177 770.638 172.177C767.88 172.177 765.003 172.057 761.886 171.938C758.769 171.698 755.532 171.458 752.414 171.099C749.177 170.739 746.06 170.26 742.943 169.78C739.826 169.301 737.069 168.701 734.431 168.102V147.247C736.469 147.846 739.107 148.445 742.104 148.805C745.101 149.284 748.338 149.644 751.695 149.884C755.052 150.243 758.529 150.483 762.006 150.603C765.482 150.843 768.719 150.843 771.836 150.843C781.308 150.843 788.261 150.004 792.577 148.206C796.893 146.528 799.051 143.411 799.051 139.096C799.051 138.018 798.811 136.819 798.332 135.621C797.852 134.422 796.653 133.103 794.855 131.785C793.057 130.467 790.299 129.148 786.583 127.95C782.986 126.631 778.071 125.313 771.836 123.755C768.839 123.035 765.243 122.077 761.166 120.998C756.97 119.919 753.014 118.121 749.177 115.724C745.341 113.327 742.104 110.091 739.347 106.015C736.589 101.94 735.27 96.6665 735.27 90.0743C735.27 84.3211 736.469 79.2871 738.747 75.092C741.145 70.897 744.382 67.4211 748.458 64.7842C752.534 62.0274 757.45 60.1097 763.204 58.7913C768.839 57.4728 775.073 56.8735 781.667 56.8735C784.065 56.8735 786.703 56.9934 789.58 57.1133C792.577 57.353 795.574 57.5927 798.572 57.8324C801.569 58.192 804.566 58.5516 807.443 59.031C810.321 59.5104 813.078 60.1097 815.476 60.8289V81.6842C813.798 81.2048 811.52 80.7254 808.762 80.2459C806.005 79.7665 803.008 79.4069 799.771 79.0473C796.534 78.6878 793.297 78.448 789.82 78.2083C786.463 77.9686 783.226 77.9686 780.349 77.9686C771.117 77.9686 764.763 78.9275 761.526 80.9651C758.169 82.8828 756.491 85.7594 756.491 89.475C756.491 91.5126 756.97 93.3105 757.809 94.7488C758.649 96.1871 760.087 97.3857 762.006 98.5843C763.924 99.663 766.441 100.742 769.559 101.701C772.676 102.659 776.512 103.738 781.068 105.057L780.828 105.416Z" fill="#3D3D3D"/>
<path d="M948.08 131.31V171.462L926.021 171.702V131.909L883.101 57.9565H907.198L937.29 109.136L967.263 57.9565H991.001L948.08 131.31Z" fill="#3D3D3D"/>
<path d="M205.119 2.70002L249.118 28.2299L293.357 53.9994C299.112 57.3554 302.349 63.4682 302.349 69.7009V121.12V172.539C302.349 179.731 298.152 185.844 292.158 188.84L248.998 213.891L204.759 239.66C198.884 243.136 191.811 242.776 186.296 239.54L142.297 214.01L98.0576 188.241C95.8996 187.042 94.1013 185.364 92.6626 183.446L126.351 162.711L160.52 182.607L195.767 203.103L231.015 182.607L266.262 162.112V121.12V80.1285L231.015 59.6328L195.767 39.137L160.52 59.6328L142.297 70.1803L133.904 65.6257L128.27 62.6292L127.67 36.7398L142.297 28.2299L186.536 2.4603C192.41 -1.01559 199.484 -0.656016 204.999 2.58016L205.119 2.70002Z" fill="#3D3D3D"/>
<path d="M133.21 77.859L147.117 85.8895L161.144 94.0399C162.942 95.1186 164.021 97.0363 164.021 98.9541V115.135V131.316C164.021 133.593 162.703 135.511 160.784 136.47L147.117 144.38L133.09 152.531C131.172 153.609 129.014 153.49 127.216 152.531L113.308 144.5L99.2814 136.35C97.4831 135.271 96.4041 133.353 96.4041 131.436V115.255V99.0739C96.4041 96.7966 97.7228 94.8789 99.6411 93.92L113.308 86.0094L127.335 77.859C129.254 76.7803 131.412 76.9001 133.21 77.859Z" fill="#BCDB0F"/>
<path d="M63.431 85.8821L71.5834 90.6764L79.8558 95.4708C80.9348 96.0701 81.5342 97.2686 81.5342 98.3474V107.936V117.525C81.5342 118.843 80.8149 120.042 79.616 120.521L71.5834 125.196L63.3111 129.99C62.2321 130.589 60.9133 130.589 59.8343 129.99L51.6819 125.196L43.4095 120.401C42.3305 119.802 41.7311 118.603 41.7311 117.525V113.45C42.0907 113.45 42.4504 113.33 42.8101 113.09L48.325 109.854L53.72 106.737C54.4393 106.378 55.0388 105.659 55.0388 104.7V98.3474V91.9949C55.0388 91.2757 54.6791 90.4367 53.9598 90.0771L53.3603 89.7176L59.9542 85.8821C61.0332 85.2828 62.352 85.2828 63.431 85.8821V85.8821Z" fill="#F7B81D"/>
<path d="M79.7265 134.183L87.879 138.977L96.1513 143.772C97.2303 144.371 97.8298 145.569 97.8298 146.648V156.237V165.825C97.8298 167.144 97.1104 168.343 95.9115 168.822L87.879 173.496L79.6066 178.291C78.5276 178.89 77.2088 178.89 76.1298 178.291L67.9774 173.496L59.7051 168.702C58.6261 168.103 58.0266 166.904 58.0266 165.825V156.237V146.648C58.0266 145.33 58.7459 144.131 59.9448 143.652L67.9774 138.977L76.2497 134.183C77.3287 133.584 78.6475 133.584 79.7265 134.183V134.183Z" fill="#1FB1DA"/>
<path d="M39.2128 129.259L43.2891 131.656L47.3653 134.054C47.8449 134.413 48.2045 134.893 48.2045 135.492V140.286V145.08C48.2045 145.8 47.8449 146.279 47.2454 146.639L43.2891 148.916L39.2128 151.313C38.6134 151.673 38.014 151.553 37.5344 151.313L33.4582 148.916L29.3819 146.519C28.9024 146.159 28.5427 145.68 28.5427 145.08V140.286V135.492C28.5427 134.773 28.9024 134.293 29.5018 133.934L33.4582 131.656L37.5344 129.259C38.1338 128.9 38.7333 129.019 39.2128 129.259Z" fill="#BCDB0F"/>
<path d="M17.7508 105.308L20.6281 106.986L23.5055 108.664C23.8651 108.903 24.1049 109.263 24.1049 109.742V113.099V116.455C24.1049 116.934 23.8651 117.294 23.3856 117.533L20.5082 119.211L17.6309 120.889C17.2712 121.129 16.7917 121.129 16.432 120.889L13.5547 119.211L10.6773 117.533C10.3177 117.294 10.0779 116.934 10.0779 116.455V113.099V109.742C10.0779 109.263 10.3177 108.903 10.7972 108.664L13.6746 106.986L16.5519 105.308C16.9116 105.068 17.3911 105.068 17.7508 105.308Z" fill="#1FB1DA"/>
<path d="M8.27342 69.3424L11.3905 71.1403L14.5077 72.9381C14.8673 73.1779 15.1071 73.5374 15.1071 74.0169V77.6126V81.2084C15.1071 81.6878 14.8673 82.1672 14.3878 82.2871L11.3905 84.085L8.27342 85.8828C7.91376 86.1226 7.31431 86.1226 6.95465 85.8828L3.83753 84.085L0.720417 82.2871C0.36075 82.0474 0.120972 81.6878 0.120972 81.2084V77.6126V74.0169C0.120972 73.5374 0.36075 73.058 0.840306 72.9381L3.83753 71.1403L6.95465 69.3424C7.31431 69.1027 7.91376 69.1027 8.27342 69.3424V69.3424Z" fill="#F7B81D"/>
<path d="M42.0655 87.0863L46.1417 89.4835L50.218 91.8806C50.6975 92.2402 51.0572 92.7197 51.0572 93.3189V98.1133V102.908C51.0572 103.627 50.6975 104.106 50.0981 104.466L46.1417 106.743L42.0655 109.14C41.4661 109.5 40.8666 109.38 40.3871 109.14L36.3108 106.743L32.2346 104.346C31.7551 103.986 31.3954 103.507 31.3954 102.908V98.1133V93.3189C31.3954 92.5998 31.7551 92.1204 32.3545 91.7608L36.3108 89.4835L40.3871 87.0863C40.9865 86.7267 41.586 86.8466 42.0655 87.0863V87.0863Z" fill="#E10567"/>
<path d="M93.5163 27.1503L104.426 33.5027L115.456 39.8552C116.895 40.6943 117.734 42.2524 117.734 43.8106V56.6354V69.4603C117.734 71.2581 116.655 72.8163 115.216 73.5355L104.426 79.7681L93.3964 86.1206C91.9577 86.9596 90.1594 86.9596 88.8406 86.1206L77.9307 79.7681L66.9009 73.4156C65.4623 72.5766 64.623 71.0184 64.623 69.4603V63.1078L65.4623 63.5872C66.4214 64.1865 67.5004 64.1865 68.5794 63.5872L76.0125 59.2723L83.2058 55.0773C84.165 54.5978 84.8843 53.5191 84.8843 52.3205V43.6907V35.1808C84.8843 34.102 84.2848 33.1432 83.3257 32.5439L81.4075 31.4652L88.9605 27.1503C90.3992 26.3112 92.1975 26.3112 93.5163 27.1503V27.1503Z" fill="#E10567"/>
<path d="M68.1084 28.9446L73.6233 32.1808L79.1382 35.417C79.8575 35.7766 80.2172 36.6156 80.2172 37.3347V43.6872V50.0397C80.2172 50.8787 79.7376 51.7177 78.8984 52.0773L73.5034 55.1936L67.9885 58.4298C67.2692 58.9092 66.4299 58.7894 65.7106 58.4298L60.1957 55.1936L54.6808 51.9574C53.9615 51.5979 53.6018 50.7589 53.6018 50.0397V43.6872V37.3347C53.6018 36.4957 54.0814 35.6567 54.9206 35.2971L60.3156 32.1808L65.8305 28.9446C66.5498 28.4652 67.389 28.5851 68.1084 28.9446V28.9446Z" fill="#1FB1DA"/>
<path d="M39.9219 53.7655L44.238 56.2826L48.6738 58.7996C49.2733 59.1592 49.5131 59.7585 49.5131 60.3578V65.5117V70.6656C49.5131 71.3847 49.1534 71.984 48.554 72.3436L44.238 74.8606L39.8021 77.3776C39.2026 77.7372 38.4833 77.7372 38.0037 77.3776L33.6877 74.8606L29.2518 72.3436C28.6524 71.984 28.4126 71.3847 28.4126 70.7854V65.6315V60.4776C28.4126 59.7585 28.7723 59.1592 29.3717 58.9195L33.6877 56.4024L38.1236 53.8854C38.7231 53.5258 39.4424 53.5258 39.9219 53.8854V53.7655Z" fill="#BCDB0F"/>
<path d="M393.976 216.402C393.856 211.967 395.534 208.131 398.771 204.895C402.008 201.659 405.964 200.101 410.4 200.221C413.278 200.221 415.915 200.82 418.193 202.139C420.591 203.457 422.389 205.135 423.828 207.412L419.991 210.169C417.714 206.573 414.477 204.775 410.4 204.775C407.163 204.775 404.526 205.854 402.368 208.131C400.21 210.289 399.131 213.046 399.131 216.402C399.131 219.758 400.21 222.514 402.368 224.672C404.526 226.829 407.163 228.028 410.4 228.028C414.477 228.028 417.714 226.23 419.991 222.634L423.828 225.391C422.509 227.668 420.591 229.346 418.193 230.665C415.795 231.983 413.158 232.583 410.281 232.583C405.725 232.702 401.888 231.024 398.651 227.908C395.414 224.672 393.736 220.836 393.856 216.402H393.976ZM450.443 216.402C450.323 211.967 451.882 208.131 455.239 204.895C458.476 201.659 462.432 200.101 466.988 200.221C472.503 200.221 476.819 202.378 479.936 206.813L476.219 209.809C473.822 206.573 470.705 204.895 466.868 204.895C463.631 204.895 460.874 205.974 458.716 208.131C456.558 210.289 455.599 213.046 455.599 216.402C455.599 219.758 456.678 222.514 458.836 224.792C460.994 227.069 463.751 228.148 467.108 228.148C471.304 228.148 474.421 226.59 476.459 223.353V219.997H466.868V215.563H481.495V224.432C480.056 226.949 478.018 228.987 475.5 230.425C472.863 231.863 469.985 232.702 466.868 232.702C462.312 232.822 458.356 231.264 455.119 228.028C451.882 224.792 450.323 220.956 450.323 216.521L450.443 216.402ZM604.021 200.7H609.536L597.307 232.583H595.629L586.278 210.409L576.926 232.583H575.248L563.019 200.7H568.534L576.327 221.915L585.318 200.221H587.117L596.109 221.915L603.901 200.7H604.021ZM634.953 216.402C634.833 211.967 636.511 208.131 639.748 204.895C642.985 201.659 646.941 200.101 651.377 200.221C655.813 200.101 659.77 201.779 663.007 204.895C666.363 208.131 667.922 211.967 667.802 216.402C667.922 220.836 666.244 224.672 663.007 227.908C659.65 231.144 655.813 232.702 651.377 232.583C646.822 232.702 642.985 231.024 639.748 227.908C636.511 224.672 634.833 220.836 634.953 216.402ZM662.647 216.402C662.647 213.165 661.568 210.409 659.41 208.131C657.252 205.974 654.614 204.775 651.377 204.775C648.14 204.775 645.503 205.854 643.345 208.012C641.187 210.169 640.108 212.926 640.108 216.282C640.108 219.638 641.187 222.395 643.345 224.672C645.503 226.829 648.14 228.028 651.377 228.028C654.614 228.028 657.252 226.949 659.41 224.672C661.568 222.514 662.647 219.638 662.647 216.402V216.402ZM721.992 232.103H716.237L707.366 219.997H701.611V232.103H696.576V200.7H707.965C711.082 200.7 713.72 201.539 715.638 203.337C717.556 205.135 718.635 207.412 718.635 210.289C718.635 212.326 718.156 214.124 717.077 215.682C715.998 217.241 714.559 218.319 712.641 219.158L721.992 232.103V232.103ZM701.611 205.255V215.563H707.965C709.643 215.563 711.082 215.083 712.041 214.124C713 213.165 713.48 211.967 713.48 210.409C713.48 208.851 713 207.652 712.041 206.693C711.082 205.734 709.643 205.255 707.965 205.255H701.611ZM749.207 232.103V200.7H754.242V232.103H749.207ZM760.716 215.443L775.103 232.103H768.869L754.362 215.443L767.55 200.82H773.784L760.716 215.443ZM800.04 225.87L803.636 223.114C805.914 226.47 808.672 228.148 811.909 228.148C813.467 228.148 814.786 227.788 815.865 226.949C816.824 226.11 817.304 225.151 817.304 223.713C817.304 222.634 816.944 221.795 816.345 221.196C815.625 220.597 814.426 219.878 812.748 219.039L809.271 217.48C806.873 216.402 804.955 215.203 803.756 213.765C802.557 212.446 801.958 210.768 801.958 208.731C801.958 206.214 802.917 204.176 804.835 202.618C806.753 201.06 809.031 200.221 811.909 200.221C814.067 200.221 816.105 200.7 817.903 201.779C819.701 202.738 821.02 204.176 822.099 205.854L818.623 208.611C816.944 206.094 814.666 204.775 812.029 204.775C810.59 204.775 809.511 205.135 808.552 205.734C807.713 206.453 807.233 207.292 807.233 208.491C807.233 209.09 807.353 209.57 807.473 209.929C807.593 210.289 807.833 210.648 808.312 211.128C808.792 211.487 809.151 211.727 809.271 211.847C809.511 211.967 810.11 212.207 811.069 212.806C811.309 212.926 811.429 212.926 811.549 213.046L815.026 214.604C817.663 215.802 819.582 217.121 820.781 218.439C821.979 219.758 822.579 221.436 822.579 223.473C822.579 226.11 821.62 228.387 819.582 230.066C817.663 231.744 815.146 232.583 812.029 232.583C809.511 232.583 807.233 231.983 805.195 230.785C803.157 229.586 801.478 227.908 800.28 225.751L800.04 225.87ZM851.472 232.103V200.7H856.507V213.165H872.333V200.7H877.368V232.103H872.333V217.72H856.507V232.103H851.472ZM906.022 216.402C905.902 211.967 907.58 208.131 910.817 204.895C914.054 201.659 918.01 200.101 922.446 200.221C926.882 200.101 930.839 201.779 934.076 204.895C937.433 208.131 938.991 211.967 938.871 216.402C938.991 220.836 937.313 224.672 934.076 227.908C930.719 231.144 926.882 232.702 922.446 232.583C917.891 232.702 914.054 231.024 910.817 227.908C907.58 224.672 905.902 220.836 906.022 216.402ZM933.716 216.402C933.716 213.165 932.637 210.409 930.479 208.131C928.321 205.974 925.683 204.775 922.446 204.775C919.209 204.775 916.572 205.854 914.414 208.012C912.256 210.169 911.177 212.926 911.177 216.282C911.177 219.638 912.256 222.395 914.414 224.672C916.572 226.829 919.209 228.028 922.446 228.028C925.683 228.028 928.321 226.949 930.479 224.672C932.637 222.514 933.716 219.638 933.716 216.402V216.402ZM967.525 232.103V200.7H978.914C982.031 200.7 984.669 201.539 986.587 203.337C988.505 205.135 989.584 207.412 989.584 210.289C989.584 213.165 988.625 215.443 986.587 217.241C984.669 219.039 982.031 219.997 978.914 219.997H972.56V232.103H967.525V232.103ZM972.56 215.563H978.914C980.712 215.563 982.031 215.083 982.99 214.244C983.949 213.285 984.429 212.087 984.429 210.529C984.429 208.97 983.949 207.652 982.99 206.813C982.031 205.854 980.593 205.375 978.914 205.375H972.56V215.682V215.563Z" fill="#3D3D3D"/>
</svg>
