<svg width="69" height="56" viewBox="0 0 69 56" fill="none" xmlns="http://www.w3.org/2000/svg">
<path d="M46.801 1.2183L56.8464 7.04697L66.9466 12.9304C68.2604 13.6966 68.9994 15.0922 68.9994 16.5151V28.2546V39.994C68.9994 41.6359 68.0414 43.0315 66.6728 43.7156L56.8191 49.4348L46.7189 55.3182C45.3777 56.1118 43.7628 56.0297 42.5037 55.2908L32.4583 49.4622L22.3582 43.5788C21.8655 43.3051 21.4549 42.922 21.1265 42.4842L28.8179 37.7501L36.6188 42.2926L44.6661 46.972L52.7133 42.2926L60.7606 37.6133V28.2546V18.8959L52.7133 14.2165L44.6661 9.53715L36.6188 14.2165L32.4583 16.6246L30.5423 15.5847L29.2558 14.9006L29.119 8.98986L32.4583 7.04697L42.5584 1.16357C43.8997 0.37 45.5146 0.452094 46.7737 1.19094L46.801 1.2183Z" fill="white"/>
<path d="M30.3845 18.3779L33.5596 20.2113L36.7621 22.0721C37.1727 22.3184 37.419 22.7562 37.419 23.1941V26.8883V30.5825C37.419 31.1025 37.118 31.5403 36.68 31.7592L33.5596 33.5653L30.3572 35.4261C29.9192 35.6724 29.4265 35.645 29.016 35.4261L25.8408 33.5926L22.6384 31.7318C22.2278 31.4856 21.9814 31.0477 21.9814 30.6099V26.9157V23.2214C21.9814 22.7015 22.2825 22.2637 22.7205 22.0448L25.8408 20.2387L29.0433 18.3779C29.4813 18.1316 29.974 18.159 30.3845 18.3779Z" fill="#BCDB0F"/>
<path d="M14.4523 20.2097L16.3136 21.3043L18.2022 22.3989C18.4486 22.5357 18.5854 22.8094 18.5854 23.0557V25.2448V27.434C18.5854 27.735 18.4212 28.0087 18.1475 28.1181L16.3136 29.1853L14.4249 30.2799C14.1786 30.4167 13.8775 30.4167 13.6312 30.2799L11.7699 29.1853L9.88125 28.0907C9.6349 27.9539 9.49805 27.6803 9.49805 27.434V26.5036C9.58016 26.5036 9.66228 26.4762 9.74439 26.4215L11.0035 25.6827L12.2352 24.9712C12.3994 24.8891 12.5363 24.7249 12.5363 24.506V23.0557V21.6053C12.5363 21.4411 12.4542 21.2496 12.29 21.1675L12.1531 21.0854L13.6585 20.2097C13.9049 20.0729 14.206 20.0729 14.4523 20.2097Z" fill="#F7B81D"/>
<path d="M18.174 31.2371L20.0353 32.3317L21.9239 33.4263C22.1702 33.5631 22.3071 33.8368 22.3071 34.0831V36.2722V38.4614C22.3071 38.7624 22.1429 39.0361 21.8692 39.1455L20.0353 40.2127L18.1466 41.3073C17.9003 41.4441 17.5992 41.4441 17.3528 41.3073L15.4916 40.2127L13.6029 39.1182C13.3566 38.9813 13.2197 38.7077 13.2197 38.4614V36.2722V34.0831C13.2197 33.782 13.384 33.5084 13.6577 33.3989L15.4916 32.3317L17.3802 31.2371C17.6266 31.1003 17.9276 31.1003 18.174 31.2371Z" fill="#1FB1DA"/>
<path d="M8.92484 30.1128L9.85548 30.6601L10.7861 31.2074C10.8956 31.2895 10.9777 31.399 10.9777 31.5358V32.6304V33.725C10.9777 33.8892 10.8956 33.9986 10.7587 34.0807L9.85548 34.6006L8.92484 35.1479C8.78799 35.23 8.65113 35.2027 8.54164 35.1479L7.61101 34.6006L6.68037 34.0534C6.57088 33.9713 6.48877 33.8618 6.48877 33.725V32.6304V31.5358C6.48877 31.3716 6.57088 31.2622 6.70774 31.1801L7.61101 30.6601L8.54164 30.1128C8.6785 30.0308 8.81536 30.0581 8.92484 30.1128Z" fill="#BCDB0F"/>
<path d="M4.02376 24.6444L4.68068 25.0275L5.3376 25.4107C5.41971 25.4654 5.47445 25.5475 5.47445 25.6569V26.4231V27.1893C5.47445 27.2988 5.41971 27.3809 5.31022 27.4356L4.6533 27.8187L3.99639 28.2018C3.91427 28.2566 3.80478 28.2566 3.72267 28.2018L3.06575 27.8187L2.40883 27.4356C2.32672 27.3809 2.27197 27.2988 2.27197 27.1893V26.4231V25.6569C2.27197 25.5475 2.32672 25.4654 2.4362 25.4107L3.09312 25.0275L3.75004 24.6444C3.83216 24.5897 3.94164 24.5897 4.02376 24.6444Z" fill="#1FB1DA"/>
<path d="M1.86078 16.4333L2.57244 16.8438L3.28411 17.2543C3.36622 17.309 3.42096 17.3911 3.42096 17.5005V18.3215V19.1424C3.42096 19.2519 3.36622 19.3613 3.25674 19.3887L2.57244 19.7992L1.86078 20.2096C1.77867 20.2644 1.64181 20.2644 1.55969 20.2096L0.848032 19.7992L0.13637 19.3887C0.054255 19.334 -0.000488281 19.2519 -0.000488281 19.1424V18.3215V17.5005C-0.000488281 17.3911 0.054255 17.2816 0.163741 17.2543L0.848032 16.8438L1.55969 16.4333C1.64181 16.3786 1.77867 16.3786 1.86078 16.4333Z" fill="#F7B81D"/>
<path d="M9.57475 20.4839L10.5054 21.0312L11.436 21.5785C11.5455 21.6606 11.6276 21.77 11.6276 21.9068V23.0014V24.096C11.6276 24.2602 11.5455 24.3697 11.4086 24.4518L10.5054 24.9717L9.57475 25.519C9.43789 25.6011 9.30103 25.5737 9.19154 25.519L8.26091 24.9717L7.33027 24.4244C7.22079 24.3423 7.13867 24.2328 7.13867 24.096V23.0014V21.9068C7.13867 21.7427 7.22079 21.6332 7.35765 21.5511L8.26091 21.0312L9.19154 20.4839C9.3284 20.4018 9.46526 20.4292 9.57475 20.4839Z" fill="#E10567"/>
<path d="M21.3226 6.79991L23.8135 8.25024L26.3316 9.70057C26.6601 9.89212 26.8517 10.2479 26.8517 10.6036V13.5316V16.4596C26.8517 16.8701 26.6054 17.2258 26.2769 17.39L23.8135 18.813L21.2953 20.2633C20.9668 20.4549 20.5562 20.4549 20.2551 20.2633L17.7643 18.813L15.2461 17.3627C14.9177 17.1711 14.7261 16.8154 14.7261 16.4596V15.0093L14.9177 15.1188C15.1366 15.2556 15.383 15.2556 15.6293 15.1188L17.3264 14.1336L18.9687 13.1759C19.1877 13.0664 19.3519 12.8201 19.3519 12.5465V10.5762V8.63335C19.3519 8.38706 19.215 8.16815 18.996 8.03132L18.5581 7.78504L20.2825 6.79991C20.611 6.60836 21.0215 6.60836 21.3226 6.79991Z" fill="#E10567"/>
<path d="M15.5219 7.21026L16.781 7.9491L18.0401 8.68795C18.2043 8.77004 18.2865 8.96159 18.2865 9.12578V10.5761V12.0264C18.2865 12.218 18.177 12.4095 17.9854 12.4916L16.7537 13.2031L15.4946 13.942C15.3303 14.0514 15.1387 14.0241 14.9745 13.942L13.7154 13.2031L12.4563 12.4643C12.2921 12.3822 12.21 12.1906 12.21 12.0264V10.5761V9.12578C12.21 8.93423 12.3194 8.74268 12.511 8.66058L13.7428 7.9491L15.0019 7.21026C15.1661 7.1008 15.3577 7.12816 15.5219 7.21026Z" fill="#1FB1DA"/>
<path d="M9.08666 12.8769L10.072 13.4515L11.0848 14.0262C11.2216 14.1083 11.2764 14.2451 11.2764 14.3819V15.5586V16.7353C11.2764 16.8995 11.1943 17.0363 11.0574 17.1184L10.072 17.693L9.05929 18.2677C8.92243 18.3498 8.7582 18.3498 8.64872 18.2677L7.66334 17.693L6.65059 17.1184C6.51373 17.0363 6.45898 16.8995 6.45898 16.7626V15.586V14.4093C6.45898 14.2451 6.5411 14.1083 6.67796 14.0535L7.66334 13.4789L8.67609 12.9042C8.81295 12.8221 8.97717 12.8221 9.08666 12.9042V12.8769Z" fill="#BCDB0F"/>
</svg>
