<svg width="991" height="243" viewBox="0 0 991 243" fill="none" xmlns="http://www.w3.org/2000/svg">
<path d="M479.306 150.483V171.218H397.901V58.0721H479.306V78.8076H420.081V104.337H468.156V125.073H420.081V150.603H479.306V150.483ZM630.007 145.689H582.65L573.059 171.218H548.962L595.239 58.0721H617.418L663.695 171.218H639.598L630.007 145.689V145.689ZM590.443 124.953H622.214L606.268 82.6431L590.323 124.953H590.443ZM780.707 105.416C785.503 106.615 790.298 107.933 794.974 109.252C799.65 110.57 803.846 112.368 807.562 114.645C811.279 116.923 814.276 119.919 816.554 123.635C818.832 127.35 820.031 132.145 820.031 138.018C820.031 144.13 818.712 149.404 816.194 153.719C813.557 158.034 810.08 161.63 805.644 164.387C801.208 167.143 795.933 169.181 789.938 170.379C783.944 171.578 777.47 172.177 770.516 172.177C767.759 172.177 764.882 172.057 761.765 171.938C758.647 171.698 755.41 171.458 752.293 171.099C749.056 170.739 745.939 170.26 742.822 169.78C739.705 169.301 736.948 168.701 734.31 168.102V147.247C736.348 147.846 738.986 148.445 741.983 148.805C744.98 149.284 748.217 149.644 751.574 149.884C754.931 150.243 758.408 150.483 761.884 150.603C765.361 150.843 768.598 150.843 771.715 150.843C781.187 150.843 788.14 150.004 792.456 148.206C796.772 146.528 798.93 143.411 798.93 139.096C798.93 138.018 798.69 136.819 798.211 135.621C797.731 134.422 796.532 133.103 794.734 131.785C792.936 130.467 790.178 129.148 786.462 127.95C782.865 126.631 777.95 125.313 771.715 123.755C768.718 123.035 765.121 122.077 761.045 120.998C756.849 119.919 752.893 118.121 749.056 115.724C745.22 113.327 741.983 110.091 739.225 106.015C736.468 101.94 735.149 96.6665 735.149 90.0743C735.149 84.3211 736.348 79.2871 738.626 75.092C741.024 70.897 744.261 67.4211 748.337 64.7842C752.413 62.0274 757.329 60.1097 763.083 58.7913C768.718 57.4728 774.952 56.8735 781.546 56.8735C783.944 56.8735 786.582 56.9934 789.459 57.1133C792.456 57.353 795.453 57.5927 798.451 57.8324C801.448 58.192 804.445 58.5516 807.322 59.031C810.2 59.5104 812.957 60.1097 815.355 60.8289V81.6842C813.676 81.2048 811.399 80.7254 808.641 80.2459C805.884 79.7665 802.887 79.4069 799.65 79.0473C796.412 78.6878 793.175 78.448 789.699 78.2083C786.342 77.9686 783.105 77.9686 780.227 77.9686C770.996 77.9686 764.642 78.9275 761.405 80.9651C758.048 82.8828 756.37 85.7594 756.37 89.475C756.37 91.5126 756.849 93.3105 757.688 94.7488C758.528 96.1871 759.966 97.3857 761.884 98.5843C763.803 99.663 766.32 100.742 769.437 101.701C772.555 102.659 776.391 103.738 780.947 105.057L780.707 105.416Z" fill="white"/>
<path d="M947.959 131.31V171.462L925.9 171.702V131.909L882.979 57.9565H907.077L937.169 109.136L967.142 57.9565H990.88L947.959 131.31Z" fill="white"/>
<path d="M204.997 2.70002L248.997 28.2299L293.236 53.9994C298.99 57.3554 302.227 63.4682 302.227 69.7009V121.12V172.539C302.227 179.731 298.031 185.844 292.037 188.84L248.877 213.891L204.638 239.66C198.763 243.136 191.69 242.776 186.175 239.54L142.176 214.01L97.9365 188.241C95.7785 187.042 93.9802 185.364 92.5415 183.446L126.23 162.711L160.399 182.607L195.646 203.103L230.893 182.607L266.141 162.112V121.12V80.1285L230.893 59.6328L195.646 39.137L160.399 59.6328L142.176 70.1803L133.783 65.6257L128.149 62.6292L127.549 36.7398L142.176 28.2299L186.415 2.4603C192.289 -1.01559 199.363 -0.656016 204.878 2.58016L204.997 2.70002Z" fill="white"/>
<path d="M133.089 77.859L146.996 85.8895L161.023 94.0399C162.822 95.1186 163.901 97.0363 163.901 98.9541V115.135V131.316C163.901 133.593 162.582 135.511 160.664 136.47L146.996 144.38L132.969 152.531C131.051 153.609 128.893 153.49 127.095 152.531L113.188 144.5L99.1605 136.35C97.3622 135.271 96.2832 133.353 96.2832 131.436V115.255V99.0739C96.2832 96.7966 97.602 94.8789 99.5202 93.92L113.188 86.0094L127.215 77.859C129.133 76.7803 131.291 76.9001 133.089 77.859Z" fill="#BCDB0F"/>
<path d="M63.31 85.8821L71.4625 90.6764L79.7348 95.4708C80.8138 96.0701 81.4133 97.2686 81.4133 98.3474V107.936V117.525C81.4133 118.843 80.6939 120.042 79.495 120.521L71.4625 125.196L63.1901 129.99C62.1111 130.589 60.7923 130.589 59.7133 129.99L51.5609 125.196L43.2886 120.401C42.2096 119.802 41.6101 118.603 41.6101 117.525V113.45C41.9698 113.45 42.3294 113.33 42.6891 113.09L48.204 109.854L53.599 106.737C54.3183 106.378 54.9178 105.659 54.9178 104.7V98.3474V91.9949C54.9178 91.2757 54.5581 90.4367 53.8388 90.0771L53.2393 89.7176L59.8332 85.8821C60.9122 85.2828 62.231 85.2828 63.31 85.8821V85.8821Z" fill="#F7B81D"/>
<path d="M79.6054 134.183L87.7579 138.977L96.0302 143.772C97.1092 144.371 97.7087 145.569 97.7087 146.648V156.237V165.825C97.7087 167.144 96.9893 168.343 95.7904 168.822L87.7579 173.496L79.4855 178.291C78.4065 178.89 77.0878 178.89 76.0088 178.291L67.8563 173.496L59.584 168.702C58.505 168.103 57.9055 166.904 57.9055 165.825V156.237V146.648C57.9055 145.33 58.6248 144.131 59.8237 143.652L67.8563 138.977L76.1286 134.183C77.2076 133.584 78.5264 133.584 79.6054 134.183V134.183Z" fill="#1FB1DA"/>
<path d="M39.092 129.259L43.1682 131.656L47.2445 134.054C47.724 134.413 48.0837 134.893 48.0837 135.492V140.286V145.08C48.0837 145.8 47.724 146.279 47.1246 146.639L43.1682 148.916L39.092 151.313C38.4926 151.673 37.8931 151.553 37.4136 151.313L33.3373 148.916L29.2611 146.519C28.7815 146.159 28.4219 145.68 28.4219 145.08V140.286V135.492C28.4219 134.773 28.7815 134.293 29.381 133.934L33.3373 131.656L37.4136 129.259C38.013 128.9 38.6124 129.019 39.092 129.259Z" fill="#BCDB0F"/>
<path d="M17.6299 105.308L20.5073 106.986L23.3846 108.664C23.7443 108.903 23.984 109.263 23.984 109.742V113.099V116.455C23.984 116.934 23.7443 117.294 23.2647 117.533L20.3874 119.211L17.51 120.889C17.1504 121.129 16.6708 121.129 16.3112 120.889L13.4338 119.211L10.5565 117.533C10.1968 117.294 9.95703 116.934 9.95703 116.455V113.099V109.742C9.95703 109.263 10.1968 108.903 10.6764 108.664L13.5537 106.986L16.431 105.308C16.7907 105.068 17.2703 105.068 17.6299 105.308Z" fill="#1FB1DA"/>
<path d="M8.15245 69.3424L11.2696 71.1403L14.3867 72.9381C14.7463 73.1779 14.9861 73.5374 14.9861 74.0169V77.6126V81.2084C14.9861 81.6878 14.7463 82.1672 14.2668 82.2871L11.2696 84.085L8.15245 85.8828C7.79279 86.1226 7.19334 86.1226 6.83367 85.8828L3.71656 84.085L0.599445 82.2871C0.239778 82.0474 0 81.6878 0 81.2084V77.6126V74.0169C0 73.5374 0.239778 73.058 0.719334 72.9381L3.71656 71.1403L6.83367 69.3424C7.19334 69.1027 7.79279 69.1027 8.15245 69.3424V69.3424Z" fill="#F7B81D"/>
<path d="M41.9445 87.0863L46.0208 89.4835L50.097 91.8806C50.5765 92.2402 50.9362 92.7197 50.9362 93.3189V98.1133V102.908C50.9362 103.627 50.5765 104.106 49.9771 104.466L46.0208 106.743L41.9445 109.14C41.3451 109.5 40.7456 109.38 40.2661 109.14L36.1899 106.743L32.1136 104.346C31.6341 103.986 31.2744 103.507 31.2744 102.908V98.1133V93.3189C31.2744 92.5998 31.6341 92.1204 32.2335 91.7608L36.1899 89.4835L40.2661 87.0863C40.8655 86.7267 41.465 86.8466 41.9445 87.0863V87.0863Z" fill="#E10567"/>
<path d="M93.3955 27.1503L104.305 33.5027L115.335 39.8552C116.774 40.6943 117.613 42.2524 117.613 43.8106V56.6354V69.4603C117.613 71.2581 116.534 72.8163 115.095 73.5355L104.305 79.7681L93.2756 86.1206C91.8369 86.9596 90.0386 86.9596 88.7198 86.1206L77.8099 79.7681L66.7801 73.4156C65.3414 72.5766 64.5022 71.0184 64.5022 69.4603V63.1078L65.3414 63.5872C66.3005 64.1865 67.3795 64.1865 68.4585 63.5872L75.8917 59.2723L83.085 55.0773C84.0441 54.5978 84.7634 53.5191 84.7634 52.3205V43.6907V35.1808C84.7634 34.102 84.164 33.1432 83.2049 32.5439L81.2867 31.4652L88.8397 27.1503C90.2783 26.3112 92.0767 26.3112 93.3955 27.1503V27.1503Z" fill="#E10567"/>
<path d="M67.9873 28.9446L73.5022 32.1808L79.0171 35.417C79.7364 35.7766 80.0961 36.6156 80.0961 37.3347V43.6872V50.0397C80.0961 50.8787 79.6165 51.7177 78.7773 52.0773L73.3823 55.1936L67.8674 58.4298C67.1481 58.9092 66.3088 58.7894 65.5895 58.4298L60.0746 55.1936L54.5597 51.9574C53.8404 51.5979 53.4807 50.7589 53.4807 50.0397V43.6872V37.3347C53.4807 36.4957 53.9603 35.6567 54.7995 35.2971L60.1945 32.1808L65.7094 28.9446C66.4287 28.4652 67.268 28.5851 67.9873 28.9446V28.9446Z" fill="#1FB1DA"/>
<path d="M39.8011 53.7655L44.1171 56.2826L48.553 58.7996C49.1524 59.1592 49.3922 59.7585 49.3922 60.3578V65.5117V70.6656C49.3922 71.3847 49.0326 71.984 48.4331 72.3436L44.1171 74.8606L39.6812 77.3776C39.0818 77.7372 38.3624 77.7372 37.8829 77.3776L33.5669 74.8606L29.131 72.3436C28.5315 71.984 28.2917 71.3847 28.2917 70.7854V65.6315V60.4776C28.2917 59.7585 28.6514 59.1592 29.2509 58.9195L33.5669 56.4024L38.0028 53.8854C38.6022 53.5258 39.3215 53.5258 39.8011 53.8854V53.7655Z" fill="#BCDB0F"/>
<path d="M393.855 216.402C393.735 211.967 395.413 208.131 398.65 204.895C401.887 201.659 405.844 200.101 410.279 200.221C413.157 200.221 415.794 200.82 418.072 202.139C420.47 203.457 422.268 205.135 423.707 207.412L419.871 210.169C417.593 206.573 414.356 204.775 410.279 204.775C407.042 204.775 404.405 205.854 402.247 208.131C400.089 210.289 399.01 213.046 399.01 216.402C399.01 219.758 400.089 222.514 402.247 224.672C404.405 226.829 407.042 228.028 410.279 228.028C414.356 228.028 417.593 226.23 419.871 222.634L423.707 225.391C422.388 227.668 420.47 229.346 418.072 230.665C415.674 231.983 413.037 232.583 410.16 232.583C405.604 232.702 401.767 231.024 398.53 227.908C395.293 224.672 393.615 220.836 393.735 216.402H393.855ZM450.322 216.402C450.202 211.967 451.761 208.131 455.118 204.895C458.355 201.659 462.311 200.101 466.867 200.221C472.382 200.221 476.698 202.378 479.815 206.813L476.099 209.809C473.701 206.573 470.584 204.895 466.747 204.895C463.51 204.895 460.753 205.974 458.595 208.131C456.437 210.289 455.478 213.046 455.478 216.402C455.478 219.758 456.557 222.514 458.715 224.792C460.873 227.069 463.63 228.148 466.987 228.148C471.183 228.148 474.3 226.59 476.338 223.353V219.997H466.747V215.563H481.374V224.432C479.935 226.949 477.897 228.987 475.379 230.425C472.742 231.863 469.864 232.702 466.747 232.702C462.191 232.822 458.235 231.264 454.998 228.028C451.761 224.792 450.202 220.956 450.202 216.521L450.322 216.402ZM603.9 200.7H609.415L597.186 232.583H595.508L586.157 210.409L576.805 232.583H575.127L562.898 200.7H568.413L576.206 221.915L585.197 200.221H586.996L595.988 221.915L603.78 200.7H603.9ZM634.832 216.402C634.712 211.967 636.39 208.131 639.627 204.895C642.864 201.659 646.82 200.101 651.256 200.221C655.692 200.101 659.649 201.779 662.886 204.895C666.242 208.131 667.801 211.967 667.681 216.402C667.801 220.836 666.123 224.672 662.886 227.908C659.529 231.144 655.692 232.702 651.256 232.583C646.701 232.702 642.864 231.024 639.627 227.908C636.39 224.672 634.712 220.836 634.832 216.402ZM662.526 216.402C662.526 213.165 661.447 210.409 659.289 208.131C657.131 205.974 654.493 204.775 651.256 204.775C648.019 204.775 645.382 205.854 643.224 208.012C641.066 210.169 639.987 212.926 639.987 216.282C639.987 219.638 641.066 222.395 643.224 224.672C645.382 226.829 648.019 228.028 651.256 228.028C654.493 228.028 657.131 226.949 659.289 224.672C661.447 222.514 662.526 219.638 662.526 216.402V216.402ZM721.871 232.103H716.116L707.245 219.997H701.49V232.103H696.455V200.7H707.844C710.961 200.7 713.599 201.539 715.517 203.337C717.435 205.135 718.514 207.412 718.514 210.289C718.514 212.326 718.035 214.124 716.956 215.682C715.877 217.241 714.438 218.319 712.52 219.158L721.871 232.103V232.103ZM701.49 205.255V215.563H707.844C709.522 215.563 710.961 215.083 711.92 214.124C712.879 213.165 713.359 211.967 713.359 210.409C713.359 208.851 712.879 207.652 711.92 206.693C710.961 205.734 709.522 205.255 707.844 205.255H701.49ZM749.086 232.103V200.7H754.121V232.103H749.086ZM760.595 215.443L774.982 232.103H768.748L754.241 215.443L767.429 200.82H773.663L760.595 215.443ZM799.919 225.87L803.515 223.114C805.793 226.47 808.551 228.148 811.788 228.148C813.346 228.148 814.665 227.788 815.744 226.949C816.703 226.11 817.183 225.151 817.183 223.713C817.183 222.634 816.823 221.795 816.224 221.196C815.504 220.597 814.305 219.878 812.627 219.039L809.15 217.48C806.752 216.402 804.834 215.203 803.635 213.765C802.436 212.446 801.837 210.768 801.837 208.731C801.837 206.214 802.796 204.176 804.714 202.618C806.633 201.06 808.91 200.221 811.788 200.221C813.946 200.221 815.984 200.7 817.782 201.779C819.58 202.738 820.899 204.176 821.978 205.854L818.502 208.611C816.823 206.094 814.545 204.775 811.908 204.775C810.469 204.775 809.39 205.135 808.431 205.734C807.592 206.453 807.112 207.292 807.112 208.491C807.112 209.09 807.232 209.57 807.352 209.929C807.472 210.289 807.712 210.648 808.191 211.128C808.671 211.487 809.03 211.727 809.15 211.847C809.39 211.967 809.989 212.207 810.948 212.806C811.188 212.926 811.308 212.926 811.428 213.046L814.905 214.604C817.542 215.802 819.461 217.121 820.66 218.439C821.858 219.758 822.458 221.436 822.458 223.473C822.458 226.11 821.499 228.387 819.461 230.066C817.542 231.744 815.025 232.583 811.908 232.583C809.39 232.583 807.112 231.983 805.074 230.785C803.036 229.586 801.357 227.908 800.159 225.751L799.919 225.87ZM851.351 232.103V200.7H856.386V213.165H872.212V200.7H877.247V232.103H872.212V217.72H856.386V232.103H851.351ZM905.901 216.402C905.781 211.967 907.459 208.131 910.696 204.895C913.933 201.659 917.89 200.101 922.325 200.221C926.761 200.101 930.718 201.779 933.955 204.895C937.312 208.131 938.87 211.967 938.75 216.402C938.87 220.836 937.192 224.672 933.955 227.908C930.598 231.144 926.761 232.702 922.325 232.583C917.77 232.702 913.933 231.024 910.696 227.908C907.459 224.672 905.781 220.836 905.901 216.402ZM933.595 216.402C933.595 213.165 932.516 210.409 930.358 208.131C928.2 205.974 925.562 204.775 922.325 204.775C919.088 204.775 916.451 205.854 914.293 208.012C912.135 210.169 911.056 212.926 911.056 216.282C911.056 219.638 912.135 222.395 914.293 224.672C916.451 226.829 919.088 228.028 922.325 228.028C925.562 228.028 928.2 226.949 930.358 224.672C932.516 222.514 933.595 219.638 933.595 216.402V216.402ZM967.404 232.103V200.7H978.793C981.91 200.7 984.548 201.539 986.466 203.337C988.384 205.135 989.463 207.412 989.463 210.289C989.463 213.165 988.504 215.443 986.466 217.241C984.548 219.039 981.91 219.997 978.793 219.997H972.439V232.103H967.404V232.103ZM972.439 215.563H978.793C980.591 215.563 981.91 215.083 982.869 214.244C983.829 213.285 984.308 212.087 984.308 210.529C984.308 208.97 983.829 207.652 982.869 206.813C981.91 205.854 980.472 205.375 978.793 205.375H972.439V215.682V215.563Z" fill="white"/>
</svg>
