<svg width="44" height="44" viewBox="0 0 44 44" fill="none" xmlns="http://www.w3.org/2000/svg">
<path d="M13.619 12.9L13.619 12.9C12.1014 12.9006 10.9007 14.3683 10.9 16.1392V16.1392L10.9 27.8608L10.9 27.8608C10.9007 29.6317 12.1014 31.0996 13.619 31.1H30.381C31.8986 31.0996 33.0993 29.6317 33.1 27.8608V27.8608V16.1392V16.1392C33.0993 14.3683 31.8986 12.9006 30.381 12.9L30.381 13V12.9L13.619 12.9ZM13.619 13C12.1728 13.0006 11.0007 14.4058 11 16.1392L13.619 13ZM13.6192 14.3557H30.3808C31.0567 14.3579 31.6592 14.9218 31.8164 15.7405L22 22.2974L12.1836 15.7405C12.3408 14.9218 12.9433 14.3579 13.6192 14.3557ZM12.1476 27.8546V17.3936L21.6878 23.7688L21.6883 23.7691C21.7817 23.8307 21.8882 23.8653 21.998 23.8675L21.9987 23.8675C22.1108 23.8689 22.2193 23.8338 22.3132 23.7682C22.3135 23.7679 22.3138 23.7677 22.3142 23.7675L31.8524 17.3936V27.8547C31.8517 28.857 31.1771 29.6373 30.3808 29.6382H13.6194C12.8237 29.6354 12.15 28.856 12.1476 27.8546Z" fill="white" stroke="white" stroke-width="0.2"/>
<rect x="1" y="1" width="42" height="42" rx="21" stroke="white" stroke-width="2"/>
</svg>
