<svg width="39" height="57" viewBox="0 0 39 57" fill="none" xmlns="http://www.w3.org/2000/svg">
<path fill-rule="evenodd" clip-rule="evenodd" d="M4.91193 19.3982C4.91193 11.9729 11.3845 5.43359 18.3777 5.43359C22.8897 5.43359 26.3169 6.04539 29.542 9.23167C30.8173 10.4914 31.521 11.2536 32.3458 12.9113C35.1673 18.5843 33.8008 23.214 31.1787 28.4589C29.9496 30.9164 28.8444 33.1451 27.4602 35.4637L21.5334 45.7467C20.9209 46.8709 19.9022 48.1292 19.6238 49.3236C19.027 48.886 14.2932 40.5154 13.4751 39.0141C11.2818 34.988 7.29041 28.346 5.8361 24.2103C5.47678 23.1895 4.91125 20.6164 4.91125 19.3996L4.91193 19.3982ZM0.672852 17.9017C0.672852 24.2035 1.15059 25.0909 3.99797 30.7857C7.11551 37.0215 12.4516 46.2884 16.183 52.5146C17.1739 54.167 17.7272 56.0555 19.8743 56.0555C21.1176 56.0555 22.3991 53.4306 22.9496 52.3982C23.7833 50.8337 24.5917 49.4801 25.4458 47.9121C26.3074 46.3299 27.1356 45.1117 28.0264 43.5104L33.0107 34.7791C35.4463 29.9051 38.5768 25.1202 38.5768 19.1492C38.5768 9.24188 29.265 0.945435 20.6222 0.945435C12.815 0.945435 6.14166 4.20113 2.58448 10.8364C1.75967 12.3751 0.672852 15.658 0.672852 17.9024V17.9017Z" fill="#3D3D3D"/>
<path fill-rule="evenodd" clip-rule="evenodd" d="M20.1242 24.8841H18.8774C14.1838 24.8841 11.9625 18.6646 15.0596 15.5804C18.1377 12.5153 25.3609 13.4959 25.3609 19.3982C25.3609 22.2 22.8817 24.8841 20.1242 24.8841V24.8841ZM9.15186 19.3982C9.15186 30.5223 24.8335 32.9736 28.9324 23.4685C32.1214 16.0738 26.0244 9.42358 20.3733 9.42358C17.0264 9.42358 14.2579 10.0014 11.9489 12.4697C10.4912 14.0274 9.15186 16.4495 9.15186 19.3982V19.3982Z" fill="#3D3D3D"/>
</svg>
