<svg width="433" height="420" viewBox="0 0 433 420" fill="none" xmlns="http://www.w3.org/2000/svg">
<mask id="mask0" mask-type="alpha" maskUnits="userSpaceOnUse" x="0" y="0" width="433" height="420">
<rect width="433" height="420" fill="#1EFE03"/>
</mask>
<g mask="url(#mask0)">
<path d="M74.313 41.2727V146H102.131V85.0455H102.949L126.268 145.182H143.04L166.358 85.4545H167.177V146H194.995V41.2727H159.608L135.268 100.591H134.04L109.699 41.2727H74.313ZM309.924 93.6364C309.924 58.6591 287.424 39.8409 258.992 39.8409C230.356 39.8409 208.06 58.6591 208.06 93.6364C208.06 128.409 230.356 147.432 258.992 147.432C287.424 147.432 309.924 128.614 309.924 93.6364ZM280.674 93.6364C280.674 112.455 273.106 122.682 258.992 122.682C244.878 122.682 237.31 112.455 237.31 93.6364C237.31 74.8182 244.878 64.5909 258.992 64.5909C273.106 64.5909 280.674 74.8182 280.674 93.6364ZM319.601 171.159H347.01V146H403.056V171.159H430.465V124.114H419.419V41.2727H345.374L341.897 85.6591C339.851 111.227 334.329 119.614 326.965 124.114H319.601V171.159ZM359.488 124.114C363.988 116.341 367.874 104.886 369.306 85.6591L370.942 64.1818H392.01V124.114H359.488ZM243.766 290H319.039V267.091H272.198V249.091H315.357V226.182H272.198V208.182H319.243V185.273H243.766V290ZM329.867 290H336.821C363.412 290 373.435 276.909 375.276 240.295L376.912 207.364H399.208V290H426.617V185.273H350.731L349.094 229.25C348.071 257.273 343.162 266.068 332.731 267.705L329.867 268.114V290ZM201.86 307.273V412H225.587L263.428 356.977H264.042V412H292.473V307.273H268.337L231.11 362.091H230.292V307.273H201.86ZM305.922 307.273V412H333.741V351.045H334.559L357.877 411.182H374.65L397.968 351.455H398.786V412H426.604V307.273H391.218L366.877 366.591H365.65L341.309 307.273H305.922Z" fill="white"/>
</g>
</svg>
