<svg width="420" height="420" viewBox="0 0 420 420" fill="none" xmlns="http://www.w3.org/2000/svg">
<mask id="mask0" mask-type="alpha" maskUnits="userSpaceOnUse" x="0" y="0" width="420" height="420">
<rect width="420" height="420" fill="#1EFE03"/>
</mask>
<g mask="url(#mask0)">
<path d="M177.984 31.2727V136H205.803V75.0455H206.621L229.939 135.182H246.712L270.03 75.4545H270.848V136H298.666V31.2727H263.28L238.939 90.5909H237.712L213.371 31.2727H177.984ZM413.595 83.6364C413.595 48.6591 391.095 29.8409 362.663 29.8409C334.027 29.8409 311.732 48.6591 311.732 83.6364C311.732 118.409 334.027 137.432 362.663 137.432C391.095 137.432 413.595 118.614 413.595 83.6364ZM384.345 83.6364C384.345 102.455 376.777 112.682 362.663 112.682C348.55 112.682 340.982 102.455 340.982 83.6364C340.982 64.8182 348.55 54.5909 362.663 54.5909C376.777 54.5909 384.345 64.8182 384.345 83.6364ZM5.89773 300.159H33.3068V275H89.3523V300.159H116.761V253.114H105.716V170.273H31.6705L28.1932 214.659C26.1477 240.227 20.625 248.614 13.2614 253.114H5.89773V300.159ZM45.7841 253.114C50.2841 245.341 54.1705 233.886 55.6023 214.659L57.2386 193.182H78.3068V253.114H45.7841ZM126.375 275H201.648V252.091H154.807V234.091H197.966V211.182H154.807V193.182H201.852V170.273H126.375V275ZM212.476 275H219.43C246.021 275 256.044 261.909 257.885 225.295L259.521 192.364H281.817V275H309.226V170.273H233.339L231.703 214.25C230.68 242.273 225.771 251.068 215.339 252.705L212.476 253.114V275ZM322.688 170.273V275H346.415L384.256 219.977H384.869V275H413.301V170.273H389.165L351.938 225.091H351.119V170.273H322.688ZM7.26562 420H35.6974V388.909H51.4474C75.3281 388.909 91.3338 374.847 91.3338 352.295C91.3338 330 75.7372 315.273 52.4702 315.273H7.26562V420ZM35.6974 366.818V337.977H45.7202C55.6918 337.977 61.6747 343.295 61.6747 352.295C61.6747 361.244 55.6918 366.818 45.7202 366.818H35.6974ZM116.902 421.432H125.493C143.493 421.432 151.879 409.977 157.811 397.091L193.811 315.273H165.175L148.402 357.818L126.516 315.273H97.4702L136.743 387.477L135.72 390.545C133.675 397.5 131.016 399.341 122.016 399.341H116.902V421.432ZM203.016 420H278.288V397.091H231.447V379.091H274.607V356.182H231.447V338.182H278.493V315.273H203.016V420ZM292.594 315.273V420H320.412V359.045H321.23L344.548 419.182H361.321L384.639 359.455H385.457V420H413.276V315.273H377.889L353.548 374.591H352.321L327.98 315.273H292.594Z" fill="white"/>
</g>
</svg>
