<svg width="420" height="420" viewBox="0 0 420 420" fill="none" xmlns="http://www.w3.org/2000/svg">
<mask id="mask0" mask-type="alpha" maskUnits="userSpaceOnUse" x="0" y="0" width="420" height="420">
<rect width="420" height="420" fill="#1EFE03"/>
</mask>
<g mask="url(#mask0)">
<path d="M204.141 167H232.572V126.091H270.209V167H298.641V62.2727H270.209V103.182H232.572V62.2727H204.141V167ZM339.345 167L345.379 146.955H379.947L385.982 167H416.663L382.095 62.2727H343.232L308.663 167H339.345ZM351.822 125.682L362.254 91.1136H363.072L373.504 125.682H351.822ZM304.496 184.273H213.064V289H241.087V206.773H276.473V289H304.496V184.273ZM322.688 184.273V289H346.415L384.256 233.977H384.869V289H413.301V184.273H389.165L351.938 239.091H351.119V184.273H322.688ZM49.6577 306.273V411H182.612V306.273H155.203V389.114H130.249V306.273H102.839V389.114H77.2713V306.273H49.6577ZM203.016 411H278.288V388.091H231.447V370.091H274.607V347.182H231.447V329.182H278.493V306.273H203.016V411ZM292.594 306.273V411H320.412V350.045H321.23L344.548 410.182H361.321L384.639 350.455H385.457V411H413.276V306.273H377.889L353.548 365.591H352.321L327.98 306.273H292.594Z" fill="white"/>
</g>
</svg>
