<svg width="433" height="420" viewBox="0 0 433 420" fill="none" xmlns="http://www.w3.org/2000/svg">
<mask id="mask0" mask-type="alpha" maskUnits="userSpaceOnUse" x="0" y="0" width="433" height="420">
<rect width="433" height="420" fill="#1EFE03"/>
</mask>
<g mask="url(#mask0)">
<path d="M102.812 167H131.244V126.091H168.881V167H197.312V62.2727H168.881V103.182H131.244V62.2727H102.812V167ZM238.017 167L244.051 146.955H278.619L284.653 167H315.335L280.767 62.2727H241.903L207.335 167H238.017ZM250.494 125.682L260.926 91.1136H261.744L272.176 125.682H250.494ZM421.558 62.2727H330.126V167H358.149V84.7727H393.535V167H421.558V62.2727ZM175.375 184.273V289H199.102L236.943 233.977H237.557V289H265.989V184.273H241.852L204.625 239.091H203.807V184.273H175.375ZM286.392 184.273V289H419.347V184.273H391.937V267.114H366.983V184.273H339.574V267.114H314.006V184.273H286.392ZM216.016 411H291.288V388.091H244.447V370.091H287.607V347.182H244.447V329.182H291.493V306.273H216.016V411ZM305.594 306.273V411H333.412V350.045H334.23L357.548 410.182H374.321L397.639 350.455H398.457V411H426.276V306.273H390.889L366.548 365.591H365.321L340.98 306.273H305.594Z" fill="white"/>
</g>
</svg>
