<svg width="420" height="420" viewBox="0 0 420 420" fill="none" xmlns="http://www.w3.org/2000/svg">
<mask id="mask0" mask-type="alpha" maskUnits="userSpaceOnUse" x="0" y="0" width="420" height="420">
<rect width="420" height="420" fill="#1EFE03"/>
</mask>
<g mask="url(#mask0)">
<path d="M209.714 67.2727H118.283V172H146.305V89.7727H181.692V172H209.714V67.2727ZM329.361 119.636C329.361 84.6591 306.861 65.8409 278.429 65.8409C249.793 65.8409 227.497 84.6591 227.497 119.636C227.497 154.409 249.793 173.432 278.429 173.432C306.861 173.432 329.361 154.614 329.361 119.636ZM300.111 119.636C300.111 138.455 292.543 148.682 278.429 148.682C264.315 148.682 256.747 138.455 256.747 119.636C256.747 100.818 264.315 90.5909 278.429 90.5909C292.543 90.5909 300.111 100.818 300.111 119.636ZM416.152 67.2727H342.516V172H370.947V90.1818H416.152V67.2727ZM133.828 292H162.26V260.909H178.01C201.891 260.909 217.896 246.847 217.896 224.295C217.896 202 202.3 187.273 179.033 187.273H133.828V292ZM162.26 238.818V209.977H172.283C182.254 209.977 188.237 215.295 188.237 224.295C188.237 233.244 182.254 238.818 172.283 238.818H162.26ZM243.464 293.432H252.055C270.055 293.432 278.442 281.977 284.374 269.091L320.374 187.273H291.737L274.964 229.818L253.078 187.273H224.033L263.305 259.477L262.283 262.545C260.237 269.5 257.578 271.341 248.578 271.341H243.464V293.432ZM370.692 293.432C396.311 293.432 414.362 280.392 414.26 261.932C414.362 249.097 405.771 240.045 388.896 238.205V237.386C401.374 236.057 410.476 228.028 410.374 216.318C410.476 198.676 394.112 185.841 370.896 185.841C347.169 185.841 330.294 199.392 330.192 218.568H357.396C357.499 212.227 363.072 207.727 370.896 207.727C378.055 207.727 383.067 212.074 382.964 218.159C383.067 224.5 377.135 229 368.646 229H358.01V248.636H368.646C377.851 248.636 384.294 253.136 384.192 259.477C384.294 265.972 378.771 270.523 370.896 270.523C362.714 270.523 356.885 266.176 356.783 260.091H328.146C328.249 279.625 345.891 293.432 370.692 293.432ZM188.531 307.273V412H212.259L250.099 356.977H250.713V412H279.145V307.273H255.009L217.781 362.091H216.963V307.273H188.531ZM292.594 307.273V412H320.412V351.045H321.23L344.548 411.182H361.321L384.639 351.455H385.457V412H413.276V307.273H377.889L353.548 366.591H352.321L327.98 307.273H292.594Z" fill="white"/>
</g>
</svg>
