<svg width="148" height="148" viewBox="0 0 148 148" fill="none" xmlns="http://www.w3.org/2000/svg">
<g clip-path="url(#clip0)" filter="url(#filter0_d)">
<path d="M104.575 5H41.2389C37.4915 5 34.4529 8.03861 34.4529 11.786V133.936C34.4529 137.683 37.4915 140.722 41.2389 140.722H104.575C108.324 140.722 111.361 137.683 111.361 133.936V11.786C111.361 8.03861 108.324 5 104.575 5ZM89.8336 9.52429L88.8665 11.786H56.9487L55.9806 9.52429H89.8336ZM106.838 133.936C106.838 135.184 105.825 136.197 104.575 136.197H41.2389C39.9903 136.197 38.9772 135.184 38.9772 133.936V11.786C38.9772 10.5366 39.9903 9.52429 41.2389 9.52429H51.0582L53.38 14.9396C53.7357 15.7714 54.5542 16.3103 55.4586 16.3103H90.3566C91.2609 16.3103 92.0794 15.7714 92.4351 14.9396L94.757 9.52429H104.575C105.825 9.52429 106.838 10.5366 106.838 11.786V133.936Z" fill="white"/>
<path d="M93.266 129.412H52.5492C51.2998 129.412 50.2875 130.425 50.2875 131.673C50.2875 132.923 51.2998 133.936 52.5492 133.936H93.266C94.5145 133.936 95.5277 132.923 95.5277 131.673C95.5277 130.425 94.5145 129.412 93.266 129.412Z" fill="white"/>
<path d="M32.1912 36.668C32.1912 35.4185 31.1781 34.4062 29.9286 34.4062H11.8333C8.085 34.4062 5.04639 37.4449 5.04639 41.1922V104.529C5.04639 108.276 8.085 111.315 11.8333 111.315H29.9286C31.1781 111.315 32.1912 110.302 32.1912 109.053C32.1912 107.804 31.1781 106.79 29.9286 106.79H11.8333C10.5838 106.79 9.57068 105.778 9.57068 104.529V41.1922C9.57068 39.9428 10.5838 38.9297 11.8333 38.9297H29.9286C31.1781 38.9297 32.1912 37.9174 32.1912 36.668Z" fill="white"/>
<path d="M133.982 34.4062H115.886C114.636 34.4062 113.624 35.4185 113.624 36.668C113.624 37.9174 114.636 38.9297 115.886 38.9297H133.982C135.231 38.9297 136.244 39.9428 136.244 41.1922V51.0115L130.828 53.3325C129.997 53.6882 129.458 54.5067 129.458 55.4111V90.309C129.458 91.2143 129.997 92.0327 130.828 92.3876L136.244 94.7094V104.529C136.244 105.778 135.231 106.79 133.982 106.79H115.886C114.636 106.79 113.624 107.804 113.624 109.053C113.624 110.302 114.636 111.315 115.886 111.315H133.982C137.729 111.315 140.768 108.276 140.768 104.529V41.1922C140.768 37.4449 137.729 34.4062 133.982 34.4062ZM133.982 88.8189V56.9012L136.244 55.934V89.787L133.982 88.8189Z" fill="white"/>
<path d="M11.8333 52.5028V93.2188C11.8333 94.4682 12.8455 95.4805 14.095 95.4805C15.3444 95.4805 16.3567 94.4682 16.3567 93.2188V52.5028C16.3567 51.2534 15.3444 50.2402 14.095 50.2402C12.8455 50.2402 11.8333 51.2534 11.8333 52.5028Z" fill="white"/>
<path d="M142.368 21.4966C141.484 20.6144 140.052 20.6144 139.169 21.4966L136.229 24.4493C135.735 16.0724 128.801 9.52972 120.41 9.52441H115.886C114.636 9.52441 113.624 10.5367 113.624 11.7861C113.624 13.0355 114.636 14.0478 115.886 14.0478H120.41C126.235 14.0673 131.088 18.5146 131.614 24.3157L128.795 21.4966C127.907 20.64 126.497 20.6524 125.624 21.5249C124.752 22.3974 124.74 23.8078 125.597 24.6953L132.383 31.4813C132.403 31.5017 132.43 31.5079 132.451 31.5273C132.643 31.7158 132.869 31.8698 133.116 31.9786C133.959 32.3264 134.929 32.1335 135.575 31.4884L142.361 24.7024C142.787 24.2795 143.028 23.7025 143.031 23.1008C143.031 22.5 142.793 21.9222 142.368 21.4966Z" fill="white"/>
<path d="M32.1612 134.082C32.17 134.007 32.1744 133.932 32.1753 133.856C32.1682 133.613 32.1204 133.373 32.0355 133.145C32.0355 133.126 32.0355 133.102 32.0213 133.085C31.9116 132.837 31.7577 132.612 31.5692 132.42C31.5506 132.399 31.5435 132.372 31.5241 132.352L24.7381 125.566C23.8497 124.708 22.4392 124.721 21.5667 125.593C20.6943 126.466 20.6819 127.877 21.5393 128.764L24.3576 131.583C18.5529 131.054 14.1047 126.193 14.095 120.363V115.839C14.095 114.59 13.0818 113.577 11.8333 113.577C10.5838 113.577 9.57068 114.59 9.57068 115.839V120.363C9.58041 128.753 16.1248 135.681 24.5 136.17L21.5588 139.111C20.9712 139.678 20.735 140.519 20.9429 141.31C21.1491 142.102 21.7676 142.72 22.5587 142.926C23.3497 143.134 24.1903 142.897 24.7575 142.31L31.5435 135.524C31.7347 135.327 31.8886 135.096 31.9966 134.844C32.0275 134.772 32.0541 134.695 32.0762 134.618C32.1266 134.444 32.1558 134.265 32.1612 134.082Z" fill="white"/>
<path d="M96.1905 64.4751L92.6785 67.9906C90.2893 58.2616 81.1762 51.7163 71.1932 52.5587C61.2093 53.4028 53.3243 61.3825 52.6014 71.3752C51.8784 81.3679 58.5326 90.4015 68.2908 92.6738C78.0482 94.9443 88.0082 89.7794 91.7724 80.4955C92.106 79.7407 92.0024 78.8638 91.5007 78.209C90.9999 77.5524 90.1832 77.2215 89.3664 77.3454C88.5506 77.4675 87.8666 78.0241 87.5808 78.7983C84.8005 85.7223 77.5704 89.7732 70.2145 88.5273C62.8578 87.2815 57.3637 81.0768 57.0177 73.6236C56.6726 66.1705 61.5677 59.4845 68.7766 57.5626C75.9865 55.6406 83.56 59.004 86.9702 65.6404L85.8057 64.4751C84.9182 63.6185 83.5078 63.63 82.6344 64.5034C81.7619 65.3759 81.7504 66.7863 82.607 67.6739L89.393 74.4598C89.4133 74.4802 89.4408 74.4864 89.4602 74.505C89.654 74.6943 89.8796 74.8474 90.1256 74.9571C90.1442 74.9571 90.1663 74.9571 90.1849 74.9713C90.4123 75.0562 90.6539 75.104 90.8972 75.112C90.9264 75.112 90.9539 75.127 90.9839 75.127C91.0123 75.127 91.0813 75.1031 91.1308 75.0978C91.3184 75.0863 91.5042 75.0509 91.6821 74.9916C91.7591 74.9678 91.8352 74.9403 91.9086 74.9076C92.1608 74.8005 92.3909 74.6465 92.5873 74.4554L99.3733 67.6694C100.231 66.7819 100.218 65.3714 99.3459 64.499C98.4734 63.6256 97.0621 63.6141 96.1745 64.4707L96.1905 64.4751Z" fill="white"/>
</g>
<defs>
<filter id="filter0_d" x="0" y="0" width="148" height="148" filterUnits="userSpaceOnUse" color-interpolation-filters="sRGB">
<feFlood flood-opacity="0" result="BackgroundImageFix"/>
<feColorMatrix in="SourceAlpha" type="matrix" values="0 0 0 0 0 0 0 0 0 0 0 0 0 0 0 0 0 0 127 0" result="hardAlpha"/>
<feOffset/>
<feGaussianBlur stdDeviation="2.5"/>
<feComposite in2="hardAlpha" operator="out"/>
<feColorMatrix type="matrix" values="0 0 0 0 0 0 0 0 0 0 0 0 0 0 0 0 0 0 0.25 0"/>
<feBlend mode="normal" in2="BackgroundImageFix" result="effect1_dropShadow"/>
<feBlend mode="normal" in="SourceGraphic" in2="effect1_dropShadow" result="shape"/>
</filter>
<clipPath id="clip0">
<rect width="138" height="138" fill="white" transform="translate(5 5)"/>
</clipPath>
</defs>
</svg>
