<svg width="420" height="420" viewBox="0 0 420 420" fill="none" xmlns="http://www.w3.org/2000/svg">
<mask id="mask0" mask-type="alpha" maskUnits="userSpaceOnUse" x="0" y="0" width="420" height="420">
<rect width="420" height="420" fill="#1EFE03"/>
</mask>
<g mask="url(#mask0)">
<path d="M207.273 84.5455C205.023 58.5682 186 43.8409 159.614 43.8409C131.386 43.8409 109.091 62.6591 109.091 97.6364C109.091 132.46 130.773 151.432 159.614 151.432C190.295 151.432 205.841 130.159 207.273 112.364L178.432 112.159C177 121.108 170.659 126.682 160.227 126.682C146.369 126.682 138.341 116.864 138.341 97.6364C138.341 79.4318 146.114 68.5909 160.432 68.5909C171.375 68.5909 177.614 75.0341 178.432 84.5455H207.273ZM216.695 175.159H244.104V150H300.149V175.159H327.558V128.114H316.513V45.2727H242.467L238.99 89.6591C236.945 115.227 231.422 123.614 224.058 128.114H216.695V175.159ZM256.581 128.114C261.081 120.341 264.967 108.886 266.399 89.6591L268.036 68.1818H289.104V128.114H256.581ZM337.172 150H412.445V127.091H365.604V109.091H408.763V86.1818H365.604V68.1818H412.649V45.2727H337.172V150ZM201.929 295H208.884C235.474 295 245.497 281.909 247.338 245.295L248.974 212.364H271.27V295H298.679V190.273H222.793L221.156 234.25C220.134 262.273 215.224 271.068 204.793 272.705L201.929 273.114V295ZM339.345 295L345.379 274.955H379.947L385.982 295H416.663L382.095 190.273H343.232L308.663 295H339.345ZM351.822 253.682L362.254 219.114H363.072L373.504 253.682H351.822ZM203.016 420H278.288V397.091H231.447V379.091H274.607V356.182H231.447V338.182H278.493V315.273H203.016V420ZM292.594 315.273V420H320.412V359.045H321.23L344.548 419.182H361.321L384.639 359.455H385.457V420H413.276V315.273H377.889L353.548 374.591H352.321L327.98 315.273H292.594Z" fill="white"/>
</g>
</svg>
