<svg width="798" height="798" viewBox="0 0 798 798" fill="none" xmlns="http://www.w3.org/2000/svg">
<path d="M277.802 534.616L287.847 540.445L297.947 546.328C299.261 547.095 300 548.49 300 549.913V561.653V573.392C300 575.034 299.042 576.43 297.673 577.114L287.82 582.833L277.719 588.716C276.378 589.51 274.763 589.428 273.504 588.689L263.459 582.86L253.359 576.977C252.866 576.703 252.455 576.32 252.127 575.882L259.818 571.148L267.619 575.691L275.667 580.37L283.714 575.691L291.761 571.011V561.653V552.294L283.714 547.615L275.667 542.935L267.619 547.615L263.459 550.023L261.543 548.983L260.256 548.299L260.119 542.388L263.459 540.445L273.559 534.562C274.9 533.768 276.515 533.85 277.774 534.589L277.802 534.616Z" fill="white"/>
<path d="M261.385 551.776L264.56 553.61L267.763 555.47C268.173 555.717 268.42 556.155 268.42 556.592V560.287V563.981C268.42 564.501 268.118 564.939 267.68 565.157L264.56 566.964L261.358 568.824C260.92 569.071 260.427 569.043 260.016 568.824L256.841 566.991L253.639 565.13C253.228 564.884 252.982 564.446 252.982 564.008V560.314V556.62C252.982 556.1 253.283 555.662 253.721 555.443L256.841 553.637L260.044 551.776C260.482 551.53 260.974 551.557 261.385 551.776Z" fill="#BCDB0F"/>
<path d="M245.453 553.608L247.314 554.703L249.203 555.797C249.449 555.934 249.586 556.208 249.586 556.454V558.643V560.832C249.586 561.133 249.422 561.407 249.148 561.516L247.314 562.584L245.425 563.678C245.179 563.815 244.878 563.815 244.632 563.678L242.77 562.584L240.882 561.489C240.635 561.352 240.499 561.079 240.499 560.832V559.902C240.581 559.902 240.663 559.874 240.745 559.82L242.004 559.081L243.236 558.369C243.4 558.287 243.537 558.123 243.537 557.904V556.454V555.004C243.537 554.839 243.455 554.648 243.29 554.566L243.154 554.484L244.659 553.608C244.905 553.471 245.206 553.471 245.453 553.608V553.608Z" fill="#F7B81D"/>
<path d="M249.174 564.635L251.036 565.73L252.924 566.825C253.171 566.961 253.308 567.235 253.308 567.481V569.67V571.86C253.308 572.161 253.143 572.434 252.87 572.544L251.036 573.611L249.147 574.706C248.901 574.842 248.6 574.842 248.353 574.706L246.492 573.611L244.603 572.516C244.357 572.38 244.22 572.106 244.22 571.86V569.67V567.481C244.22 567.18 244.384 566.907 244.658 566.797L246.492 565.73L248.381 564.635C248.627 564.499 248.928 564.499 249.174 564.635V564.635Z" fill="#1FB1DA"/>
<path d="M239.925 563.511L240.856 564.058L241.787 564.605C241.896 564.687 241.978 564.797 241.978 564.934V566.028V567.123C241.978 567.287 241.896 567.397 241.759 567.479L240.856 567.999L239.925 568.546C239.788 568.628 239.652 568.601 239.542 568.546L238.611 567.999L237.681 567.451C237.571 567.369 237.489 567.26 237.489 567.123V566.028V564.934C237.489 564.77 237.571 564.66 237.708 564.578L238.611 564.058L239.542 563.511C239.679 563.429 239.816 563.456 239.925 563.511Z" fill="#BCDB0F"/>
<path d="M235.024 558.043L235.681 558.426L236.338 558.809C236.42 558.863 236.475 558.946 236.475 559.055V559.821V560.587C236.475 560.697 236.42 560.779 236.311 560.834L235.654 561.217L234.997 561.6C234.915 561.655 234.805 561.655 234.723 561.6L234.066 561.217L233.409 560.834C233.327 560.779 233.272 560.697 233.272 560.587V559.821V559.055C233.272 558.946 233.327 558.863 233.437 558.809L234.094 558.426L234.751 558.043C234.833 557.988 234.942 557.988 235.024 558.043Z" fill="#1FB1DA"/>
<path d="M232.861 549.832L233.573 550.242L234.285 550.653C234.367 550.707 234.421 550.789 234.421 550.899V551.72V552.541C234.421 552.65 234.367 552.76 234.257 552.787L233.573 553.197L232.861 553.608C232.779 553.663 232.642 553.663 232.56 553.608L231.849 553.197L231.137 552.787C231.055 552.732 231 552.65 231 552.541V551.72V550.899C231 550.789 231.055 550.68 231.164 550.653L231.849 550.242L232.56 549.832C232.642 549.777 232.779 549.777 232.861 549.832V549.832Z" fill="#F7B81D"/>
<path d="M240.575 553.882L241.506 554.429L242.437 554.976C242.546 555.059 242.628 555.168 242.628 555.305V556.399V557.494C242.628 557.658 242.546 557.768 242.409 557.85L241.506 558.37L240.575 558.917C240.438 558.999 240.302 558.972 240.192 558.917L239.261 558.37L238.331 557.822C238.221 557.74 238.139 557.631 238.139 557.494V556.399V555.305C238.139 555.141 238.221 555.031 238.358 554.949L239.261 554.429L240.192 553.882C240.329 553.8 240.466 553.827 240.575 553.882V553.882Z" fill="#E10567"/>
<path d="M252.323 540.198L254.814 541.648L257.332 543.099C257.661 543.29 257.852 543.646 257.852 544.002V546.93V549.858C257.852 550.268 257.606 550.624 257.277 550.788L254.814 552.211L252.296 553.662C251.967 553.853 251.557 553.853 251.256 553.662L248.765 552.211L246.247 550.761C245.918 550.569 245.727 550.214 245.727 549.858V548.407L245.918 548.517C246.137 548.654 246.383 548.654 246.63 548.517L248.327 547.532L249.969 546.574C250.188 546.465 250.352 546.218 250.352 545.945V543.974V542.032C250.352 541.785 250.216 541.566 249.997 541.43L249.559 541.183L251.283 540.198C251.611 540.007 252.022 540.007 252.323 540.198V540.198Z" fill="#E10567"/>
<path d="M246.522 540.608L247.782 541.347L249.041 542.086C249.205 542.168 249.287 542.36 249.287 542.524V543.974V545.425C249.287 545.616 249.177 545.808 248.986 545.89L247.754 546.601L246.495 547.34C246.331 547.449 246.139 547.422 245.975 547.34L244.716 546.601L243.457 545.862C243.293 545.78 243.21 545.589 243.21 545.425V543.974V542.524C243.21 542.332 243.32 542.141 243.512 542.059L244.743 541.347L246.002 540.608C246.167 540.499 246.358 540.526 246.522 540.608V540.608Z" fill="#1FB1DA"/>
<path d="M240.087 546.275L241.073 546.85L242.085 547.424C242.222 547.506 242.277 547.643 242.277 547.78V548.957V550.133C242.277 550.298 242.195 550.434 242.058 550.516L241.073 551.091L240.06 551.666C239.923 551.748 239.759 551.748 239.649 551.666L238.664 551.091L237.651 550.516C237.514 550.434 237.459 550.298 237.459 550.161V548.984V547.807C237.459 547.643 237.542 547.506 237.678 547.452L238.664 546.877L239.677 546.302C239.813 546.22 239.978 546.22 240.087 546.302V546.275Z" fill="#BCDB0F"/>
<path d="M195.918 215.364V229.085C195.897 239.227 203.567 244.085 215.094 244.085C215.627 244.085 219.036 243.957 221.486 243.702V259H232.992V215.364H221.486V234.689C219.228 234.881 216.095 234.966 215.094 234.966C209.192 234.966 207.338 233.176 207.338 229.085V215.364H195.918ZM239.698 235.051H249.925V259H261.005V235.051H271.403V226.273H239.698V235.051ZM290.659 259.597C301.312 259.597 307.619 252.778 307.619 242.722C307.619 232.665 301.312 225.847 290.659 225.847C280.005 225.847 273.698 232.665 273.698 242.722C273.698 252.778 280.005 259.597 290.659 259.597ZM290.744 250.903C287.591 250.903 285.716 247.771 285.716 242.636C285.716 237.501 287.591 234.369 290.744 234.369C293.727 234.369 295.602 237.501 295.602 242.636C295.602 247.771 293.727 250.903 290.744 250.903ZM322.385 268.716H333.805V259H351.021V268.716H362.1V250.136H356.987V226.273H329.032L328.35 235.477C328.01 240.08 327.754 248.943 324.771 250.136H322.385V268.716ZM336.021 250.136C337.725 247.068 338.407 242.551 338.748 235.477V234.795H346.078V250.136H336.021ZM382.155 259.597C391.232 259.597 397.07 255.25 398.178 248.432H387.44C386.758 250.286 384.819 251.33 382.411 251.33C378.917 251.33 376.871 249.028 376.871 245.875V245.364H398.178V242.636C398.178 232.217 391.786 225.847 381.9 225.847C371.758 225.847 365.28 232.58 365.28 242.722C365.28 253.311 371.673 259.597 382.155 259.597ZM376.871 238.886C376.935 236.053 379.279 234.114 382.155 234.114C385.075 234.114 387.29 236.074 387.354 238.886H376.871ZM401.699 259H405.108C411.841 259 416.614 255.08 417.211 243.915L417.722 235.051H423.176V259H434.256V226.273H407.324L406.813 240.761C406.557 247.239 405.193 250.136 402.637 250.136H401.614L401.699 259ZM449.011 259.511C453.272 259.511 456.49 258.062 458.471 254.398H458.727V259H469.721V236.585C469.721 230.534 463.99 225.847 454.636 225.847C444.856 225.847 440.041 230.96 439.636 236.926H450.46C450.737 234.902 452.228 233.943 454.466 233.943C456.511 233.943 457.96 234.881 457.96 236.585V236.67C457.96 238.567 455.872 239.163 450.375 239.568C443.62 240.058 438.358 242.786 438.358 249.966C438.358 256.486 442.747 259.511 449.011 259.511ZM452.846 252.097C450.843 252.097 449.437 251.116 449.437 249.284C449.437 247.601 450.63 246.301 453.358 245.875C455.233 245.577 456.809 245.193 458.045 244.682V247.409C458.045 250.392 455.51 252.097 452.846 252.097ZM491.023 259.597C500.099 259.597 505.937 255.25 507.045 248.432H496.307C495.625 250.286 493.686 251.33 491.278 251.33C487.784 251.33 485.739 249.028 485.739 245.875V245.364H507.045V242.636C507.045 232.217 500.653 225.847 490.767 225.847C480.625 225.847 474.148 232.58 474.148 242.722C474.148 253.311 480.54 259.597 491.023 259.597ZM485.739 238.886C485.803 236.053 488.146 234.114 491.023 234.114C493.942 234.114 496.158 236.074 496.222 238.886H485.739ZM532.129 246.812L525.311 226.273H511.845V259H522.924V243.233L528.464 259H535.794L542.1 241.571V259H553.01V226.273H539.288L532.129 246.812ZM567.269 245.364H577.326V244.341C577.326 240.953 578.924 239.249 582.013 237.438C586.168 235.009 589.002 231.962 589.002 226.784C589.002 218.773 582.248 214.767 573.15 214.767C564.861 214.767 557.979 218.688 557.894 228.062H568.803C568.803 225.612 570.763 223.886 573.065 223.886C575.195 223.886 576.9 225.335 576.9 227.466C576.9 229.852 574.833 231.322 572.127 233.091C568.952 235.158 567.269 237.331 567.269 244.341V245.364ZM572.468 259.682C575.6 259.682 578.391 257.04 578.434 253.716C578.391 250.477 575.6 247.835 572.468 247.835C569.165 247.835 566.459 250.477 566.502 253.716C566.459 257.04 569.165 259.682 572.468 259.682ZM241.174 318L243.688 309.648H258.091L260.605 318H273.39L258.986 274.364H242.793L228.39 318H241.174ZM246.372 300.784L250.719 286.381H251.06L255.407 300.784H246.372ZM306.91 273.426C305.27 274.406 302.436 274.385 298.643 274.364C298.132 274.364 297.578 274.364 297.024 274.364C283.814 274.364 276.74 281.736 276.74 298.312V300.443C276.74 312.205 283.047 318.597 293.7 318.597C304.354 318.597 310.66 312.226 310.66 302.403C310.66 293.327 305.249 287.403 296.428 287.403C290.675 287.403 287.564 289.96 285.774 293.881H285.518C286.371 286.125 289.354 283.653 297.45 283.653C304.609 283.653 307.166 283.142 309.808 281.267L306.91 273.426ZM293.785 309.903C290.632 309.903 288.757 307.347 288.757 302.915C288.757 298.398 290.632 295.841 293.785 295.841C296.768 295.841 298.643 298.398 298.643 302.915C298.643 307.347 296.768 309.903 293.785 309.903ZM326.694 294.136V285.273H315.614V318H332.234C341.566 318 347.276 313.547 347.319 306.239C347.276 298.717 341.566 294.136 332.234 294.136H326.694ZM349.705 318H361.467V285.273H349.705V318ZM326.694 302.915H332.234C334.641 302.915 336.367 304.257 336.41 306.153C336.367 307.943 334.641 309.222 332.234 309.222H326.694V302.915ZM409.876 285.273H398.881V300.23C398.008 300.379 397.198 300.443 396.41 300.443C391.126 300.443 390.273 299.847 390.273 296.864V285.273H379.364V296.864C379.364 305.727 385.671 309.222 396.41 309.222C397.049 309.222 397.944 309.136 398.881 309.009V318H409.876V285.273ZM413.018 294.051H423.246V318H434.325V294.051H444.723V285.273H413.018V294.051ZM463.979 318.597C474.632 318.597 480.939 311.778 480.939 301.722C480.939 291.665 474.632 284.847 463.979 284.847C453.326 284.847 447.019 291.665 447.019 301.722C447.019 311.778 453.326 318.597 463.979 318.597ZM464.064 309.903C460.911 309.903 459.036 306.771 459.036 301.636C459.036 296.501 460.911 293.369 464.064 293.369C467.047 293.369 468.922 296.501 468.922 301.636C468.922 306.771 467.047 309.903 464.064 309.903ZM508.745 285.273H497.665V318H508.745V305.898H516.926V318H527.921V285.273H516.926V297.119H508.745V285.273ZM549.206 318.597C558.283 318.597 564.121 314.25 565.229 307.432H554.49C553.809 309.286 551.87 310.33 549.462 310.33C545.968 310.33 543.922 308.028 543.922 304.875V304.364H565.229V301.636C565.229 291.217 558.837 284.847 548.951 284.847C538.809 284.847 532.331 291.58 532.331 301.722C532.331 312.311 538.723 318.597 549.206 318.597ZM543.922 297.886C543.986 295.053 546.33 293.114 549.206 293.114C552.125 293.114 554.341 295.074 554.405 297.886H543.922ZM271.525 386.716H282.946V377H300.162V386.716H311.241V368.136H306.127V344.273H278.173L277.491 353.477C277.15 358.08 276.894 366.943 273.912 368.136H271.525V386.716ZM285.162 368.136C286.866 365.068 287.548 360.551 287.889 353.477V352.795H295.218V368.136H285.162ZM331.296 377.597C340.373 377.597 346.211 373.25 347.319 366.432H336.58C335.898 368.286 333.959 369.33 331.552 369.33C328.057 369.33 326.012 367.028 326.012 363.875V363.364H347.319V360.636C347.319 350.217 340.927 343.847 331.04 343.847C320.898 343.847 314.421 350.58 314.421 360.722C314.421 371.311 320.813 377.597 331.296 377.597ZM326.012 356.886C326.076 354.053 328.42 352.114 331.296 352.114C334.215 352.114 336.431 354.074 336.495 356.886H326.012ZM350.84 377H354.249C360.982 377 365.755 373.08 366.351 361.915L366.863 353.051H372.317V377H383.397V344.273H356.465L355.953 358.761C355.698 365.239 354.334 368.136 351.777 368.136H350.755L350.84 377ZM398.152 377.511C402.413 377.511 405.63 376.062 407.612 372.398H407.867V377H418.862V354.585C418.862 348.534 413.13 343.847 403.777 343.847C393.997 343.847 389.181 348.96 388.777 354.926H399.6C399.877 352.902 401.369 351.943 403.606 351.943C405.652 351.943 407.1 352.881 407.1 354.585V354.67C407.1 356.567 405.012 357.163 399.515 357.568C392.761 358.058 387.498 360.786 387.498 367.966C387.498 374.486 391.887 377.511 398.152 377.511ZM401.987 370.097C399.984 370.097 398.578 369.116 398.578 367.284C398.578 365.601 399.771 364.301 402.498 363.875C404.373 363.577 405.95 363.193 407.186 362.682V365.409C407.186 368.392 404.65 370.097 401.987 370.097ZM440.163 377.597C449.24 377.597 455.078 373.25 456.186 366.432H445.447C444.766 368.286 442.827 369.33 440.419 369.33C436.925 369.33 434.879 367.028 434.879 363.875V363.364H456.186V360.636C456.186 350.217 449.794 343.847 439.908 343.847C429.766 343.847 423.288 350.58 423.288 360.722C423.288 371.311 429.68 377.597 440.163 377.597ZM434.879 356.886C434.943 354.053 437.287 352.114 440.163 352.114C443.082 352.114 445.298 354.074 445.362 356.886H434.879ZM481.269 364.812L474.451 344.273H460.985V377H472.065V361.233L477.605 377H484.934L491.241 359.571V377H502.15V344.273H488.429L481.269 364.812ZM514.194 377.682C517.326 377.682 520.117 375.04 520.16 371.716C520.117 368.477 517.326 365.835 514.194 365.835C510.891 365.835 508.185 368.477 508.228 371.716C508.185 375.04 510.891 377.682 514.194 377.682Z" fill="white"/>
<path d="M181.253 461H197.616V450.773C197.574 443.784 199.278 438.67 202.219 433.727L192.503 428.784C187.176 433.216 181.21 442.42 181.253 450.773V461ZM202.56 461H218.923V450.773C218.881 443.784 220.585 438.67 223.526 433.727L213.81 428.784C208.483 433.216 202.517 442.42 202.56 450.773V461Z" fill="white"/>
<path d="M238.585 444H243.494C246.307 444 247.841 442.415 247.841 440.139C247.841 437.864 246.307 436.406 243.494 436.406H240.17V432.315H246.486V430.909H238.585V444ZM240.17 442.619V437.812H243.494C245.284 437.812 246.281 438.861 246.281 440.114C246.281 441.392 245.284 442.619 243.494 442.619H240.17ZM254.362 444.205C256.357 444.205 257.814 443.207 258.274 441.724L256.817 441.315C256.433 442.338 255.545 442.849 254.362 442.849C252.592 442.849 251.371 441.705 251.301 439.602H258.428V438.963C258.428 435.307 256.254 434.054 254.209 434.054C251.55 434.054 249.786 436.151 249.786 439.168C249.786 442.185 251.524 444.205 254.362 444.205ZM251.301 438.298C251.403 436.771 252.483 435.409 254.209 435.409C255.845 435.409 256.894 436.636 256.894 438.298H251.301ZM264.711 444.205C266.884 444.205 268.316 442.875 268.572 441.136H267.063C266.782 442.21 265.887 442.849 264.711 442.849C262.921 442.849 261.771 441.366 261.771 439.091C261.771 436.866 262.947 435.409 264.711 435.409C266.041 435.409 266.833 436.227 267.063 437.122H268.572C268.316 435.281 266.757 434.054 264.686 434.054C262.026 434.054 260.262 436.151 260.262 439.142C260.262 442.082 261.95 444.205 264.711 444.205ZM270.777 444H272.286V439.858H273.641L276.862 444H278.806L274.791 438.912L278.754 434.182H276.811L273.283 438.452H272.286V434.182H270.777V444ZM284.029 444.205C286.689 444.205 288.478 442.185 288.478 439.142C288.478 436.074 286.689 434.054 284.029 434.054C281.37 434.054 279.581 436.074 279.581 439.142C279.581 442.185 281.37 444.205 284.029 444.205ZM284.029 442.849C282.01 442.849 281.089 441.111 281.089 439.142C281.089 437.173 282.01 435.409 284.029 435.409C286.049 435.409 286.97 437.173 286.97 439.142C286.97 441.111 286.049 442.849 284.029 442.849ZM292.29 434.182H290.781V444H292.29V439.807H296.994V444H298.503V434.182H296.994V438.401H292.29V434.182ZM305.374 444.205C307.368 444.205 308.826 443.207 309.286 441.724L307.829 441.315C307.445 442.338 306.557 442.849 305.374 442.849C303.604 442.849 302.383 441.705 302.312 439.602H309.439V438.963C309.439 435.307 307.266 434.054 305.221 434.054C302.562 434.054 300.797 436.151 300.797 439.168C300.797 442.185 302.536 444.205 305.374 444.205ZM302.312 438.298C302.415 436.771 303.495 435.409 305.221 435.409C306.857 435.409 307.905 436.636 307.905 438.298H302.312ZM319.302 434.182H317.794V439.161C317.065 439.372 316.317 439.5 315.416 439.5C314.189 439.5 313.243 438.81 313.243 437.301V434.156H311.734V437.301C311.734 439.705 313.192 440.906 315.416 440.906C316.343 440.906 317.084 440.785 317.794 440.574V444H319.302V434.182ZM323.579 434.182H322.07V444H323.579V439.807H328.283V444H329.792V434.182H328.283V438.401H323.579V434.182ZM336.535 444.205C339.194 444.205 340.984 442.185 340.984 439.142C340.984 436.074 339.194 434.054 336.535 434.054C333.876 434.054 332.086 436.074 332.086 439.142C332.086 442.185 333.876 444.205 336.535 444.205ZM336.535 442.849C334.515 442.849 333.595 441.111 333.595 439.142C333.595 437.173 334.515 435.409 336.535 435.409C338.555 435.409 339.476 437.173 339.476 439.142C339.476 441.111 338.555 442.849 336.535 442.849ZM353.719 441.955L350.344 434.182H348.349V444H349.858V436.349L353.105 444H354.332L357.58 436.489V444H359.088V434.182H357.145L353.719 441.955ZM365.838 444.205C368.497 444.205 370.287 442.185 370.287 439.142C370.287 436.074 368.497 434.054 365.838 434.054C363.179 434.054 361.389 436.074 361.389 439.142C361.389 442.185 363.179 444.205 365.838 444.205ZM365.838 442.849C363.818 442.849 362.898 441.111 362.898 439.142C362.898 437.173 363.818 435.409 365.838 435.409C367.858 435.409 368.778 437.173 368.778 439.142C368.778 441.111 367.858 442.849 365.838 442.849ZM371.572 444H373.387L376.737 439.781H377.504V444H379.012V439.781H379.779L383.103 444H384.918L380.955 439.014L384.867 434.182H383.077L379.805 438.375H379.012V434.182H377.504V438.375H376.685L373.413 434.182H371.623L375.56 439.014L371.572 444ZM388.583 434.182H387.074V444H388.583V439.807H393.287V444H394.796V434.182H393.287V438.401H388.583V434.182ZM401.539 444.205C404.198 444.205 405.988 442.185 405.988 439.142C405.988 436.074 404.198 434.054 401.539 434.054C398.88 434.054 397.09 436.074 397.09 439.142C397.09 442.185 398.88 444.205 401.539 444.205ZM401.539 442.849C399.519 442.849 398.599 441.111 398.599 439.142C398.599 437.173 399.519 435.409 401.539 435.409C403.559 435.409 404.48 437.173 404.48 439.142C404.48 441.111 403.559 442.849 401.539 442.849ZM417.342 444.205C419.515 444.205 420.947 442.875 421.203 441.136H419.694C419.413 442.21 418.518 442.849 417.342 442.849C415.552 442.849 414.402 441.366 414.402 439.091C414.402 436.866 415.578 435.409 417.342 435.409C418.672 435.409 419.464 436.227 419.694 437.122H421.203C420.947 435.281 419.387 434.054 417.316 434.054C414.657 434.054 412.893 436.151 412.893 439.142C412.893 442.082 414.581 444.205 417.342 444.205ZM428.777 441.955L425.402 434.182H423.408V444H424.917V436.349L428.164 444H429.391L432.638 436.489V444H434.147V434.182H432.203L428.777 441.955ZM440.897 444.205C443.556 444.205 445.346 442.185 445.346 439.142C445.346 436.074 443.556 434.054 440.897 434.054C438.238 434.054 436.448 436.074 436.448 439.142C436.448 442.185 438.238 444.205 440.897 444.205ZM440.897 442.849C438.877 442.849 437.956 441.111 437.956 439.142C437.956 437.173 438.877 435.409 440.897 435.409C442.917 435.409 443.837 437.173 443.837 439.142C443.837 441.111 442.917 442.849 440.897 442.849ZM446.365 435.588H449.612V444H451.121V435.588H454.342V434.182H446.365V435.588ZM456.543 447.682H458.051V442.491H458.179C458.512 443.028 459.151 444.205 461.043 444.205C463.497 444.205 465.21 442.236 465.21 439.116C465.21 436.023 463.497 434.054 461.017 434.054C459.1 434.054 458.512 435.23 458.179 435.741H458V434.182H456.543V447.682ZM458.026 439.091C458.026 436.892 458.997 435.409 460.838 435.409C462.756 435.409 463.702 437.02 463.702 439.091C463.702 441.188 462.73 442.849 460.838 442.849C459.023 442.849 458.026 441.315 458.026 439.091ZM471.628 444.205C473.622 444.205 475.08 443.207 475.54 441.724L474.083 441.315C473.699 442.338 472.811 442.849 471.628 442.849C469.857 442.849 468.637 441.705 468.566 439.602H475.693V438.963C475.693 435.307 473.52 434.054 471.475 434.054C468.816 434.054 467.051 436.151 467.051 439.168C467.051 442.185 468.79 444.205 471.628 444.205ZM468.566 438.298C468.669 436.771 469.749 435.409 471.475 435.409C473.111 435.409 474.159 436.636 474.159 438.298H468.566ZM477.074 435.588H480.321V444H481.83V435.588H485.051V434.182H477.074V435.588ZM488.76 437.736V434.182H487.252V444H491.368C493.669 444 494.922 442.594 494.922 440.83C494.922 439.04 493.669 437.736 491.368 437.736H488.76ZM488.76 439.142H491.368C492.564 439.142 493.414 439.871 493.414 440.906C493.414 441.897 492.564 442.594 491.368 442.594H488.76V439.142ZM503.79 434.182H502.281V444H503.79V439.807H508.494V444H510.003V434.182H508.494V438.401H503.79V434.182ZM515.647 444.23C517.36 444.23 518.255 443.31 518.562 442.67H518.638V444H520.147V437.531C520.147 434.412 517.769 434.054 516.516 434.054C515.033 434.054 513.346 434.565 512.579 436.355L514.01 436.866C514.343 436.151 515.129 435.384 516.567 435.384C517.954 435.384 518.638 436.119 518.638 437.378V437.429C518.638 438.158 517.897 438.094 516.107 438.324C514.285 438.56 512.297 438.963 512.297 441.213C512.297 443.131 513.78 444.23 515.647 444.23ZM515.877 442.875C514.675 442.875 513.806 442.338 513.806 441.29C513.806 440.139 514.854 439.781 516.03 439.628C516.67 439.551 518.383 439.372 518.638 439.065V440.446C518.638 441.673 517.667 442.875 515.877 442.875ZM527.4 435.588H530.647V444H532.156V435.588H535.377V434.182H527.4V435.588ZM537.578 447.682H539.086V442.491H539.214C539.547 443.028 540.186 444.205 542.078 444.205C544.532 444.205 546.246 442.236 546.246 439.116C546.246 436.023 544.532 434.054 542.052 434.054C540.135 434.054 539.547 435.23 539.214 435.741H539.035V434.182H537.578V447.682ZM539.061 439.091C539.061 436.892 540.032 435.409 541.873 435.409C543.791 435.409 544.737 437.02 544.737 439.091C544.737 441.188 543.765 442.849 541.873 442.849C540.058 442.849 539.061 441.315 539.061 439.091ZM550.055 441.776V434.182H548.547V444H550.311L555.015 436.406V444H556.524V434.182H554.785L550.055 441.776ZM564.349 444H568.977C570.972 444 572.173 442.875 572.173 441.366C572.173 439.826 571.004 438.995 569.923 438.835C571.029 438.605 571.815 437.985 571.815 436.79C571.815 435.224 570.473 434.182 568.364 434.182H564.349V444ZM565.781 442.619V439.602H568.977C570.013 439.602 570.639 440.222 570.639 441.239C570.639 442.095 570.013 442.619 568.977 442.619H565.781ZM565.781 438.298V435.562H568.364C569.572 435.562 570.307 436.067 570.307 436.892C570.307 437.768 569.572 438.298 568.364 438.298H565.781ZM578.573 444.205C580.568 444.205 582.025 443.207 582.485 441.724L581.028 441.315C580.644 442.338 579.756 442.849 578.573 442.849C576.803 442.849 575.582 441.705 575.512 439.602H582.639V438.963C582.639 435.307 580.465 434.054 578.42 434.054C575.761 434.054 573.997 436.151 573.997 439.168C573.997 442.185 575.735 444.205 578.573 444.205ZM575.512 438.298C575.614 436.771 576.694 435.409 578.42 435.409C580.056 435.409 581.105 436.636 581.105 438.298H575.512ZM598.331 442.594H596.874V434.182H595.365V442.594H591.658V434.182H590.149V442.594H586.442V434.182H584.933V444H596.593V446.812H598.152L598.331 442.594ZM602.034 441.776V434.182H600.525V444H602.289L606.994 436.406V444H608.502V434.182H606.764L602.034 441.776ZM612.365 444.102C612.998 444.102 613.515 443.585 613.515 442.952C613.515 442.319 612.998 441.801 612.365 441.801C611.732 441.801 611.214 442.319 611.214 442.952C611.214 443.585 611.732 444.102 612.365 444.102ZM612.365 436.815C612.998 436.815 613.515 436.298 613.515 435.665C613.515 435.032 612.998 434.514 612.365 434.514C611.732 434.514 611.214 435.032 611.214 435.665C611.214 436.298 611.732 436.815 612.365 436.815ZM244.44 458.182H238.381V468H239.889V459.588H244.44V458.182ZM250.121 468.205C252.78 468.205 254.57 466.185 254.57 463.142C254.57 460.074 252.78 458.054 250.121 458.054C247.462 458.054 245.672 460.074 245.672 463.142C245.672 466.185 247.462 468.205 250.121 468.205ZM250.121 466.849C248.101 466.849 247.181 465.111 247.181 463.142C247.181 461.173 248.101 459.409 250.121 459.409C252.141 459.409 253.062 461.173 253.062 463.142C253.062 465.111 252.141 466.849 250.121 466.849ZM256.873 471.682H258.381V466.491H258.509C258.842 467.028 259.481 468.205 261.373 468.205C263.827 468.205 265.54 466.236 265.54 463.116C265.54 460.023 263.827 458.054 261.347 458.054C259.43 458.054 258.842 459.23 258.509 459.741H258.33V458.182H256.873V471.682ZM258.356 463.091C258.356 460.892 259.327 459.409 261.168 459.409C263.086 459.409 264.032 461.02 264.032 463.091C264.032 465.188 263.06 466.849 261.168 466.849C259.353 466.849 258.356 465.315 258.356 463.091ZM273.748 468H275.18V458.182H271.14C269.024 458.182 267.739 459.288 267.739 461.097C267.739 462.445 268.417 463.404 269.599 463.807L267.202 468H268.839L271.114 464.011H273.748V468ZM273.748 462.605H270.961C269.893 462.605 269.248 462.036 269.248 461.097C269.248 460.144 269.964 459.562 271.14 459.562H273.748V462.605ZM291.347 466.594H289.889V458.182H288.381V466.594H284.673V458.182H283.165V466.594H279.458V458.182H277.949V468H289.608V470.812H291.168L291.347 466.594ZM295.049 465.776V458.182H293.541V468H295.305L300.01 460.406V468H301.518V458.182H299.779L295.049 465.776ZM305.79 465.776V458.182H304.281V468H306.045L310.75 460.406V468H312.258V458.182H310.52L305.79 465.776ZM309.523 454.909C309.523 455.574 309.165 456.162 308.27 456.162C307.375 456.162 307.042 455.574 307.042 454.909H305.636C305.636 456.29 306.659 457.261 308.27 457.261C309.906 457.261 310.929 456.29 310.929 454.909H309.523ZM324.072 468.205C326.732 468.205 328.521 466.185 328.521 463.142C328.521 460.074 326.732 458.054 324.072 458.054C321.413 458.054 319.624 460.074 319.624 463.142C319.624 466.185 321.413 468.205 324.072 468.205ZM324.072 466.849C322.053 466.849 321.132 465.111 321.132 463.142C321.132 461.173 322.053 459.409 324.072 459.409C326.092 459.409 327.013 461.173 327.013 463.142C327.013 465.111 326.092 466.849 324.072 466.849ZM336.884 458.182H330.824V468H332.333V459.588H336.884V458.182ZM342.565 468.205C345.224 468.205 347.013 466.185 347.013 463.142C347.013 460.074 345.224 458.054 342.565 458.054C339.906 458.054 338.116 460.074 338.116 463.142C338.116 466.185 339.906 468.205 342.565 468.205ZM342.565 466.849C340.545 466.849 339.624 465.111 339.624 463.142C339.624 461.173 340.545 459.409 342.565 459.409C344.585 459.409 345.505 461.173 345.505 463.142C345.505 465.111 344.585 466.849 342.565 466.849ZM350.825 458.182H349.316V468H350.825V463.807H355.529V468H357.038V458.182H355.529V462.401H350.825V458.182ZM361.301 461.736V458.182H359.793V468H363.909C366.21 468 367.463 466.594 367.463 464.83C367.463 463.04 366.21 461.736 363.909 461.736H361.301ZM361.301 463.142H363.909C365.105 463.142 365.955 463.871 365.955 464.906C365.955 465.897 365.105 466.594 363.909 466.594H361.301V463.142ZM372.01 466.21H370.373L370.297 466.926C370.111 468.658 369.747 470.384 369.581 471.196H370.731C371.038 470.327 371.69 468.358 371.907 466.901L372.01 466.21ZM387.154 454.5C386.675 454.903 385.959 454.903 384.955 454.896C384.629 454.896 384.271 454.896 383.881 454.909C380.89 454.986 379.407 457.261 379.407 461.634V462.682C379.407 466.312 381.171 468.205 383.805 468.205C386.432 468.205 388.177 466.3 388.177 463.219C388.177 460.125 386.406 458.489 384.111 458.489C382.763 458.489 381.503 459.051 380.839 460.278H380.711C380.915 457.747 381.861 456.392 383.907 456.315C385.722 456.239 387.026 456.29 387.921 455.42L387.154 454.5ZM383.805 466.849C382.015 466.849 380.915 465.418 380.915 463.219C380.947 461.071 382.028 459.844 383.779 459.844C385.575 459.844 386.668 461.071 386.668 463.219C386.668 465.43 385.581 466.849 383.805 466.849ZM394.601 468.205C396.595 468.205 398.052 467.207 398.513 465.724L397.055 465.315C396.672 466.338 395.783 466.849 394.601 466.849C392.83 466.849 391.609 465.705 391.539 463.602H398.666V462.963C398.666 459.307 396.493 458.054 394.447 458.054C391.788 458.054 390.024 460.151 390.024 463.168C390.024 466.185 391.763 468.205 394.601 468.205ZM391.539 462.298C391.641 460.771 392.721 459.409 394.447 459.409C396.084 459.409 397.132 460.636 397.132 462.298H391.539ZM407.02 458.182H400.961V468H402.469V459.588H407.02V458.182ZM410.194 471.682C411.556 471.682 412.514 470.96 413.083 469.432L417.264 458.207L415.615 458.182L412.904 466.006H412.802L410.092 458.182H408.455L412.086 468.051L411.805 468.818C411.255 470.314 410.578 470.455 409.478 470.173L409.095 471.503C409.248 471.58 409.683 471.682 410.194 471.682ZM432.657 466.594H431.2V458.182H429.691V466.594H425.984V458.182H424.475V466.594H420.768V458.182H419.26V468H430.919V470.812H432.478L432.657 466.594ZM435.823 471.682C437.184 471.682 438.143 470.96 438.712 469.432L442.893 458.207L441.243 458.182L438.533 466.006H438.431L435.721 458.182H434.084L437.715 468.051L437.434 468.818C436.884 470.314 436.206 470.455 435.107 470.173L434.724 471.503C434.877 471.58 435.312 471.682 435.823 471.682ZM445.681 458.182H444.173V468H445.681V463.884H448.2C448.468 466.511 450.175 468.205 452.61 468.205C455.269 468.205 457.059 466.185 457.059 463.142C457.059 460.074 455.269 458.054 452.61 458.054C450.149 458.054 448.43 459.786 448.193 462.477H445.681V458.182ZM452.61 466.849C450.59 466.849 449.67 465.111 449.67 463.142C449.67 461.173 450.59 459.409 452.61 459.409C454.63 459.409 455.55 461.173 455.55 463.142C455.55 465.111 454.63 466.849 452.61 466.849ZM464.576 468H469.204C471.198 468 472.4 466.875 472.4 465.366C472.4 463.826 471.23 462.995 470.15 462.835C471.256 462.605 472.042 461.985 472.042 460.79C472.042 459.224 470.7 458.182 468.59 458.182H464.576V468ZM466.008 466.619V463.602H469.204C470.239 463.602 470.866 464.222 470.866 465.239C470.866 466.095 470.239 466.619 469.204 466.619H466.008ZM466.008 462.298V459.562H468.59C469.798 459.562 470.533 460.067 470.533 460.892C470.533 461.768 469.798 462.298 468.59 462.298H466.008ZM478.672 468.205C481.331 468.205 483.121 466.185 483.121 463.142C483.121 460.074 481.331 458.054 478.672 458.054C476.013 458.054 474.223 460.074 474.223 463.142C474.223 466.185 476.013 468.205 478.672 468.205ZM478.672 466.849C476.652 466.849 475.732 465.111 475.732 463.142C475.732 461.173 476.652 459.409 478.672 459.409C480.692 459.409 481.612 461.173 481.612 463.142C481.612 465.111 480.692 466.849 478.672 466.849ZM484.375 470.812H485.884V468H493.145V470.812H494.654V466.594H493.145V458.182H486.907L486.574 462.068C486.338 464.817 485.986 465.763 485.194 466.594H484.375V470.812ZM486.907 466.594C487.597 465.686 487.846 464.12 488.057 462.068L488.313 459.588H491.637V466.594H486.907ZM497.628 471.682C498.989 471.682 499.948 470.96 500.517 469.432L504.697 458.207L503.048 458.182L500.338 466.006H500.236L497.525 458.182H495.889L499.52 468.051L499.238 468.818C498.689 470.314 498.011 470.455 496.912 470.173L496.528 471.503C496.682 471.58 497.116 471.682 497.628 471.682ZM513.264 465.776V458.182H511.756V468H513.52L518.224 460.406V468H519.733V458.182H517.994L513.264 465.776ZM529.067 458.182H527.558V468H529.067V463.807H533.771V468H535.28V458.182H533.771V462.401H529.067V458.182ZM540.924 468.23C542.637 468.23 543.532 467.31 543.839 466.67H543.916V468H545.424V461.531C545.424 458.412 543.046 458.054 541.794 458.054C540.311 458.054 538.623 458.565 537.856 460.355L539.288 460.866C539.62 460.151 540.406 459.384 541.845 459.384C543.232 459.384 543.916 460.119 543.916 461.378V461.429C543.916 462.158 543.174 462.094 541.384 462.324C539.563 462.56 537.575 462.963 537.575 465.213C537.575 467.131 539.058 468.23 540.924 468.23ZM541.154 466.875C539.953 466.875 539.083 466.338 539.083 465.29C539.083 464.139 540.132 463.781 541.308 463.628C541.947 463.551 543.66 463.372 543.916 463.065V464.446C543.916 465.673 542.944 466.875 541.154 466.875ZM242.369 492.205C245.028 492.205 246.818 490.185 246.818 487.142C246.818 484.074 245.028 482.054 242.369 482.054C239.71 482.054 237.92 484.074 237.92 487.142C237.92 490.185 239.71 492.205 242.369 492.205ZM242.369 490.849C240.349 490.849 239.429 489.111 239.429 487.142C239.429 485.173 240.349 483.409 242.369 483.409C244.389 483.409 245.31 485.173 245.31 487.142C245.31 489.111 244.389 490.849 242.369 490.849ZM248.103 492H249.918L253.268 487.781H254.035V492H255.543V487.781H256.31L259.634 492H261.45L257.487 487.014L261.398 482.182H259.609L256.336 486.375H255.543V482.182H254.035V486.375H253.217L249.944 482.182H248.154L252.092 487.014L248.103 492ZM265.114 489.776V482.182H263.605V492H265.369L270.074 484.406V492H271.583V482.182H269.844L265.114 489.776ZM273.297 494.812H274.806V492H282.067V494.812H283.576V490.594H282.067V482.182H275.828L275.496 486.068C275.26 488.817 274.908 489.763 274.115 490.594H273.297V494.812ZM275.828 490.594C276.519 489.686 276.768 488.12 276.979 486.068L277.235 483.588H280.559V490.594H275.828ZM288.467 492.23C290.18 492.23 291.075 491.31 291.382 490.67H291.459V492H292.967V485.531C292.967 482.412 290.589 482.054 289.336 482.054C287.854 482.054 286.166 482.565 285.399 484.355L286.831 484.866C287.163 484.151 287.949 483.384 289.388 483.384C290.775 483.384 291.459 484.119 291.459 485.378V485.429C291.459 486.158 290.717 486.094 288.927 486.324C287.106 486.56 285.118 486.963 285.118 489.213C285.118 491.131 286.601 492.23 288.467 492.23ZM288.697 490.875C287.496 490.875 286.626 490.338 286.626 489.29C286.626 488.139 287.675 487.781 288.851 487.628C289.49 487.551 291.203 487.372 291.459 487.065V488.446C291.459 489.673 290.487 490.875 288.697 490.875ZM299.837 492.205C301.831 492.205 303.289 491.207 303.749 489.724L302.292 489.315C301.908 490.338 301.02 490.849 299.837 490.849C298.066 490.849 296.846 489.705 296.775 487.602H303.902V486.963C303.902 483.307 301.729 482.054 299.684 482.054C297.025 482.054 295.26 484.151 295.26 487.168C295.26 490.185 296.999 492.205 299.837 492.205ZM296.775 486.298C296.877 484.771 297.958 483.409 299.684 483.409C301.32 483.409 302.368 484.636 302.368 486.298H296.775ZM311.566 489.955L308.191 482.182H306.197V492H307.706V484.349L310.953 492H312.18L315.427 484.489V492H316.936V482.182H314.993L311.566 489.955ZM321.206 485.736V482.182H319.697V492H323.814C326.115 492 327.368 490.594 327.368 488.83C327.368 487.04 326.115 485.736 323.814 485.736H321.206ZM328.927 492H330.436V482.182H328.927V492ZM321.206 487.142H323.814C325.009 487.142 325.859 487.871 325.859 488.906C325.859 489.897 325.009 490.594 323.814 490.594H321.206V487.142ZM334.706 489.776V482.182H333.197V492H334.961L339.666 484.406V492H341.174V482.182H339.436L334.706 489.776ZM338.439 478.909C338.439 479.574 338.081 480.162 337.186 480.162C336.291 480.162 335.958 479.574 335.958 478.909H334.552C334.552 480.29 335.575 481.261 337.186 481.261C338.822 481.261 339.845 480.29 339.845 478.909H338.439ZM349 495.682H350.508V490.491H350.636C350.969 491.028 351.608 492.205 353.5 492.205C355.954 492.205 357.667 490.236 357.667 487.116C357.667 484.023 355.954 482.054 353.474 482.054C351.557 482.054 350.969 483.23 350.636 483.741H350.457V482.182H349V495.682ZM350.483 487.091C350.483 484.892 351.454 483.409 353.295 483.409C355.213 483.409 356.159 485.02 356.159 487.091C356.159 489.188 355.187 490.849 353.295 490.849C351.48 490.849 350.483 489.315 350.483 487.091ZM364.085 492.205C366.079 492.205 367.537 491.207 367.997 489.724L366.54 489.315C366.156 490.338 365.268 490.849 364.085 490.849C362.314 490.849 361.094 489.705 361.023 487.602H368.15V486.963C368.15 483.307 365.977 482.054 363.932 482.054C361.273 482.054 359.508 484.151 359.508 487.168C359.508 490.185 361.247 492.205 364.085 492.205ZM361.023 486.298C361.126 484.771 362.206 483.409 363.932 483.409C365.568 483.409 366.616 484.636 366.616 486.298H361.023ZM369.831 489.494C369.883 491.105 371.423 492.205 373.513 492.205C375.661 492.205 377.221 491.054 377.221 489.264C377.221 488.037 376.486 487.04 375.38 486.963V486.861C376.313 486.573 377.016 485.896 377.016 484.79C377.016 483.237 375.687 482.054 373.616 482.054C371.57 482.054 370.113 483.179 370.062 484.764H371.647C371.692 483.952 372.542 483.384 373.692 483.384C374.836 483.384 375.482 483.965 375.482 484.841C375.482 485.659 374.92 486.273 373.718 486.273H372.03V487.628H373.718C374.92 487.628 375.687 488.286 375.687 489.264C375.687 490.383 374.696 490.849 373.488 490.849C372.305 490.849 371.513 490.383 371.442 489.494H369.831ZM380.311 495.682C381.673 495.682 382.632 494.96 383.2 493.432L387.381 482.207L385.732 482.182L383.021 490.006H382.919L380.209 482.182H378.573L382.203 492.051L381.922 492.818C381.372 494.314 380.695 494.455 379.595 494.173L379.212 495.503C379.365 495.58 379.8 495.682 380.311 495.682ZM387.681 492H388.193C390.366 492 390.992 490.312 391.133 487.091L391.286 483.588H394.892V492H396.4V482.182H389.855L389.676 486.528C389.548 489.827 389.215 490.594 388.039 490.594H387.681V492ZM400.676 485.736V482.182H399.168V492H403.284C405.585 492 406.838 490.594 406.838 488.83C406.838 487.04 405.585 485.736 403.284 485.736H400.676ZM400.676 487.142H403.284C404.48 487.142 405.33 487.871 405.33 488.906C405.33 489.897 404.48 490.594 403.284 490.594H400.676V487.142ZM407.553 483.588H410.8V492H412.308V483.588H415.53V482.182H407.553V483.588ZM420.11 492.23C421.823 492.23 422.718 491.31 423.025 490.67H423.101V492H424.61V485.531C424.61 482.412 422.232 482.054 420.979 482.054C419.496 482.054 417.809 482.565 417.042 484.355L418.473 484.866C418.806 484.151 419.592 483.384 421.03 483.384C422.417 483.384 423.101 484.119 423.101 485.378V485.429C423.101 486.158 422.36 486.094 420.57 486.324C418.748 486.56 416.76 486.963 416.76 489.213C416.76 491.131 418.243 492.23 420.11 492.23ZM420.34 490.875C419.138 490.875 418.269 490.338 418.269 489.29C418.269 488.139 419.317 487.781 420.493 487.628C421.132 487.551 422.846 487.372 423.101 487.065V488.446C423.101 489.673 422.13 490.875 420.34 490.875ZM426.027 483.588H429.274V492H430.783V483.588H434.004V482.182H426.027V483.588ZM441.267 495.682H442.776V490.491H442.904C443.236 491.028 443.875 492.205 445.767 492.205C448.222 492.205 449.935 490.236 449.935 487.116C449.935 484.023 448.222 482.054 445.742 482.054C443.824 482.054 443.236 483.23 442.904 483.741H442.725V482.182H441.267V495.682ZM442.75 487.091C442.75 484.892 443.722 483.409 445.563 483.409C447.48 483.409 448.426 485.02 448.426 487.091C448.426 489.188 447.455 490.849 445.563 490.849C443.748 490.849 442.75 489.315 442.75 487.091ZM455.125 492.23C456.838 492.23 457.733 491.31 458.04 490.67H458.117V492H459.625V485.531C459.625 482.412 457.248 482.054 455.995 482.054C454.512 482.054 452.824 482.565 452.057 484.355L453.489 484.866C453.821 484.151 454.608 483.384 456.046 483.384C457.433 483.384 458.117 484.119 458.117 485.378V485.429C458.117 486.158 457.375 486.094 455.586 486.324C453.764 486.56 451.776 486.963 451.776 489.213C451.776 491.131 453.259 492.23 455.125 492.23ZM455.355 490.875C454.154 490.875 453.284 490.338 453.284 489.29C453.284 488.139 454.333 487.781 455.509 487.628C456.148 487.551 457.861 487.372 458.117 487.065V488.446C458.117 489.673 457.145 490.875 455.355 490.875ZM469.666 478.5C469.186 478.903 468.47 478.903 467.467 478.896C467.141 478.896 466.783 478.896 466.393 478.909C463.401 478.986 461.919 481.261 461.919 485.634V486.682C461.919 490.312 463.683 492.205 466.316 492.205C468.943 492.205 470.688 490.3 470.688 487.219C470.688 484.125 468.918 482.489 466.623 482.489C465.274 482.489 464.015 483.051 463.35 484.278H463.222C463.427 481.747 464.373 480.392 466.419 480.315C468.234 480.239 469.538 480.29 470.433 479.42L469.666 478.5ZM466.316 490.849C464.526 490.849 463.427 489.418 463.427 487.219C463.459 485.071 464.539 483.844 466.291 483.844C468.087 483.844 469.18 485.071 469.18 487.219C469.18 489.43 468.093 490.849 466.316 490.849ZM476.985 492.205C479.644 492.205 481.433 490.185 481.433 487.142C481.433 484.074 479.644 482.054 476.985 482.054C474.325 482.054 472.536 484.074 472.536 487.142C472.536 490.185 474.325 492.205 476.985 492.205ZM476.985 490.849C474.965 490.849 474.044 489.111 474.044 487.142C474.044 485.173 474.965 483.409 476.985 483.409C479.004 483.409 479.925 485.173 479.925 487.142C479.925 489.111 479.004 490.849 476.985 490.849ZM482.453 483.588H485.7V492H487.209V483.588H490.43V482.182H482.453V483.588ZM494.139 485.736V482.182H492.631V492H496.747C499.048 492 500.301 490.594 500.301 488.83C500.301 487.04 499.048 485.736 496.747 485.736H494.139ZM501.861 492H503.369V482.182H501.861V492ZM494.139 487.142H496.747C497.942 487.142 498.793 487.871 498.793 488.906C498.793 489.897 497.942 490.594 496.747 490.594H494.139V487.142ZM512.702 482.182H511.193V492H512.702V487.807H517.406V492H518.915V482.182H517.406V486.401H512.702V482.182ZM524.559 492.23C526.272 492.23 527.167 491.31 527.474 490.67H527.55V492H529.059V485.531C529.059 482.412 526.681 482.054 525.428 482.054C523.945 482.054 522.258 482.565 521.491 484.355L522.923 484.866C523.255 484.151 524.041 483.384 525.479 483.384C526.866 483.384 527.55 484.119 527.55 485.378V485.429C527.55 486.158 526.809 486.094 525.019 486.324C523.197 486.56 521.21 486.963 521.21 489.213C521.21 491.131 522.692 492.23 524.559 492.23ZM524.789 490.875C523.587 490.875 522.718 490.338 522.718 489.29C522.718 488.139 523.766 487.781 524.942 487.628C525.582 487.551 527.295 487.372 527.55 487.065V488.446C527.55 489.673 526.579 490.875 524.789 490.875ZM531.812 482.182V492H543.753V482.182H542.244V490.594H538.537V482.182H537.028V490.594H533.321V482.182H531.812ZM550.624 492.205C552.618 492.205 554.076 491.207 554.536 489.724L553.079 489.315C552.695 490.338 551.807 490.849 550.624 490.849C548.854 490.849 547.633 489.705 547.562 487.602H554.689V486.963C554.689 483.307 552.516 482.054 550.471 482.054C547.812 482.054 546.047 484.151 546.047 487.168C546.047 490.185 547.786 492.205 550.624 492.205ZM547.562 486.298C547.665 484.771 548.745 483.409 550.471 483.409C552.107 483.409 553.155 484.636 553.155 486.298H547.562ZM558.493 489.776V482.182H556.984V492H558.748L563.453 484.406V492H564.961V482.182H563.223L558.493 489.776ZM562.226 478.909C562.226 479.574 561.868 480.162 560.973 480.162C560.078 480.162 559.746 479.574 559.746 478.909H558.339C558.339 480.29 559.362 481.261 560.973 481.261C562.609 481.261 563.632 480.29 563.632 478.909H562.226ZM238.381 516H239.889V511.858H241.244L244.466 516H246.409L242.395 510.912L246.358 506.182H244.415L240.886 510.452H239.889V506.182H238.381V516ZM251.633 516.205C254.292 516.205 256.082 514.185 256.082 511.142C256.082 508.074 254.292 506.054 251.633 506.054C248.974 506.054 247.184 508.074 247.184 511.142C247.184 514.185 248.974 516.205 251.633 516.205ZM251.633 514.849C249.613 514.849 248.693 513.111 248.693 511.142C248.693 509.173 249.613 507.409 251.633 507.409C253.653 507.409 254.573 509.173 254.573 511.142C254.573 513.111 253.653 514.849 251.633 514.849ZM263.754 513.955L260.379 506.182H258.385V516H259.893V508.349L263.14 516H264.368L267.615 508.489V516H269.123V506.182H267.18L263.754 513.955ZM274.774 516.23C276.487 516.23 277.382 515.31 277.689 514.67H277.765V516H279.274V509.531C279.274 506.412 276.896 506.054 275.643 506.054C274.16 506.054 272.473 506.565 271.706 508.355L273.137 508.866C273.47 508.151 274.256 507.384 275.694 507.384C277.081 507.384 277.765 508.119 277.765 509.378V509.429C277.765 510.158 277.024 510.094 275.234 510.324C273.412 510.56 271.424 510.963 271.424 513.213C271.424 515.131 272.907 516.23 274.774 516.23ZM275.004 514.875C273.802 514.875 272.933 514.338 272.933 513.29C272.933 512.139 273.981 511.781 275.157 511.628C275.797 511.551 277.51 511.372 277.765 511.065V512.446C277.765 513.673 276.794 514.875 275.004 514.875ZM283.536 506.182H282.027V516H283.536V511.807H288.24V516H289.749V506.182H288.24V510.401H283.536V506.182ZM291.455 518.812H292.964V516H300.225V518.812H301.734V514.594H300.225V506.182H293.987L293.654 510.068C293.418 512.817 293.066 513.763 292.274 514.594H291.455V518.812ZM293.987 514.594C294.677 513.686 294.926 512.12 295.137 510.068L295.393 507.588H298.717V514.594H293.987ZM305.245 509.736V506.182H303.736V516H307.853C310.154 516 311.407 514.594 311.407 512.83C311.407 511.04 310.154 509.736 307.853 509.736H305.245ZM312.966 516H314.475V506.182H312.966V516ZM305.245 511.142H307.853C309.048 511.142 309.898 511.871 309.898 512.906C309.898 513.897 309.048 514.594 307.853 514.594H305.245V511.142ZM318.336 516.102C318.968 516.102 319.486 515.585 319.486 514.952C319.486 514.319 318.968 513.801 318.336 513.801C317.703 513.801 317.185 514.319 317.185 514.952C317.185 515.585 317.703 516.102 318.336 516.102Z" fill="white"/>
<path d="M325.722 554.945H333.336V553.178H327.83V550.002H332.898V548.235H327.83V545.076H333.29V543.309H325.722V554.945ZM336.935 554.945L337.895 552.076H342.27L343.236 554.945H345.486L341.384 543.309H338.782L334.685 554.945H336.935ZM338.463 550.383L340.037 545.695H340.128L341.702 550.383H338.463ZM353.155 546.508H355.184C355.144 544.542 353.468 543.15 350.99 543.15C348.547 543.15 346.712 544.525 346.718 546.582C346.718 548.252 347.905 549.212 349.82 549.707L351.144 550.048C352.4 550.366 353.229 550.758 353.235 551.661C353.229 552.656 352.286 553.32 350.911 553.32C349.593 553.32 348.57 552.729 348.485 551.508H346.411C346.496 553.82 348.218 555.121 350.928 555.121C353.718 555.121 355.337 553.729 355.343 551.678C355.337 549.661 353.672 548.741 351.922 548.326L350.831 548.053C349.877 547.826 348.843 547.423 348.854 546.451C348.86 545.576 349.644 544.934 350.962 544.934C352.218 544.934 353.047 545.519 353.155 546.508ZM356.426 543.309L360.659 550.604V554.945H362.762V550.604L366.995 543.309H364.614L361.767 548.457H361.654L358.807 543.309H356.426ZM382.417 547.235C382.059 544.65 380.07 543.15 377.49 543.15C374.451 543.15 372.161 545.366 372.161 549.127C372.161 552.883 374.422 555.104 377.49 555.104C380.257 555.104 382.093 553.315 382.417 551.093L380.292 551.082C380.025 552.445 378.911 553.212 377.519 553.212C375.632 553.212 374.28 551.798 374.28 549.127C374.28 546.502 375.621 545.042 377.525 545.042C378.939 545.042 380.047 545.843 380.292 547.235H382.417ZM392.142 547.025H394.29C393.932 544.741 391.955 543.15 389.381 543.15C386.336 543.15 384.051 545.388 384.051 549.138C384.051 552.82 386.233 555.104 389.444 555.104C392.324 555.104 394.387 553.252 394.387 550.252V548.854H389.665V550.502H392.347C392.313 552.161 391.205 553.212 389.455 553.212C387.506 553.212 386.171 551.752 386.171 549.116C386.171 546.496 387.529 545.042 389.409 545.042C390.813 545.042 391.767 545.792 392.142 547.025Z" fill="white"/>
<path d="M332.824 581.094H334.506L329.642 574.571L334.347 569.458H332.665L328.006 574.503H327.392V569.458H325.983V581.094H327.392V575.753H328.824L332.824 581.094ZM339.05 581.276C341.414 581.276 343.005 579.48 343.005 576.776C343.005 574.049 341.414 572.253 339.05 572.253C336.686 572.253 335.096 574.049 335.096 576.776C335.096 579.48 336.686 581.276 339.05 581.276ZM339.05 580.071C337.255 580.071 336.436 578.526 336.436 576.776C336.436 575.026 337.255 573.458 339.05 573.458C340.846 573.458 341.664 575.026 341.664 576.776C341.664 578.526 340.846 580.071 339.05 580.071ZM349.824 579.276L346.824 572.367H345.051V581.094H346.392V574.293L349.279 581.094H350.37L353.256 574.418V581.094H354.597V572.367H352.87L349.824 579.276ZM359.62 581.299C361.142 581.299 361.938 580.48 362.211 579.912H362.279V581.094H363.62V575.344C363.62 572.571 361.506 572.253 360.392 572.253C359.074 572.253 357.574 572.708 356.892 574.299L358.165 574.753C358.461 574.117 359.159 573.435 360.438 573.435C361.671 573.435 362.279 574.088 362.279 575.208V575.253C362.279 575.901 361.62 575.844 360.029 576.049C358.409 576.259 356.642 576.617 356.642 578.617C356.642 580.321 357.961 581.299 359.62 581.299ZM359.824 580.094C358.756 580.094 357.983 579.617 357.983 578.685C357.983 577.662 358.915 577.344 359.961 577.208C360.529 577.139 362.051 576.98 362.279 576.708V577.935C362.279 579.026 361.415 580.094 359.824 580.094ZM367.408 572.367H366.067V581.094H367.408V577.367H371.59V581.094H372.931V572.367H371.59V576.117H367.408V572.367ZM374.448 583.594H375.789V581.094H382.243V583.594H383.584V579.844H382.243V572.367H376.698L376.402 575.821C376.192 578.264 375.88 579.105 375.175 579.844H374.448V583.594ZM376.698 579.844C377.311 579.037 377.533 577.645 377.721 575.821L377.948 573.617H380.902V579.844H376.698ZM387.932 581.299C389.455 581.299 390.25 580.48 390.523 579.912H390.591V581.094H391.932V575.344C391.932 572.571 389.819 572.253 388.705 572.253C387.387 572.253 385.887 572.708 385.205 574.299L386.478 574.753C386.773 574.117 387.472 573.435 388.75 573.435C389.983 573.435 390.591 574.088 390.591 575.208V575.253C390.591 575.901 389.932 575.844 388.341 576.049C386.722 576.259 384.955 576.617 384.955 578.617C384.955 580.321 386.273 581.299 387.932 581.299ZM388.137 580.094C387.069 580.094 386.296 579.617 386.296 578.685C386.296 577.662 387.228 577.344 388.273 577.208C388.841 577.139 390.364 576.98 390.591 576.708V577.935C390.591 579.026 389.728 580.094 388.137 580.094ZM398.88 584.367H400.221V579.753H400.334C400.63 580.23 401.198 581.276 402.88 581.276C405.061 581.276 406.584 579.526 406.584 576.753C406.584 574.003 405.061 572.253 402.857 572.253C401.152 572.253 400.63 573.299 400.334 573.753H400.175V572.367H398.88V584.367ZM400.198 576.73C400.198 574.776 401.061 573.458 402.698 573.458C404.402 573.458 405.243 574.889 405.243 576.73C405.243 578.594 404.38 580.071 402.698 580.071C401.084 580.071 400.198 578.708 400.198 576.73ZM411.198 581.299C412.721 581.299 413.516 580.48 413.789 579.912H413.857V581.094H415.198V575.344C415.198 572.571 413.084 572.253 411.971 572.253C410.652 572.253 409.152 572.708 408.471 574.299L409.743 574.753C410.039 574.117 410.738 573.435 412.016 573.435C413.249 573.435 413.857 574.088 413.857 575.208V575.253C413.857 575.901 413.198 575.844 411.607 576.049C409.988 576.259 408.221 576.617 408.221 578.617C408.221 580.321 409.539 581.299 411.198 581.299ZM411.402 580.094C410.334 580.094 409.561 579.617 409.561 578.685C409.561 577.662 410.493 577.344 411.539 577.208C412.107 577.139 413.63 576.98 413.857 576.708V577.935C413.857 579.026 412.993 580.094 411.402 580.094ZM417.1 578.867C417.145 580.299 418.515 581.276 420.373 581.276C422.282 581.276 423.668 580.253 423.668 578.662C423.668 577.571 423.015 576.685 422.032 576.617V576.526C422.861 576.27 423.486 575.668 423.486 574.685C423.486 573.304 422.304 572.253 420.463 572.253C418.645 572.253 417.35 573.253 417.304 574.662H418.713C418.753 573.941 419.509 573.435 420.532 573.435C421.549 573.435 422.123 573.952 422.123 574.73C422.123 575.458 421.623 576.003 420.554 576.003H419.054V577.208H420.554C421.623 577.208 422.304 577.793 422.304 578.662C422.304 579.656 421.424 580.071 420.35 580.071C419.299 580.071 418.594 579.656 418.532 578.867H417.1ZM425.551 584.367H426.892V579.753H427.006C427.301 580.23 427.87 581.276 429.551 581.276C431.733 581.276 433.256 579.526 433.256 576.753C433.256 574.003 431.733 572.253 429.529 572.253C427.824 572.253 427.301 573.299 427.006 573.753H426.847V572.367H425.551V584.367ZM426.87 576.73C426.87 574.776 427.733 573.458 429.37 573.458C431.074 573.458 431.915 574.889 431.915 576.73C431.915 578.594 431.051 580.071 429.37 580.071C427.756 580.071 426.87 578.708 426.87 576.73ZM437.87 581.299C439.392 581.299 440.188 580.48 440.461 579.912H440.529V581.094H441.87V575.344C441.87 572.571 439.756 572.253 438.642 572.253C437.324 572.253 435.824 572.708 435.142 574.299L436.415 574.753C436.711 574.117 437.409 573.435 438.688 573.435C439.921 573.435 440.529 574.088 440.529 575.208V575.253C440.529 575.901 439.87 575.844 438.279 576.049C436.659 576.259 434.892 576.617 434.892 578.617C434.892 580.321 436.211 581.299 437.87 581.299ZM438.074 580.094C437.006 580.094 436.233 579.617 436.233 578.685C436.233 577.662 437.165 577.344 438.211 577.208C438.779 577.139 440.301 576.98 440.529 576.708V577.935C440.529 579.026 439.665 580.094 438.074 580.094ZM450.794 569.094C450.368 569.452 449.732 569.452 448.84 569.446C448.55 569.446 448.232 569.446 447.885 569.458C445.226 569.526 443.908 571.549 443.908 575.435V576.367C443.908 579.594 445.476 581.276 447.817 581.276C450.152 581.276 451.703 579.583 451.703 576.844C451.703 574.094 450.13 572.639 448.09 572.639C446.891 572.639 445.772 573.139 445.181 574.23H445.067C445.249 571.98 446.09 570.776 447.908 570.708C449.522 570.639 450.681 570.685 451.476 569.912L450.794 569.094ZM447.817 580.071C446.226 580.071 445.249 578.799 445.249 576.844C445.277 574.935 446.238 573.844 447.794 573.844C449.391 573.844 450.363 574.935 450.363 576.844C450.363 578.81 449.397 580.071 447.817 580.071ZM457.3 581.276C459.664 581.276 461.255 579.48 461.255 576.776C461.255 574.049 459.664 572.253 457.3 572.253C454.936 572.253 453.346 574.049 453.346 576.776C453.346 579.48 454.936 581.276 457.3 581.276ZM457.3 580.071C455.505 580.071 454.686 578.526 454.686 576.776C454.686 575.026 455.505 573.458 457.3 573.458C459.096 573.458 459.914 575.026 459.914 576.776C459.914 578.526 459.096 580.071 457.3 580.071ZM470.029 572.367H468.688V576.793C468.04 576.98 467.375 577.094 466.574 577.094C465.483 577.094 464.642 576.48 464.642 575.139V572.344H463.301V575.139C463.301 577.276 464.597 578.344 466.574 578.344C467.398 578.344 468.057 578.236 468.688 578.049V581.094H470.029V572.367ZM471.301 573.617H474.188V581.094H475.529V573.617H478.392V572.367H471.301V573.617ZM481.689 579.117V572.367H480.348V581.094H481.917L486.098 574.344V581.094H487.439V572.367H485.894L481.689 579.117ZM489.895 581.094H491.236V577.412H492.441L495.304 581.094H497.032L493.463 576.571L496.986 572.367H495.259L492.123 576.162H491.236V572.367H489.895V581.094ZM501.675 581.276C504.039 581.276 505.63 579.48 505.63 576.776C505.63 574.049 504.039 572.253 501.675 572.253C499.311 572.253 497.721 574.049 497.721 576.776C497.721 579.48 499.311 581.276 501.675 581.276ZM501.675 580.071C499.88 580.071 499.061 578.526 499.061 576.776C499.061 575.026 499.88 573.458 501.675 573.458C503.471 573.458 504.289 575.026 504.289 576.776C504.289 578.526 503.471 580.071 501.675 580.071ZM507.676 581.094H511.79C513.563 581.094 514.631 580.094 514.631 578.753C514.631 577.384 513.591 576.645 512.631 576.503C513.614 576.299 514.313 575.747 514.313 574.685C514.313 573.293 513.12 572.367 511.245 572.367H507.676V581.094ZM508.949 579.867V577.185H511.79C512.711 577.185 513.267 577.736 513.267 578.639C513.267 579.401 512.711 579.867 511.79 579.867H508.949ZM508.949 576.026V573.594H511.245C512.319 573.594 512.972 574.043 512.972 574.776C512.972 575.554 512.319 576.026 511.245 576.026H508.949Z" fill="white"/>
</svg>
