<svg width="420" height="420" viewBox="0 0 420 420" fill="none" xmlns="http://www.w3.org/2000/svg">
<mask id="mask0" mask-type="alpha" maskUnits="userSpaceOnUse" x="0" y="0" width="420" height="420">
<rect width="420" height="420" fill="#1EFE03"/>
</mask>
<g mask="url(#mask0)">
<path d="M202.07 80.5455C199.82 54.5682 180.797 39.8409 154.411 39.8409C126.183 39.8409 103.888 58.6591 103.888 93.6364C103.888 128.46 125.57 147.432 154.411 147.432C185.092 147.432 200.638 126.159 202.07 108.364L173.229 108.159C171.797 117.108 165.456 122.682 155.024 122.682C141.166 122.682 133.138 112.864 133.138 93.6364C133.138 75.4318 140.911 64.5909 155.229 64.5909C166.172 64.5909 172.411 71.0341 173.229 80.5455H202.07ZM316.423 93.6364C316.423 58.6591 293.923 39.8409 265.491 39.8409C236.855 39.8409 214.56 58.6591 214.56 93.6364C214.56 128.409 236.855 147.432 265.491 147.432C293.923 147.432 316.423 128.614 316.423 93.6364ZM287.173 93.6364C287.173 112.455 279.605 122.682 265.491 122.682C251.378 122.682 243.81 112.455 243.81 93.6364C243.81 74.8182 251.378 64.5909 265.491 64.5909C279.605 64.5909 287.173 74.8182 287.173 93.6364ZM370.692 147.432C396.311 147.432 414.362 134.392 414.26 115.932C414.362 103.097 405.771 94.0455 388.896 92.2045V91.3864C401.374 90.0568 410.476 82.0284 410.374 70.3182C410.476 52.6761 394.112 39.8409 370.896 39.8409C347.169 39.8409 330.294 53.392 330.192 72.5682H357.396C357.499 66.2273 363.072 61.7273 370.896 61.7273C378.055 61.7273 383.067 66.0739 382.964 72.1591C383.067 78.5 377.135 83 368.646 83H358.01V102.636H368.646C377.851 102.636 384.294 107.136 384.192 113.477C384.294 119.972 378.771 124.523 370.896 124.523C362.714 124.523 356.885 120.176 356.783 114.091H328.146C328.249 133.625 345.891 147.432 370.692 147.432ZM191.663 292.159H219.072V267H275.118V292.159H302.527V245.114H291.482V162.273H217.436L213.959 206.659C211.913 232.227 206.391 240.614 199.027 245.114H191.663V292.159ZM231.55 245.114C236.05 237.341 239.936 225.886 241.368 206.659L243.004 185.182H264.072V245.114H231.55ZM339.345 267L345.379 246.955H379.947L385.982 267H416.663L382.095 162.273H343.232L308.663 267H339.345ZM351.822 225.682L362.254 191.114H363.072L373.504 225.682H351.822ZM203.016 412H278.288V389.091H231.447V371.091H274.607V348.182H231.447V330.182H278.493V307.273H203.016V412ZM292.594 307.273V412H320.412V351.045H321.23L344.548 411.182H361.321L384.639 351.455H385.457V412H413.276V307.273H377.889L353.548 366.591H352.321L327.98 307.273H292.594Z" fill="white"/>
</g>
</svg>
