<svg width="44" height="44" viewBox="0 0 44 44" fill="none" xmlns="http://www.w3.org/2000/svg">
<rect x="1" y="1" width="42" height="42" rx="21" stroke="white" stroke-width="2"/>
<path d="M20.528 15.2596L20.4953 15.2922L20.528 15.2596L18.0694 12.8011C18.0694 12.8011 18.0694 12.8011 18.0694 12.8011C17.5207 12.2523 16.7909 11.95 16.0148 11.95C15.2386 11.95 14.5089 12.2523 13.9601 12.8012L13.7407 13.0207C13.7407 13.0207 13.7407 13.0207 13.7407 13.0207C12.586 14.1752 11.95 15.7105 11.95 17.3435C11.95 18.9764 12.586 20.5118 13.7405 21.6664L22.4624 30.3881C23.6169 31.5427 25.1523 32.1788 26.785 32.1788C28.418 32.1788 29.9534 31.5427 31.1081 30.3881C31.7155 29.7807 32.05 28.9729 32.05 28.114C32.05 27.2549 31.7155 26.447 31.1081 25.8396L29.0887 23.8203C28.4813 23.2129 27.6734 22.8783 26.8145 22.8783C25.9554 22.8783 25.1477 23.2129 24.5404 23.8203L23.6828 24.6777L19.451 20.4459L20.528 19.3688C21.6608 18.2359 21.6608 16.3925 20.528 15.2596ZM28.1695 24.7395L30.189 26.7589C30.551 27.1208 30.7502 27.602 30.7502 28.114C30.7502 28.4008 30.6873 28.6777 30.5686 28.9295L25.9997 24.3603C26.71 24.0274 27.5838 24.1537 28.1695 24.7395L28.2048 24.7041L28.1695 24.7395ZM23.3816 29.469L23.3462 29.5044L23.3816 29.469L14.6598 20.7472C13.7505 19.8379 13.2498 18.6292 13.2498 17.3435C13.2498 16.2768 13.5944 15.2634 14.2309 14.43L18.9296 19.1288L18.0723 19.9862C17.8184 20.2401 17.8184 20.6517 18.0723 20.9054L23.2233 26.0564C23.2233 26.0565 23.2234 26.0565 23.2234 26.0565C23.477 26.3104 23.8887 26.3104 24.1424 26.0565C24.1424 26.0565 24.1425 26.0565 24.1425 26.0565L25 25.1991L29.6988 29.898C28.8653 30.5343 27.8519 30.8788 26.7853 30.8788C25.4995 30.8788 24.2906 30.3782 23.3816 29.469ZM17.1503 13.7202L19.6088 16.1786C19.6088 16.1786 19.6088 16.1786 19.6088 16.1786C20.1524 16.7224 20.2237 17.5622 19.8229 18.1838L15.1449 13.5057C15.4019 13.3394 15.7013 13.2498 16.0148 13.2498C16.4438 13.2498 16.847 13.4169 17.1503 13.7202Z" fill="white" stroke="white" stroke-width="0.1"/>
<path d="M23.7504 17.72C24.9841 17.72 25.9879 18.7238 25.9879 19.9574C25.9879 20.3164 26.2788 20.6074 26.6377 20.6074C26.9967 20.6074 27.2877 20.3164 27.2877 19.9574C27.2877 18.0069 25.7009 16.4202 23.7504 16.4202C23.3914 16.4202 23.1004 16.7112 23.1004 17.0702C23.1004 17.4291 23.3914 17.72 23.7504 17.72Z" fill="white" stroke="white" stroke-width="0.1"/>
<path d="M24.459 14.4653C27.3017 14.4653 29.6146 16.7783 29.6146 19.621C29.6146 19.98 29.9055 20.271 30.2646 20.271C30.6235 20.271 30.9145 19.98 30.9145 19.621C30.9145 16.0613 28.0184 13.1653 24.459 13.1653C24.0999 13.1653 23.8089 13.4564 23.8089 13.8153C23.8089 14.1743 24.0999 14.4653 24.459 14.4653Z" fill="white" stroke="white" stroke-width="0.1"/>
</svg>
